G04 EAGLE Gerber RS-274X export*
G75*
%MOMM*%
%FSLAX34Y34*%
%LPD*%
%IN*%
%IPPOS*%
%AMOC8*
5,1,8,0,0,1.08239X$1,22.5*%
G01*
%ADD10C,0.203200*%
%ADD11C,0.127000*%
%ADD12C,0.101600*%
%ADD13C,0.025400*%
%ADD14C,0.050000*%
%ADD15C,0.254000*%


D10*
X289750Y0D02*
X222750Y0D01*
X210750Y0D02*
X91250Y0D01*
X91250Y35000D01*
X289750Y35000D02*
X289750Y0D01*
X289750Y35000D02*
X289754Y35140D01*
X289763Y35280D01*
X289775Y35420D01*
X289791Y35559D01*
X289811Y35698D01*
X289834Y35836D01*
X289862Y35974D01*
X289893Y36110D01*
X289928Y36246D01*
X289967Y36381D01*
X290009Y36515D01*
X290055Y36647D01*
X290105Y36778D01*
X290158Y36908D01*
X290215Y37036D01*
X290275Y37163D01*
X290338Y37288D01*
X290406Y37411D01*
X290476Y37532D01*
X290550Y37651D01*
X290627Y37769D01*
X290707Y37884D01*
X290790Y37996D01*
X290877Y38107D01*
X290966Y38215D01*
X291058Y38320D01*
X291153Y38423D01*
X291251Y38524D01*
X291352Y38621D01*
X291455Y38716D01*
X291561Y38808D01*
X291670Y38897D01*
X291780Y38983D01*
X291893Y39066D01*
X292009Y39146D01*
X292126Y39222D01*
X292246Y39296D01*
X292367Y39366D01*
X292491Y39432D01*
X292616Y39495D01*
X292743Y39555D01*
X292871Y39611D01*
X293001Y39664D01*
X293132Y39713D01*
X293265Y39759D01*
X293399Y39801D01*
X293534Y39839D01*
X293670Y39873D01*
X293806Y39904D01*
X293944Y39931D01*
X294082Y39954D01*
X294221Y39973D01*
X294361Y39989D01*
X294500Y40001D01*
X91250Y35000D02*
X91244Y35142D01*
X91234Y35285D01*
X91220Y35426D01*
X91202Y35568D01*
X91181Y35709D01*
X91155Y35849D01*
X91126Y35988D01*
X91093Y36127D01*
X91056Y36264D01*
X91015Y36401D01*
X90970Y36536D01*
X90922Y36670D01*
X90870Y36803D01*
X90814Y36934D01*
X90755Y37064D01*
X90692Y37192D01*
X90626Y37318D01*
X90556Y37442D01*
X90483Y37564D01*
X90407Y37684D01*
X90327Y37802D01*
X90244Y37918D01*
X90158Y38032D01*
X90069Y38143D01*
X89976Y38251D01*
X89881Y38357D01*
X89783Y38461D01*
X89682Y38561D01*
X89578Y38659D01*
X89472Y38754D01*
X89363Y38846D01*
X89252Y38934D01*
X89138Y39020D01*
X89022Y39103D01*
X88903Y39182D01*
X88783Y39258D01*
X88660Y39331D01*
X88536Y39400D01*
X88409Y39466D01*
X88281Y39528D01*
X88151Y39587D01*
X88020Y39642D01*
X87887Y39693D01*
X87753Y39741D01*
X87617Y39785D01*
X87481Y39825D01*
X87343Y39862D01*
X87204Y39894D01*
X87065Y39923D01*
X86924Y39948D01*
X86784Y39969D01*
X86642Y39986D01*
X86500Y40000D01*
X222750Y29000D02*
X222750Y0D01*
X210750Y0D02*
X210750Y29000D01*
X210752Y29153D01*
X210758Y29306D01*
X210768Y29459D01*
X210781Y29612D01*
X210799Y29764D01*
X210820Y29916D01*
X210846Y30067D01*
X210875Y30217D01*
X210908Y30367D01*
X210945Y30516D01*
X210985Y30664D01*
X211030Y30810D01*
X211078Y30956D01*
X211130Y31100D01*
X211185Y31243D01*
X211244Y31384D01*
X211307Y31524D01*
X211373Y31662D01*
X211443Y31799D01*
X211516Y31933D01*
X211593Y32066D01*
X211673Y32197D01*
X211756Y32325D01*
X211842Y32452D01*
X211932Y32576D01*
X212025Y32698D01*
X212121Y32817D01*
X212220Y32934D01*
X212322Y33049D01*
X212427Y33161D01*
X212535Y33270D01*
X212645Y33376D01*
X212758Y33479D01*
X212874Y33580D01*
X212992Y33677D01*
X213113Y33772D01*
X213236Y33863D01*
X213361Y33951D01*
X213489Y34036D01*
X213618Y34118D01*
X213750Y34196D01*
X213884Y34271D01*
X214019Y34343D01*
X214157Y34411D01*
X214296Y34475D01*
X214436Y34536D01*
X214578Y34593D01*
X214722Y34647D01*
X214867Y34697D01*
X215013Y34743D01*
X215160Y34786D01*
X215308Y34824D01*
X215458Y34859D01*
X215608Y34890D01*
X215758Y34918D01*
X215910Y34941D01*
X216062Y34960D01*
X216214Y34976D01*
X216367Y34988D01*
X216520Y34996D01*
X216673Y35000D01*
X216827Y35000D01*
X216980Y34996D01*
X217133Y34988D01*
X217286Y34976D01*
X217438Y34960D01*
X217590Y34941D01*
X217742Y34918D01*
X217892Y34890D01*
X218042Y34859D01*
X218192Y34824D01*
X218340Y34786D01*
X218487Y34743D01*
X218633Y34697D01*
X218778Y34647D01*
X218922Y34593D01*
X219064Y34536D01*
X219204Y34475D01*
X219343Y34411D01*
X219481Y34343D01*
X219616Y34271D01*
X219750Y34196D01*
X219882Y34118D01*
X220011Y34036D01*
X220139Y33951D01*
X220264Y33863D01*
X220387Y33772D01*
X220508Y33677D01*
X220626Y33580D01*
X220742Y33479D01*
X220855Y33376D01*
X220965Y33270D01*
X221073Y33161D01*
X221178Y33049D01*
X221280Y32934D01*
X221379Y32817D01*
X221475Y32698D01*
X221568Y32576D01*
X221658Y32452D01*
X221744Y32325D01*
X221827Y32197D01*
X221907Y32066D01*
X221984Y31933D01*
X222057Y31799D01*
X222127Y31662D01*
X222193Y31524D01*
X222256Y31384D01*
X222315Y31243D01*
X222370Y31100D01*
X222422Y30956D01*
X222470Y30810D01*
X222515Y30664D01*
X222555Y30516D01*
X222592Y30367D01*
X222625Y30217D01*
X222654Y30067D01*
X222680Y29916D01*
X222701Y29764D01*
X222719Y29612D01*
X222732Y29459D01*
X222742Y29306D01*
X222748Y29153D01*
X222750Y29000D01*
X86500Y40000D02*
X500Y40000D01*
X500Y650000D01*
X294500Y40000D02*
X380500Y40000D01*
X380500Y650000D01*
X500Y650000D01*
D11*
X152732Y-13175D02*
X154143Y-13175D01*
X152732Y-13175D02*
X152658Y-13173D01*
X152585Y-13167D01*
X152511Y-13158D01*
X152439Y-13144D01*
X152367Y-13127D01*
X152296Y-13106D01*
X152226Y-13081D01*
X152158Y-13053D01*
X152091Y-13021D01*
X152027Y-12986D01*
X151964Y-12947D01*
X151903Y-12906D01*
X151844Y-12861D01*
X151788Y-12813D01*
X151734Y-12762D01*
X151683Y-12708D01*
X151635Y-12652D01*
X151590Y-12593D01*
X151549Y-12533D01*
X151510Y-12470D01*
X151475Y-12405D01*
X151443Y-12338D01*
X151415Y-12270D01*
X151390Y-12200D01*
X151369Y-12129D01*
X151352Y-12057D01*
X151338Y-11985D01*
X151329Y-11912D01*
X151323Y-11838D01*
X151321Y-11764D01*
X151321Y-8236D01*
X151323Y-8162D01*
X151329Y-8089D01*
X151338Y-8015D01*
X151352Y-7943D01*
X151369Y-7871D01*
X151390Y-7800D01*
X151415Y-7730D01*
X151443Y-7662D01*
X151475Y-7595D01*
X151510Y-7531D01*
X151549Y-7468D01*
X151590Y-7407D01*
X151635Y-7348D01*
X151683Y-7292D01*
X151734Y-7238D01*
X151788Y-7187D01*
X151844Y-7139D01*
X151903Y-7094D01*
X151963Y-7053D01*
X152026Y-7014D01*
X152091Y-6979D01*
X152158Y-6947D01*
X152226Y-6919D01*
X152296Y-6894D01*
X152367Y-6873D01*
X152439Y-6856D01*
X152511Y-6842D01*
X152584Y-6833D01*
X152658Y-6827D01*
X152732Y-6825D01*
X154143Y-6825D01*
X157191Y-6825D02*
X157191Y-13175D01*
X157191Y-8942D02*
X158955Y-8942D01*
X159019Y-8944D01*
X159083Y-8950D01*
X159146Y-8959D01*
X159208Y-8973D01*
X159270Y-8990D01*
X159330Y-9011D01*
X159389Y-9035D01*
X159447Y-9063D01*
X159502Y-9095D01*
X159556Y-9129D01*
X159607Y-9167D01*
X159657Y-9208D01*
X159703Y-9252D01*
X159747Y-9298D01*
X159788Y-9347D01*
X159826Y-9399D01*
X159860Y-9453D01*
X159892Y-9508D01*
X159920Y-9566D01*
X159944Y-9625D01*
X159965Y-9685D01*
X159982Y-9747D01*
X159996Y-9809D01*
X160005Y-9872D01*
X160011Y-9936D01*
X160013Y-10000D01*
X160013Y-13175D01*
X164544Y-10706D02*
X166131Y-10706D01*
X164544Y-10705D02*
X164475Y-10707D01*
X164406Y-10713D01*
X164337Y-10722D01*
X164269Y-10736D01*
X164202Y-10753D01*
X164136Y-10774D01*
X164071Y-10799D01*
X164008Y-10827D01*
X163947Y-10859D01*
X163887Y-10894D01*
X163829Y-10933D01*
X163774Y-10974D01*
X163721Y-11019D01*
X163671Y-11067D01*
X163623Y-11117D01*
X163578Y-11170D01*
X163537Y-11225D01*
X163498Y-11283D01*
X163463Y-11343D01*
X163431Y-11404D01*
X163403Y-11467D01*
X163378Y-11532D01*
X163357Y-11598D01*
X163340Y-11665D01*
X163326Y-11733D01*
X163317Y-11802D01*
X163311Y-11871D01*
X163309Y-11940D01*
X163311Y-12009D01*
X163317Y-12078D01*
X163326Y-12147D01*
X163340Y-12215D01*
X163357Y-12282D01*
X163378Y-12348D01*
X163403Y-12413D01*
X163431Y-12476D01*
X163463Y-12537D01*
X163498Y-12597D01*
X163537Y-12655D01*
X163578Y-12710D01*
X163623Y-12763D01*
X163671Y-12813D01*
X163721Y-12861D01*
X163774Y-12906D01*
X163829Y-12947D01*
X163887Y-12986D01*
X163947Y-13021D01*
X164008Y-13053D01*
X164071Y-13081D01*
X164136Y-13106D01*
X164202Y-13127D01*
X164269Y-13144D01*
X164337Y-13158D01*
X164406Y-13167D01*
X164475Y-13173D01*
X164544Y-13175D01*
X166131Y-13175D01*
X166131Y-10000D01*
X166129Y-9936D01*
X166123Y-9872D01*
X166114Y-9809D01*
X166100Y-9747D01*
X166083Y-9685D01*
X166062Y-9625D01*
X166038Y-9566D01*
X166010Y-9508D01*
X165978Y-9453D01*
X165944Y-9399D01*
X165906Y-9348D01*
X165865Y-9298D01*
X165821Y-9252D01*
X165775Y-9208D01*
X165725Y-9167D01*
X165674Y-9129D01*
X165620Y-9095D01*
X165565Y-9063D01*
X165507Y-9035D01*
X165448Y-9011D01*
X165388Y-8990D01*
X165326Y-8973D01*
X165264Y-8959D01*
X165201Y-8950D01*
X165137Y-8944D01*
X165073Y-8942D01*
X163662Y-8942D01*
X169973Y-8942D02*
X169973Y-13175D01*
X169973Y-8942D02*
X173148Y-8942D01*
X173212Y-8944D01*
X173276Y-8950D01*
X173339Y-8959D01*
X173401Y-8973D01*
X173463Y-8990D01*
X173523Y-9011D01*
X173582Y-9035D01*
X173640Y-9063D01*
X173695Y-9095D01*
X173749Y-9129D01*
X173800Y-9167D01*
X173850Y-9208D01*
X173896Y-9252D01*
X173940Y-9298D01*
X173981Y-9348D01*
X174019Y-9399D01*
X174053Y-9453D01*
X174085Y-9508D01*
X174113Y-9566D01*
X174137Y-9625D01*
X174158Y-9685D01*
X174175Y-9747D01*
X174189Y-9809D01*
X174198Y-9872D01*
X174204Y-9936D01*
X174206Y-10000D01*
X174206Y-13175D01*
X172090Y-13175D02*
X172090Y-8942D01*
X178097Y-7883D02*
X178097Y-13175D01*
X178097Y-7883D02*
X178099Y-7819D01*
X178105Y-7755D01*
X178114Y-7692D01*
X178128Y-7630D01*
X178145Y-7568D01*
X178166Y-7508D01*
X178190Y-7449D01*
X178218Y-7391D01*
X178250Y-7336D01*
X178284Y-7282D01*
X178322Y-7231D01*
X178363Y-7181D01*
X178407Y-7135D01*
X178453Y-7091D01*
X178503Y-7050D01*
X178554Y-7012D01*
X178608Y-6978D01*
X178663Y-6946D01*
X178721Y-6918D01*
X178780Y-6894D01*
X178840Y-6873D01*
X178902Y-6856D01*
X178964Y-6842D01*
X179027Y-6833D01*
X179091Y-6827D01*
X179155Y-6825D01*
X179508Y-6825D01*
X179508Y-8942D02*
X177391Y-8942D01*
X182709Y-13175D02*
X184473Y-13175D01*
X182709Y-13175D02*
X182645Y-13173D01*
X182581Y-13167D01*
X182518Y-13158D01*
X182456Y-13144D01*
X182394Y-13127D01*
X182334Y-13106D01*
X182275Y-13082D01*
X182217Y-13054D01*
X182162Y-13022D01*
X182108Y-12988D01*
X182057Y-12950D01*
X182007Y-12909D01*
X181961Y-12865D01*
X181917Y-12819D01*
X181876Y-12769D01*
X181838Y-12718D01*
X181804Y-12664D01*
X181772Y-12609D01*
X181744Y-12551D01*
X181720Y-12492D01*
X181699Y-12432D01*
X181682Y-12370D01*
X181668Y-12308D01*
X181659Y-12245D01*
X181653Y-12181D01*
X181651Y-12117D01*
X181651Y-10353D01*
X181653Y-10279D01*
X181659Y-10206D01*
X181668Y-10132D01*
X181682Y-10060D01*
X181699Y-9988D01*
X181720Y-9917D01*
X181745Y-9847D01*
X181773Y-9779D01*
X181805Y-9712D01*
X181840Y-9647D01*
X181879Y-9585D01*
X181920Y-9524D01*
X181965Y-9465D01*
X182013Y-9409D01*
X182064Y-9355D01*
X182118Y-9304D01*
X182174Y-9256D01*
X182233Y-9211D01*
X182294Y-9170D01*
X182357Y-9131D01*
X182421Y-9096D01*
X182488Y-9064D01*
X182556Y-9036D01*
X182626Y-9011D01*
X182697Y-8990D01*
X182769Y-8973D01*
X182841Y-8959D01*
X182915Y-8950D01*
X182988Y-8944D01*
X183062Y-8942D01*
X183136Y-8944D01*
X183209Y-8950D01*
X183283Y-8959D01*
X183355Y-8973D01*
X183427Y-8990D01*
X183498Y-9011D01*
X183568Y-9036D01*
X183636Y-9064D01*
X183703Y-9096D01*
X183768Y-9131D01*
X183830Y-9170D01*
X183891Y-9211D01*
X183950Y-9256D01*
X184006Y-9304D01*
X184060Y-9355D01*
X184111Y-9409D01*
X184159Y-9465D01*
X184204Y-9524D01*
X184245Y-9585D01*
X184284Y-9648D01*
X184319Y-9712D01*
X184351Y-9779D01*
X184379Y-9847D01*
X184404Y-9917D01*
X184425Y-9988D01*
X184442Y-10060D01*
X184456Y-10132D01*
X184465Y-10206D01*
X184471Y-10279D01*
X184473Y-10353D01*
X184473Y-11058D01*
X181651Y-11058D01*
X187885Y-13175D02*
X187885Y-8942D01*
X190001Y-8942D01*
X190001Y-9647D01*
X193454Y-13175D02*
X195218Y-13175D01*
X193454Y-13175D02*
X193390Y-13173D01*
X193326Y-13167D01*
X193263Y-13158D01*
X193201Y-13144D01*
X193139Y-13127D01*
X193079Y-13106D01*
X193020Y-13082D01*
X192962Y-13054D01*
X192907Y-13022D01*
X192853Y-12988D01*
X192802Y-12950D01*
X192752Y-12909D01*
X192706Y-12865D01*
X192662Y-12819D01*
X192621Y-12769D01*
X192583Y-12718D01*
X192549Y-12664D01*
X192517Y-12609D01*
X192489Y-12551D01*
X192465Y-12492D01*
X192444Y-12432D01*
X192427Y-12370D01*
X192413Y-12308D01*
X192404Y-12245D01*
X192398Y-12181D01*
X192396Y-12117D01*
X192395Y-12117D02*
X192395Y-10353D01*
X192397Y-10279D01*
X192403Y-10206D01*
X192412Y-10132D01*
X192426Y-10060D01*
X192443Y-9988D01*
X192464Y-9917D01*
X192489Y-9847D01*
X192517Y-9779D01*
X192549Y-9712D01*
X192584Y-9647D01*
X192623Y-9585D01*
X192664Y-9524D01*
X192709Y-9465D01*
X192757Y-9409D01*
X192808Y-9355D01*
X192862Y-9304D01*
X192918Y-9256D01*
X192977Y-9211D01*
X193038Y-9170D01*
X193101Y-9131D01*
X193165Y-9096D01*
X193232Y-9064D01*
X193300Y-9036D01*
X193370Y-9011D01*
X193441Y-8990D01*
X193513Y-8973D01*
X193585Y-8959D01*
X193659Y-8950D01*
X193732Y-8944D01*
X193806Y-8942D01*
X193880Y-8944D01*
X193953Y-8950D01*
X194027Y-8959D01*
X194099Y-8973D01*
X194171Y-8990D01*
X194242Y-9011D01*
X194312Y-9036D01*
X194380Y-9064D01*
X194447Y-9096D01*
X194512Y-9131D01*
X194574Y-9170D01*
X194635Y-9211D01*
X194694Y-9256D01*
X194750Y-9304D01*
X194804Y-9355D01*
X194855Y-9409D01*
X194903Y-9465D01*
X194948Y-9524D01*
X194989Y-9585D01*
X195028Y-9648D01*
X195063Y-9712D01*
X195095Y-9779D01*
X195123Y-9847D01*
X195148Y-9917D01*
X195169Y-9988D01*
X195186Y-10060D01*
X195200Y-10132D01*
X195209Y-10206D01*
X195215Y-10279D01*
X195217Y-10353D01*
X195218Y-10353D02*
X195218Y-11058D01*
X192395Y-11058D01*
X201107Y-13175D02*
X201107Y-6825D01*
X201107Y-13175D02*
X199343Y-13175D01*
X199279Y-13173D01*
X199215Y-13167D01*
X199152Y-13158D01*
X199090Y-13144D01*
X199028Y-13127D01*
X198968Y-13106D01*
X198909Y-13082D01*
X198851Y-13054D01*
X198796Y-13022D01*
X198742Y-12988D01*
X198691Y-12950D01*
X198641Y-12909D01*
X198595Y-12865D01*
X198551Y-12819D01*
X198510Y-12769D01*
X198472Y-12718D01*
X198438Y-12664D01*
X198406Y-12609D01*
X198378Y-12551D01*
X198354Y-12492D01*
X198333Y-12432D01*
X198316Y-12370D01*
X198302Y-12308D01*
X198293Y-12245D01*
X198287Y-12181D01*
X198285Y-12117D01*
X198284Y-12117D02*
X198284Y-10000D01*
X198285Y-10000D02*
X198287Y-9936D01*
X198293Y-9872D01*
X198302Y-9809D01*
X198316Y-9747D01*
X198333Y-9685D01*
X198354Y-9625D01*
X198378Y-9566D01*
X198406Y-9508D01*
X198438Y-9453D01*
X198472Y-9399D01*
X198510Y-9348D01*
X198551Y-9298D01*
X198595Y-9252D01*
X198641Y-9208D01*
X198691Y-9167D01*
X198742Y-9129D01*
X198796Y-9095D01*
X198851Y-9063D01*
X198909Y-9035D01*
X198968Y-9011D01*
X199028Y-8990D01*
X199090Y-8973D01*
X199152Y-8959D01*
X199215Y-8950D01*
X199279Y-8944D01*
X199343Y-8942D01*
X201107Y-8942D01*
X208523Y-13175D02*
X211345Y-13175D01*
X208523Y-13175D02*
X208523Y-6825D01*
X211345Y-6825D01*
X210639Y-9647D02*
X208523Y-9647D01*
X216880Y-6825D02*
X216880Y-13175D01*
X215116Y-13175D01*
X215052Y-13173D01*
X214988Y-13167D01*
X214925Y-13158D01*
X214863Y-13144D01*
X214801Y-13127D01*
X214741Y-13106D01*
X214682Y-13082D01*
X214624Y-13054D01*
X214569Y-13022D01*
X214515Y-12988D01*
X214464Y-12950D01*
X214414Y-12909D01*
X214368Y-12865D01*
X214324Y-12819D01*
X214283Y-12769D01*
X214245Y-12718D01*
X214211Y-12664D01*
X214179Y-12609D01*
X214151Y-12551D01*
X214127Y-12492D01*
X214106Y-12432D01*
X214089Y-12370D01*
X214075Y-12308D01*
X214066Y-12245D01*
X214060Y-12181D01*
X214058Y-12117D01*
X214058Y-10000D01*
X214060Y-9936D01*
X214066Y-9872D01*
X214075Y-9809D01*
X214089Y-9747D01*
X214106Y-9685D01*
X214127Y-9625D01*
X214151Y-9566D01*
X214179Y-9508D01*
X214211Y-9453D01*
X214245Y-9399D01*
X214283Y-9348D01*
X214324Y-9298D01*
X214368Y-9252D01*
X214414Y-9208D01*
X214464Y-9167D01*
X214515Y-9129D01*
X214569Y-9095D01*
X214624Y-9063D01*
X214682Y-9035D01*
X214741Y-9011D01*
X214801Y-8990D01*
X214863Y-8973D01*
X214925Y-8959D01*
X214988Y-8950D01*
X215052Y-8944D01*
X215116Y-8942D01*
X216880Y-8942D01*
X221288Y-13175D02*
X223052Y-13175D01*
X221288Y-13175D02*
X221224Y-13173D01*
X221160Y-13167D01*
X221097Y-13158D01*
X221035Y-13144D01*
X220973Y-13127D01*
X220913Y-13106D01*
X220854Y-13082D01*
X220796Y-13054D01*
X220741Y-13022D01*
X220687Y-12988D01*
X220636Y-12950D01*
X220586Y-12909D01*
X220540Y-12865D01*
X220496Y-12819D01*
X220455Y-12769D01*
X220417Y-12718D01*
X220383Y-12664D01*
X220351Y-12609D01*
X220323Y-12551D01*
X220299Y-12492D01*
X220278Y-12432D01*
X220261Y-12370D01*
X220247Y-12308D01*
X220238Y-12245D01*
X220232Y-12181D01*
X220230Y-12117D01*
X220230Y-10000D01*
X220232Y-9936D01*
X220238Y-9872D01*
X220247Y-9809D01*
X220261Y-9747D01*
X220278Y-9685D01*
X220299Y-9625D01*
X220323Y-9566D01*
X220351Y-9508D01*
X220383Y-9453D01*
X220417Y-9399D01*
X220455Y-9348D01*
X220496Y-9298D01*
X220540Y-9252D01*
X220586Y-9208D01*
X220636Y-9167D01*
X220687Y-9129D01*
X220741Y-9095D01*
X220796Y-9063D01*
X220854Y-9035D01*
X220913Y-9011D01*
X220973Y-8990D01*
X221035Y-8973D01*
X221097Y-8959D01*
X221160Y-8950D01*
X221224Y-8944D01*
X221288Y-8942D01*
X223052Y-8942D01*
X223052Y-14233D01*
X223050Y-14297D01*
X223044Y-14361D01*
X223035Y-14424D01*
X223021Y-14486D01*
X223004Y-14548D01*
X222983Y-14608D01*
X222959Y-14667D01*
X222931Y-14725D01*
X222899Y-14780D01*
X222865Y-14834D01*
X222827Y-14885D01*
X222786Y-14935D01*
X222742Y-14981D01*
X222696Y-15025D01*
X222646Y-15066D01*
X222595Y-15104D01*
X222541Y-15138D01*
X222486Y-15170D01*
X222428Y-15198D01*
X222369Y-15222D01*
X222309Y-15243D01*
X222247Y-15260D01*
X222185Y-15274D01*
X222122Y-15283D01*
X222058Y-15289D01*
X221994Y-15291D01*
X221994Y-15292D02*
X220583Y-15292D01*
X227515Y-13175D02*
X229279Y-13175D01*
X227515Y-13175D02*
X227451Y-13173D01*
X227387Y-13167D01*
X227324Y-13158D01*
X227262Y-13144D01*
X227200Y-13127D01*
X227140Y-13106D01*
X227081Y-13082D01*
X227023Y-13054D01*
X226968Y-13022D01*
X226914Y-12988D01*
X226863Y-12950D01*
X226813Y-12909D01*
X226767Y-12865D01*
X226723Y-12819D01*
X226682Y-12769D01*
X226644Y-12718D01*
X226610Y-12664D01*
X226578Y-12609D01*
X226550Y-12551D01*
X226526Y-12492D01*
X226505Y-12432D01*
X226488Y-12370D01*
X226474Y-12308D01*
X226465Y-12245D01*
X226459Y-12181D01*
X226457Y-12117D01*
X226457Y-10353D01*
X226459Y-10279D01*
X226465Y-10206D01*
X226474Y-10132D01*
X226488Y-10060D01*
X226505Y-9988D01*
X226526Y-9917D01*
X226551Y-9847D01*
X226579Y-9779D01*
X226611Y-9712D01*
X226646Y-9647D01*
X226685Y-9585D01*
X226726Y-9524D01*
X226771Y-9465D01*
X226819Y-9409D01*
X226870Y-9355D01*
X226924Y-9304D01*
X226980Y-9256D01*
X227039Y-9211D01*
X227100Y-9170D01*
X227163Y-9131D01*
X227227Y-9096D01*
X227294Y-9064D01*
X227362Y-9036D01*
X227432Y-9011D01*
X227503Y-8990D01*
X227575Y-8973D01*
X227647Y-8959D01*
X227721Y-8950D01*
X227794Y-8944D01*
X227868Y-8942D01*
X227942Y-8944D01*
X228015Y-8950D01*
X228089Y-8959D01*
X228161Y-8973D01*
X228233Y-8990D01*
X228304Y-9011D01*
X228374Y-9036D01*
X228442Y-9064D01*
X228509Y-9096D01*
X228574Y-9131D01*
X228636Y-9170D01*
X228697Y-9211D01*
X228756Y-9256D01*
X228812Y-9304D01*
X228866Y-9355D01*
X228917Y-9409D01*
X228965Y-9465D01*
X229010Y-9524D01*
X229051Y-9585D01*
X229090Y-9648D01*
X229125Y-9712D01*
X229157Y-9779D01*
X229185Y-9847D01*
X229210Y-9917D01*
X229231Y-9988D01*
X229248Y-10060D01*
X229262Y-10132D01*
X229271Y-10206D01*
X229277Y-10279D01*
X229279Y-10353D01*
X229279Y-11058D01*
X226457Y-11058D01*
D12*
X290300Y-2000D02*
X296300Y-8000D01*
X290300Y-6000D02*
X290300Y-2000D01*
X294300Y-2000D01*
X90300Y-2000D02*
X84300Y-8000D01*
X86300Y-2000D02*
X90300Y-2000D01*
X90300Y-6000D01*
D11*
X163769Y-22700D02*
X163771Y-22560D01*
X163776Y-22421D01*
X163786Y-22282D01*
X163799Y-22143D01*
X163815Y-22004D01*
X163836Y-21866D01*
X163860Y-21728D01*
X163888Y-21591D01*
X163919Y-21455D01*
X163954Y-21320D01*
X163993Y-21186D01*
X164035Y-21053D01*
X164081Y-20921D01*
X164130Y-20790D01*
X164183Y-20661D01*
X164239Y-20533D01*
X164298Y-20407D01*
X164299Y-20407D02*
X164323Y-20341D01*
X164351Y-20276D01*
X164383Y-20213D01*
X164418Y-20152D01*
X164456Y-20093D01*
X164497Y-20036D01*
X164541Y-19982D01*
X164589Y-19929D01*
X164639Y-19880D01*
X164691Y-19833D01*
X164746Y-19789D01*
X164803Y-19748D01*
X164863Y-19710D01*
X164924Y-19676D01*
X164987Y-19645D01*
X165052Y-19617D01*
X165118Y-19593D01*
X165185Y-19572D01*
X165254Y-19555D01*
X165323Y-19542D01*
X165393Y-19533D01*
X165463Y-19527D01*
X165533Y-19525D01*
X165603Y-19527D01*
X165674Y-19533D01*
X165743Y-19542D01*
X165812Y-19555D01*
X165881Y-19572D01*
X165948Y-19593D01*
X166014Y-19617D01*
X166079Y-19645D01*
X166142Y-19676D01*
X166203Y-19710D01*
X166263Y-19748D01*
X166320Y-19789D01*
X166375Y-19833D01*
X166427Y-19880D01*
X166477Y-19929D01*
X166525Y-19982D01*
X166569Y-20036D01*
X166610Y-20093D01*
X166648Y-20152D01*
X166683Y-20213D01*
X166715Y-20276D01*
X166743Y-20341D01*
X166767Y-20407D01*
X166768Y-20407D02*
X166827Y-20533D01*
X166883Y-20661D01*
X166936Y-20790D01*
X166985Y-20921D01*
X167031Y-21053D01*
X167073Y-21186D01*
X167112Y-21320D01*
X167147Y-21455D01*
X167178Y-21591D01*
X167206Y-21728D01*
X167230Y-21866D01*
X167251Y-22004D01*
X167267Y-22143D01*
X167280Y-22282D01*
X167290Y-22421D01*
X167295Y-22560D01*
X167297Y-22700D01*
X163769Y-22700D02*
X163771Y-22840D01*
X163776Y-22979D01*
X163786Y-23118D01*
X163799Y-23257D01*
X163815Y-23396D01*
X163836Y-23534D01*
X163860Y-23672D01*
X163888Y-23809D01*
X163919Y-23945D01*
X163954Y-24080D01*
X163993Y-24214D01*
X164035Y-24347D01*
X164081Y-24479D01*
X164130Y-24610D01*
X164183Y-24739D01*
X164239Y-24867D01*
X164298Y-24993D01*
X164299Y-24993D02*
X164323Y-25059D01*
X164351Y-25124D01*
X164383Y-25187D01*
X164418Y-25248D01*
X164456Y-25307D01*
X164497Y-25364D01*
X164542Y-25419D01*
X164589Y-25471D01*
X164639Y-25520D01*
X164691Y-25567D01*
X164746Y-25611D01*
X164803Y-25652D01*
X164863Y-25690D01*
X164924Y-25724D01*
X164987Y-25755D01*
X165052Y-25783D01*
X165118Y-25807D01*
X165185Y-25828D01*
X165254Y-25845D01*
X165323Y-25858D01*
X165393Y-25867D01*
X165463Y-25873D01*
X165533Y-25875D01*
X166768Y-24993D02*
X166827Y-24867D01*
X166883Y-24739D01*
X166936Y-24610D01*
X166985Y-24479D01*
X167031Y-24347D01*
X167073Y-24214D01*
X167112Y-24080D01*
X167147Y-23945D01*
X167178Y-23809D01*
X167206Y-23672D01*
X167230Y-23534D01*
X167251Y-23396D01*
X167267Y-23257D01*
X167280Y-23118D01*
X167290Y-22979D01*
X167295Y-22840D01*
X167297Y-22700D01*
X166767Y-24993D02*
X166743Y-25059D01*
X166715Y-25124D01*
X166683Y-25187D01*
X166648Y-25248D01*
X166610Y-25307D01*
X166569Y-25364D01*
X166525Y-25418D01*
X166477Y-25471D01*
X166427Y-25520D01*
X166375Y-25567D01*
X166320Y-25611D01*
X166263Y-25652D01*
X166203Y-25690D01*
X166142Y-25724D01*
X166079Y-25755D01*
X166014Y-25783D01*
X165948Y-25807D01*
X165881Y-25828D01*
X165812Y-25845D01*
X165743Y-25858D01*
X165673Y-25867D01*
X165603Y-25873D01*
X165533Y-25875D01*
X164122Y-24464D02*
X166944Y-20936D01*
X170157Y-25522D02*
X170157Y-25875D01*
X170157Y-25522D02*
X170510Y-25522D01*
X170510Y-25875D01*
X170157Y-25875D01*
X173370Y-24111D02*
X173372Y-24028D01*
X173378Y-23946D01*
X173387Y-23864D01*
X173401Y-23782D01*
X173418Y-23701D01*
X173439Y-23621D01*
X173464Y-23542D01*
X173493Y-23465D01*
X173525Y-23388D01*
X173560Y-23314D01*
X173599Y-23241D01*
X173642Y-23170D01*
X173688Y-23101D01*
X173737Y-23034D01*
X173789Y-22970D01*
X173844Y-22908D01*
X173901Y-22849D01*
X173962Y-22793D01*
X174025Y-22739D01*
X174090Y-22689D01*
X174158Y-22641D01*
X174228Y-22597D01*
X174300Y-22557D01*
X174374Y-22519D01*
X174449Y-22485D01*
X174526Y-22455D01*
X174605Y-22428D01*
X174684Y-22405D01*
X174765Y-22386D01*
X174846Y-22371D01*
X174928Y-22359D01*
X175010Y-22351D01*
X175093Y-22347D01*
X175175Y-22347D01*
X175258Y-22351D01*
X175340Y-22359D01*
X175422Y-22371D01*
X175503Y-22386D01*
X175584Y-22405D01*
X175663Y-22428D01*
X175742Y-22455D01*
X175819Y-22485D01*
X175894Y-22519D01*
X175968Y-22557D01*
X176040Y-22597D01*
X176110Y-22641D01*
X176178Y-22689D01*
X176243Y-22739D01*
X176306Y-22793D01*
X176367Y-22849D01*
X176424Y-22908D01*
X176479Y-22970D01*
X176531Y-23034D01*
X176580Y-23101D01*
X176626Y-23170D01*
X176669Y-23241D01*
X176708Y-23314D01*
X176743Y-23388D01*
X176775Y-23465D01*
X176804Y-23542D01*
X176829Y-23621D01*
X176850Y-23701D01*
X176867Y-23782D01*
X176881Y-23864D01*
X176890Y-23946D01*
X176896Y-24028D01*
X176898Y-24111D01*
X176896Y-24194D01*
X176890Y-24276D01*
X176881Y-24358D01*
X176867Y-24440D01*
X176850Y-24521D01*
X176829Y-24601D01*
X176804Y-24680D01*
X176775Y-24757D01*
X176743Y-24834D01*
X176708Y-24908D01*
X176669Y-24981D01*
X176626Y-25052D01*
X176580Y-25121D01*
X176531Y-25188D01*
X176479Y-25252D01*
X176424Y-25314D01*
X176367Y-25373D01*
X176306Y-25429D01*
X176243Y-25483D01*
X176178Y-25533D01*
X176110Y-25581D01*
X176040Y-25625D01*
X175968Y-25665D01*
X175894Y-25703D01*
X175819Y-25737D01*
X175742Y-25767D01*
X175663Y-25794D01*
X175584Y-25817D01*
X175503Y-25836D01*
X175422Y-25851D01*
X175340Y-25863D01*
X175258Y-25871D01*
X175175Y-25875D01*
X175093Y-25875D01*
X175010Y-25871D01*
X174928Y-25863D01*
X174846Y-25851D01*
X174765Y-25836D01*
X174684Y-25817D01*
X174605Y-25794D01*
X174526Y-25767D01*
X174449Y-25737D01*
X174374Y-25703D01*
X174300Y-25665D01*
X174228Y-25625D01*
X174158Y-25581D01*
X174090Y-25533D01*
X174025Y-25483D01*
X173962Y-25429D01*
X173901Y-25373D01*
X173844Y-25314D01*
X173789Y-25252D01*
X173737Y-25188D01*
X173688Y-25121D01*
X173642Y-25052D01*
X173599Y-24981D01*
X173560Y-24908D01*
X173525Y-24834D01*
X173493Y-24757D01*
X173464Y-24680D01*
X173439Y-24601D01*
X173418Y-24521D01*
X173401Y-24440D01*
X173387Y-24358D01*
X173378Y-24276D01*
X173372Y-24194D01*
X173370Y-24111D01*
X173723Y-20936D02*
X173725Y-20862D01*
X173731Y-20789D01*
X173740Y-20715D01*
X173754Y-20643D01*
X173771Y-20571D01*
X173792Y-20500D01*
X173817Y-20430D01*
X173845Y-20362D01*
X173877Y-20295D01*
X173912Y-20231D01*
X173951Y-20168D01*
X173992Y-20107D01*
X174037Y-20048D01*
X174085Y-19992D01*
X174136Y-19938D01*
X174190Y-19887D01*
X174246Y-19839D01*
X174305Y-19794D01*
X174366Y-19753D01*
X174429Y-19714D01*
X174493Y-19679D01*
X174560Y-19647D01*
X174628Y-19619D01*
X174698Y-19594D01*
X174769Y-19573D01*
X174841Y-19556D01*
X174913Y-19542D01*
X174987Y-19533D01*
X175060Y-19527D01*
X175134Y-19525D01*
X175208Y-19527D01*
X175281Y-19533D01*
X175355Y-19542D01*
X175427Y-19556D01*
X175499Y-19573D01*
X175570Y-19594D01*
X175640Y-19619D01*
X175708Y-19647D01*
X175775Y-19679D01*
X175840Y-19714D01*
X175902Y-19753D01*
X175963Y-19794D01*
X176022Y-19839D01*
X176078Y-19887D01*
X176132Y-19938D01*
X176183Y-19992D01*
X176231Y-20048D01*
X176276Y-20107D01*
X176317Y-20168D01*
X176356Y-20231D01*
X176391Y-20295D01*
X176423Y-20362D01*
X176451Y-20430D01*
X176476Y-20500D01*
X176497Y-20571D01*
X176514Y-20643D01*
X176528Y-20715D01*
X176537Y-20789D01*
X176543Y-20862D01*
X176545Y-20936D01*
X176543Y-21010D01*
X176537Y-21083D01*
X176528Y-21157D01*
X176514Y-21229D01*
X176497Y-21301D01*
X176476Y-21372D01*
X176451Y-21442D01*
X176423Y-21510D01*
X176391Y-21577D01*
X176356Y-21641D01*
X176317Y-21704D01*
X176276Y-21765D01*
X176231Y-21824D01*
X176183Y-21880D01*
X176132Y-21934D01*
X176078Y-21985D01*
X176022Y-22033D01*
X175963Y-22078D01*
X175902Y-22119D01*
X175840Y-22158D01*
X175775Y-22193D01*
X175708Y-22225D01*
X175640Y-22253D01*
X175570Y-22278D01*
X175499Y-22299D01*
X175427Y-22316D01*
X175355Y-22330D01*
X175281Y-22339D01*
X175208Y-22345D01*
X175134Y-22347D01*
X175060Y-22345D01*
X174987Y-22339D01*
X174913Y-22330D01*
X174841Y-22316D01*
X174769Y-22299D01*
X174698Y-22278D01*
X174628Y-22253D01*
X174560Y-22225D01*
X174493Y-22193D01*
X174429Y-22158D01*
X174366Y-22119D01*
X174305Y-22078D01*
X174246Y-22033D01*
X174190Y-21985D01*
X174136Y-21934D01*
X174085Y-21880D01*
X174037Y-21824D01*
X173992Y-21765D01*
X173951Y-21704D01*
X173912Y-21641D01*
X173877Y-21577D01*
X173845Y-21510D01*
X173817Y-21442D01*
X173792Y-21372D01*
X173771Y-21301D01*
X173754Y-21229D01*
X173740Y-21157D01*
X173731Y-21083D01*
X173725Y-21010D01*
X173723Y-20936D01*
X180561Y-21642D02*
X180561Y-25875D01*
X180561Y-21642D02*
X183736Y-21642D01*
X183800Y-21644D01*
X183864Y-21650D01*
X183927Y-21659D01*
X183989Y-21673D01*
X184051Y-21690D01*
X184111Y-21711D01*
X184170Y-21735D01*
X184228Y-21763D01*
X184283Y-21795D01*
X184337Y-21829D01*
X184388Y-21867D01*
X184438Y-21908D01*
X184484Y-21952D01*
X184528Y-21998D01*
X184569Y-22048D01*
X184607Y-22099D01*
X184641Y-22153D01*
X184673Y-22208D01*
X184701Y-22266D01*
X184725Y-22325D01*
X184746Y-22385D01*
X184763Y-22447D01*
X184777Y-22509D01*
X184786Y-22572D01*
X184792Y-22636D01*
X184794Y-22700D01*
X184795Y-22700D02*
X184795Y-25875D01*
X182678Y-25875D02*
X182678Y-21642D01*
X188791Y-21642D02*
X188791Y-25875D01*
X188791Y-21642D02*
X191966Y-21642D01*
X192030Y-21644D01*
X192094Y-21650D01*
X192157Y-21659D01*
X192219Y-21673D01*
X192281Y-21690D01*
X192341Y-21711D01*
X192400Y-21735D01*
X192458Y-21763D01*
X192513Y-21795D01*
X192567Y-21829D01*
X192618Y-21867D01*
X192668Y-21908D01*
X192714Y-21952D01*
X192758Y-21998D01*
X192799Y-22048D01*
X192837Y-22099D01*
X192871Y-22153D01*
X192903Y-22208D01*
X192931Y-22266D01*
X192955Y-22325D01*
X192976Y-22385D01*
X192993Y-22447D01*
X193007Y-22509D01*
X193016Y-22572D01*
X193022Y-22636D01*
X193024Y-22700D01*
X193024Y-25875D01*
X190908Y-25875D02*
X190908Y-21642D01*
X200730Y-19525D02*
X200730Y-25875D01*
X200730Y-19525D02*
X202494Y-19525D01*
X202577Y-19527D01*
X202659Y-19533D01*
X202741Y-19542D01*
X202823Y-19556D01*
X202904Y-19573D01*
X202984Y-19594D01*
X203063Y-19619D01*
X203140Y-19648D01*
X203217Y-19680D01*
X203291Y-19715D01*
X203364Y-19754D01*
X203435Y-19797D01*
X203504Y-19843D01*
X203571Y-19892D01*
X203635Y-19944D01*
X203697Y-19999D01*
X203756Y-20056D01*
X203812Y-20117D01*
X203866Y-20180D01*
X203916Y-20245D01*
X203964Y-20313D01*
X204008Y-20383D01*
X204048Y-20455D01*
X204086Y-20529D01*
X204120Y-20604D01*
X204150Y-20681D01*
X204177Y-20760D01*
X204200Y-20839D01*
X204219Y-20920D01*
X204234Y-21001D01*
X204246Y-21083D01*
X204254Y-21165D01*
X204258Y-21248D01*
X204258Y-21330D01*
X204254Y-21413D01*
X204246Y-21495D01*
X204234Y-21577D01*
X204219Y-21658D01*
X204200Y-21739D01*
X204177Y-21818D01*
X204150Y-21897D01*
X204120Y-21974D01*
X204086Y-22049D01*
X204048Y-22123D01*
X204008Y-22195D01*
X203964Y-22265D01*
X203916Y-22333D01*
X203866Y-22398D01*
X203812Y-22461D01*
X203756Y-22522D01*
X203697Y-22579D01*
X203635Y-22634D01*
X203571Y-22686D01*
X203504Y-22735D01*
X203435Y-22781D01*
X203364Y-22824D01*
X203291Y-22863D01*
X203217Y-22898D01*
X203140Y-22930D01*
X203063Y-22959D01*
X202984Y-22984D01*
X202904Y-23005D01*
X202823Y-23022D01*
X202741Y-23036D01*
X202659Y-23045D01*
X202577Y-23051D01*
X202494Y-23053D01*
X200730Y-23053D01*
X208583Y-25875D02*
X209994Y-25875D01*
X208583Y-25875D02*
X208509Y-25873D01*
X208436Y-25867D01*
X208362Y-25858D01*
X208290Y-25844D01*
X208218Y-25827D01*
X208147Y-25806D01*
X208077Y-25781D01*
X208009Y-25753D01*
X207942Y-25721D01*
X207878Y-25686D01*
X207815Y-25647D01*
X207754Y-25606D01*
X207695Y-25561D01*
X207639Y-25513D01*
X207585Y-25462D01*
X207534Y-25408D01*
X207486Y-25352D01*
X207441Y-25293D01*
X207400Y-25233D01*
X207361Y-25170D01*
X207326Y-25105D01*
X207294Y-25038D01*
X207266Y-24970D01*
X207241Y-24900D01*
X207220Y-24829D01*
X207203Y-24757D01*
X207189Y-24685D01*
X207180Y-24612D01*
X207174Y-24538D01*
X207172Y-24464D01*
X207172Y-20936D01*
X207174Y-20862D01*
X207180Y-20789D01*
X207189Y-20715D01*
X207203Y-20643D01*
X207220Y-20571D01*
X207241Y-20500D01*
X207266Y-20430D01*
X207294Y-20362D01*
X207326Y-20295D01*
X207361Y-20231D01*
X207400Y-20168D01*
X207441Y-20107D01*
X207486Y-20048D01*
X207534Y-19992D01*
X207585Y-19938D01*
X207639Y-19887D01*
X207695Y-19839D01*
X207754Y-19794D01*
X207814Y-19753D01*
X207877Y-19714D01*
X207942Y-19679D01*
X208009Y-19647D01*
X208077Y-19619D01*
X208147Y-19594D01*
X208218Y-19573D01*
X208290Y-19556D01*
X208362Y-19542D01*
X208435Y-19533D01*
X208509Y-19527D01*
X208583Y-19525D01*
X209994Y-19525D01*
X213303Y-22347D02*
X215067Y-22347D01*
X215150Y-22349D01*
X215232Y-22355D01*
X215314Y-22364D01*
X215396Y-22378D01*
X215477Y-22395D01*
X215557Y-22416D01*
X215636Y-22441D01*
X215713Y-22470D01*
X215790Y-22502D01*
X215864Y-22537D01*
X215937Y-22576D01*
X216008Y-22619D01*
X216077Y-22665D01*
X216144Y-22714D01*
X216208Y-22766D01*
X216270Y-22821D01*
X216329Y-22878D01*
X216385Y-22939D01*
X216439Y-23002D01*
X216489Y-23067D01*
X216537Y-23135D01*
X216581Y-23205D01*
X216621Y-23277D01*
X216659Y-23351D01*
X216693Y-23426D01*
X216723Y-23503D01*
X216750Y-23582D01*
X216773Y-23661D01*
X216792Y-23742D01*
X216807Y-23823D01*
X216819Y-23905D01*
X216827Y-23987D01*
X216831Y-24070D01*
X216831Y-24152D01*
X216827Y-24235D01*
X216819Y-24317D01*
X216807Y-24399D01*
X216792Y-24480D01*
X216773Y-24561D01*
X216750Y-24640D01*
X216723Y-24719D01*
X216693Y-24796D01*
X216659Y-24871D01*
X216621Y-24945D01*
X216581Y-25017D01*
X216537Y-25087D01*
X216489Y-25155D01*
X216439Y-25220D01*
X216385Y-25283D01*
X216329Y-25344D01*
X216270Y-25401D01*
X216208Y-25456D01*
X216144Y-25508D01*
X216077Y-25557D01*
X216008Y-25603D01*
X215937Y-25646D01*
X215864Y-25685D01*
X215790Y-25720D01*
X215713Y-25752D01*
X215636Y-25781D01*
X215557Y-25806D01*
X215477Y-25827D01*
X215396Y-25844D01*
X215314Y-25858D01*
X215232Y-25867D01*
X215150Y-25873D01*
X215067Y-25875D01*
X213303Y-25875D01*
X213303Y-19525D01*
X215067Y-19525D01*
X215141Y-19527D01*
X215214Y-19533D01*
X215288Y-19542D01*
X215360Y-19556D01*
X215432Y-19573D01*
X215503Y-19594D01*
X215573Y-19619D01*
X215641Y-19647D01*
X215708Y-19679D01*
X215772Y-19714D01*
X215835Y-19753D01*
X215896Y-19794D01*
X215955Y-19839D01*
X216011Y-19887D01*
X216065Y-19938D01*
X216116Y-19992D01*
X216164Y-20048D01*
X216209Y-20107D01*
X216250Y-20168D01*
X216289Y-20230D01*
X216324Y-20295D01*
X216356Y-20362D01*
X216384Y-20430D01*
X216409Y-20500D01*
X216430Y-20571D01*
X216447Y-20643D01*
X216461Y-20715D01*
X216470Y-20789D01*
X216476Y-20862D01*
X216478Y-20936D01*
X216476Y-21010D01*
X216470Y-21083D01*
X216461Y-21157D01*
X216447Y-21229D01*
X216430Y-21301D01*
X216409Y-21372D01*
X216384Y-21442D01*
X216356Y-21510D01*
X216324Y-21577D01*
X216289Y-21641D01*
X216250Y-21704D01*
X216209Y-21765D01*
X216164Y-21824D01*
X216116Y-21880D01*
X216065Y-21934D01*
X216011Y-21985D01*
X215955Y-22033D01*
X215896Y-22078D01*
X215835Y-22119D01*
X215773Y-22158D01*
X215708Y-22193D01*
X215641Y-22225D01*
X215573Y-22253D01*
X215503Y-22278D01*
X215432Y-22299D01*
X215360Y-22316D01*
X215288Y-22330D01*
X215214Y-22339D01*
X215141Y-22345D01*
X215067Y-22347D01*
D13*
X367337Y434777D02*
X370083Y434777D01*
X367337Y434777D02*
X367337Y435540D01*
X367339Y435594D01*
X367345Y435649D01*
X367354Y435702D01*
X367368Y435755D01*
X367385Y435807D01*
X367406Y435857D01*
X367430Y435906D01*
X367458Y435953D01*
X367489Y435997D01*
X367523Y436040D01*
X367560Y436080D01*
X367600Y436117D01*
X367643Y436151D01*
X367687Y436182D01*
X367734Y436210D01*
X367783Y436234D01*
X367833Y436255D01*
X367885Y436272D01*
X367938Y436286D01*
X367991Y436295D01*
X368046Y436301D01*
X368100Y436303D01*
X368154Y436301D01*
X368209Y436295D01*
X368262Y436286D01*
X368315Y436272D01*
X368367Y436255D01*
X368417Y436234D01*
X368466Y436210D01*
X368513Y436182D01*
X368557Y436151D01*
X368600Y436117D01*
X368640Y436080D01*
X368677Y436040D01*
X368711Y435997D01*
X368742Y435953D01*
X368770Y435906D01*
X368794Y435857D01*
X368815Y435807D01*
X368832Y435755D01*
X368846Y435702D01*
X368855Y435649D01*
X368861Y435594D01*
X368863Y435540D01*
X368863Y434777D01*
X368863Y435693D02*
X370083Y436303D01*
X369473Y437432D02*
X368863Y437432D01*
X368815Y437434D01*
X368768Y437440D01*
X368721Y437449D01*
X368674Y437462D01*
X368630Y437478D01*
X368586Y437498D01*
X368544Y437522D01*
X368504Y437548D01*
X368467Y437578D01*
X368432Y437611D01*
X368399Y437646D01*
X368369Y437683D01*
X368343Y437723D01*
X368319Y437765D01*
X368299Y437809D01*
X368283Y437853D01*
X368270Y437900D01*
X368261Y437947D01*
X368255Y437994D01*
X368253Y438042D01*
X368255Y438090D01*
X368261Y438137D01*
X368270Y438184D01*
X368283Y438231D01*
X368299Y438275D01*
X368319Y438319D01*
X368343Y438361D01*
X368369Y438401D01*
X368399Y438438D01*
X368432Y438473D01*
X368467Y438506D01*
X368504Y438536D01*
X368544Y438562D01*
X368586Y438586D01*
X368630Y438606D01*
X368674Y438622D01*
X368721Y438635D01*
X368768Y438644D01*
X368815Y438650D01*
X368863Y438652D01*
X368863Y438653D02*
X369473Y438653D01*
X369473Y438652D02*
X369521Y438650D01*
X369568Y438644D01*
X369615Y438635D01*
X369662Y438622D01*
X369706Y438606D01*
X369750Y438586D01*
X369792Y438562D01*
X369832Y438536D01*
X369869Y438506D01*
X369904Y438473D01*
X369937Y438438D01*
X369967Y438401D01*
X369993Y438361D01*
X370017Y438319D01*
X370037Y438275D01*
X370053Y438231D01*
X370066Y438184D01*
X370075Y438137D01*
X370081Y438090D01*
X370083Y438042D01*
X370081Y437994D01*
X370075Y437947D01*
X370066Y437900D01*
X370053Y437853D01*
X370037Y437809D01*
X370017Y437765D01*
X369993Y437723D01*
X369967Y437683D01*
X369937Y437646D01*
X369904Y437611D01*
X369869Y437578D01*
X369832Y437548D01*
X369792Y437522D01*
X369750Y437498D01*
X369706Y437478D01*
X369662Y437462D01*
X369615Y437449D01*
X369568Y437440D01*
X369521Y437434D01*
X369473Y437432D01*
X369625Y439862D02*
X368252Y439862D01*
X369625Y439862D02*
X369665Y439864D01*
X369705Y439869D01*
X369744Y439878D01*
X369782Y439890D01*
X369819Y439905D01*
X369854Y439923D01*
X369888Y439945D01*
X369919Y439969D01*
X369949Y439996D01*
X369976Y440026D01*
X370000Y440057D01*
X370022Y440091D01*
X370040Y440126D01*
X370055Y440163D01*
X370067Y440201D01*
X370076Y440240D01*
X370081Y440280D01*
X370083Y440320D01*
X370083Y441083D01*
X368252Y441083D01*
X368252Y442062D02*
X368252Y442978D01*
X367337Y442367D02*
X369625Y442367D01*
X369665Y442369D01*
X369705Y442374D01*
X369744Y442383D01*
X369782Y442395D01*
X369819Y442410D01*
X369854Y442428D01*
X369888Y442450D01*
X369919Y442474D01*
X369949Y442501D01*
X369976Y442531D01*
X370000Y442562D01*
X370022Y442596D01*
X370040Y442631D01*
X370055Y442668D01*
X370067Y442706D01*
X370076Y442745D01*
X370081Y442785D01*
X370083Y442825D01*
X370083Y442978D01*
X370083Y444460D02*
X370083Y445223D01*
X370083Y444460D02*
X370081Y444418D01*
X370075Y444376D01*
X370066Y444335D01*
X370052Y444295D01*
X370035Y444256D01*
X370014Y444219D01*
X369990Y444184D01*
X369963Y444151D01*
X369934Y444122D01*
X369901Y444095D01*
X369866Y444071D01*
X369829Y444050D01*
X369790Y444033D01*
X369750Y444019D01*
X369709Y444010D01*
X369667Y444004D01*
X369625Y444002D01*
X368863Y444002D01*
X368815Y444004D01*
X368768Y444010D01*
X368721Y444019D01*
X368674Y444032D01*
X368630Y444048D01*
X368586Y444068D01*
X368544Y444092D01*
X368504Y444118D01*
X368467Y444148D01*
X368432Y444181D01*
X368399Y444216D01*
X368369Y444253D01*
X368343Y444293D01*
X368319Y444335D01*
X368299Y444379D01*
X368283Y444423D01*
X368270Y444470D01*
X368261Y444517D01*
X368255Y444564D01*
X368253Y444612D01*
X368255Y444660D01*
X368261Y444707D01*
X368270Y444754D01*
X368283Y444801D01*
X368299Y444845D01*
X368319Y444889D01*
X368343Y444931D01*
X368369Y444971D01*
X368399Y445008D01*
X368432Y445043D01*
X368467Y445076D01*
X368504Y445106D01*
X368544Y445132D01*
X368586Y445156D01*
X368630Y445176D01*
X368674Y445192D01*
X368721Y445205D01*
X368768Y445214D01*
X368815Y445220D01*
X368863Y445222D01*
X368863Y445223D02*
X369168Y445223D01*
X369168Y444002D01*
X372600Y437061D02*
X373820Y437061D01*
X372600Y437061D02*
X372546Y437063D01*
X372491Y437069D01*
X372438Y437078D01*
X372385Y437092D01*
X372333Y437109D01*
X372283Y437130D01*
X372234Y437154D01*
X372187Y437182D01*
X372143Y437213D01*
X372100Y437247D01*
X372060Y437284D01*
X372023Y437324D01*
X371989Y437367D01*
X371958Y437411D01*
X371930Y437458D01*
X371906Y437507D01*
X371885Y437557D01*
X371868Y437609D01*
X371854Y437662D01*
X371845Y437715D01*
X371839Y437770D01*
X371837Y437824D01*
X371839Y437878D01*
X371845Y437933D01*
X371854Y437986D01*
X371868Y438039D01*
X371885Y438091D01*
X371906Y438141D01*
X371930Y438190D01*
X371958Y438237D01*
X371989Y438281D01*
X372023Y438324D01*
X372060Y438364D01*
X372100Y438401D01*
X372143Y438435D01*
X372187Y438466D01*
X372234Y438494D01*
X372283Y438518D01*
X372333Y438539D01*
X372385Y438556D01*
X372438Y438570D01*
X372491Y438579D01*
X372546Y438585D01*
X372600Y438587D01*
X373820Y438587D01*
X373874Y438585D01*
X373929Y438579D01*
X373982Y438570D01*
X374035Y438556D01*
X374087Y438539D01*
X374137Y438518D01*
X374186Y438494D01*
X374233Y438466D01*
X374277Y438435D01*
X374320Y438401D01*
X374360Y438364D01*
X374397Y438324D01*
X374431Y438281D01*
X374462Y438237D01*
X374490Y438190D01*
X374514Y438141D01*
X374535Y438091D01*
X374552Y438039D01*
X374566Y437986D01*
X374575Y437933D01*
X374581Y437878D01*
X374583Y437824D01*
X374581Y437770D01*
X374575Y437715D01*
X374566Y437662D01*
X374552Y437609D01*
X374535Y437557D01*
X374514Y437507D01*
X374490Y437458D01*
X374462Y437411D01*
X374431Y437367D01*
X374397Y437324D01*
X374360Y437284D01*
X374320Y437247D01*
X374277Y437213D01*
X374233Y437182D01*
X374186Y437154D01*
X374137Y437130D01*
X374087Y437109D01*
X374035Y437092D01*
X373982Y437078D01*
X373929Y437069D01*
X373874Y437063D01*
X373820Y437061D01*
X374125Y439824D02*
X372752Y439824D01*
X374125Y439823D02*
X374165Y439825D01*
X374205Y439830D01*
X374244Y439839D01*
X374282Y439851D01*
X374319Y439866D01*
X374354Y439884D01*
X374388Y439906D01*
X374419Y439930D01*
X374449Y439957D01*
X374476Y439987D01*
X374500Y440018D01*
X374522Y440052D01*
X374540Y440087D01*
X374555Y440124D01*
X374567Y440162D01*
X374576Y440201D01*
X374581Y440241D01*
X374583Y440281D01*
X374583Y441044D01*
X372752Y441044D01*
X372752Y442024D02*
X372752Y442939D01*
X371837Y442329D02*
X374125Y442329D01*
X374125Y442328D02*
X374165Y442330D01*
X374205Y442335D01*
X374244Y442344D01*
X374282Y442356D01*
X374319Y442371D01*
X374354Y442389D01*
X374388Y442411D01*
X374419Y442435D01*
X374449Y442462D01*
X374476Y442492D01*
X374500Y442523D01*
X374522Y442557D01*
X374540Y442592D01*
X374555Y442629D01*
X374567Y442667D01*
X374576Y442706D01*
X374581Y442746D01*
X374583Y442786D01*
X374583Y442939D01*
X9163Y434778D02*
X6417Y434778D01*
X6417Y435540D01*
X6419Y435594D01*
X6425Y435649D01*
X6434Y435702D01*
X6448Y435755D01*
X6465Y435807D01*
X6486Y435857D01*
X6510Y435906D01*
X6538Y435953D01*
X6569Y435997D01*
X6603Y436040D01*
X6640Y436080D01*
X6680Y436117D01*
X6723Y436151D01*
X6767Y436182D01*
X6814Y436210D01*
X6863Y436234D01*
X6913Y436255D01*
X6965Y436272D01*
X7018Y436286D01*
X7071Y436295D01*
X7126Y436301D01*
X7180Y436303D01*
X7234Y436301D01*
X7289Y436295D01*
X7342Y436286D01*
X7395Y436272D01*
X7447Y436255D01*
X7497Y436234D01*
X7546Y436210D01*
X7593Y436182D01*
X7637Y436151D01*
X7680Y436117D01*
X7720Y436080D01*
X7757Y436040D01*
X7791Y435997D01*
X7822Y435953D01*
X7850Y435906D01*
X7874Y435857D01*
X7895Y435807D01*
X7912Y435755D01*
X7926Y435702D01*
X7935Y435649D01*
X7941Y435594D01*
X7943Y435540D01*
X7943Y434778D01*
X7943Y435693D02*
X9163Y436303D01*
X8553Y437432D02*
X7943Y437432D01*
X7895Y437434D01*
X7848Y437440D01*
X7801Y437449D01*
X7754Y437462D01*
X7710Y437478D01*
X7666Y437498D01*
X7624Y437522D01*
X7584Y437548D01*
X7547Y437578D01*
X7512Y437611D01*
X7479Y437646D01*
X7449Y437683D01*
X7423Y437723D01*
X7399Y437765D01*
X7379Y437809D01*
X7363Y437853D01*
X7350Y437900D01*
X7341Y437947D01*
X7335Y437994D01*
X7333Y438042D01*
X7335Y438090D01*
X7341Y438137D01*
X7350Y438184D01*
X7363Y438231D01*
X7379Y438275D01*
X7399Y438319D01*
X7423Y438361D01*
X7449Y438401D01*
X7479Y438438D01*
X7512Y438473D01*
X7547Y438506D01*
X7584Y438536D01*
X7624Y438562D01*
X7666Y438586D01*
X7710Y438606D01*
X7754Y438622D01*
X7801Y438635D01*
X7848Y438644D01*
X7895Y438650D01*
X7943Y438652D01*
X7943Y438653D02*
X8553Y438653D01*
X8553Y438652D02*
X8601Y438650D01*
X8648Y438644D01*
X8695Y438635D01*
X8742Y438622D01*
X8786Y438606D01*
X8830Y438586D01*
X8872Y438562D01*
X8912Y438536D01*
X8949Y438506D01*
X8984Y438473D01*
X9017Y438438D01*
X9047Y438401D01*
X9073Y438361D01*
X9097Y438319D01*
X9117Y438275D01*
X9133Y438231D01*
X9146Y438184D01*
X9155Y438137D01*
X9161Y438090D01*
X9163Y438042D01*
X9161Y437994D01*
X9155Y437947D01*
X9146Y437900D01*
X9133Y437853D01*
X9117Y437809D01*
X9097Y437765D01*
X9073Y437723D01*
X9047Y437683D01*
X9017Y437646D01*
X8984Y437611D01*
X8949Y437578D01*
X8912Y437548D01*
X8872Y437522D01*
X8830Y437498D01*
X8786Y437478D01*
X8742Y437462D01*
X8695Y437449D01*
X8648Y437440D01*
X8601Y437434D01*
X8553Y437432D01*
X8705Y439862D02*
X7332Y439862D01*
X8705Y439862D02*
X8745Y439864D01*
X8785Y439869D01*
X8824Y439878D01*
X8862Y439890D01*
X8899Y439905D01*
X8934Y439923D01*
X8968Y439945D01*
X8999Y439969D01*
X9029Y439996D01*
X9056Y440026D01*
X9080Y440057D01*
X9102Y440091D01*
X9120Y440126D01*
X9135Y440163D01*
X9147Y440201D01*
X9156Y440240D01*
X9161Y440280D01*
X9163Y440320D01*
X9163Y441083D01*
X7332Y441083D01*
X7332Y442062D02*
X7332Y442978D01*
X6417Y442367D02*
X8705Y442367D01*
X8745Y442369D01*
X8785Y442374D01*
X8824Y442383D01*
X8862Y442395D01*
X8899Y442410D01*
X8934Y442428D01*
X8968Y442450D01*
X8999Y442474D01*
X9029Y442501D01*
X9056Y442531D01*
X9080Y442562D01*
X9102Y442596D01*
X9120Y442631D01*
X9135Y442668D01*
X9147Y442706D01*
X9156Y442745D01*
X9161Y442785D01*
X9163Y442825D01*
X9163Y442978D01*
X9163Y444460D02*
X9163Y445223D01*
X9163Y444460D02*
X9161Y444418D01*
X9155Y444376D01*
X9146Y444335D01*
X9132Y444295D01*
X9115Y444256D01*
X9094Y444219D01*
X9070Y444184D01*
X9043Y444151D01*
X9014Y444122D01*
X8981Y444095D01*
X8946Y444071D01*
X8909Y444050D01*
X8870Y444033D01*
X8830Y444019D01*
X8789Y444010D01*
X8747Y444004D01*
X8705Y444002D01*
X7943Y444002D01*
X7895Y444004D01*
X7848Y444010D01*
X7801Y444019D01*
X7754Y444032D01*
X7710Y444048D01*
X7666Y444068D01*
X7624Y444092D01*
X7584Y444118D01*
X7547Y444148D01*
X7512Y444181D01*
X7479Y444216D01*
X7449Y444253D01*
X7423Y444293D01*
X7399Y444335D01*
X7379Y444379D01*
X7363Y444423D01*
X7350Y444470D01*
X7341Y444517D01*
X7335Y444564D01*
X7333Y444612D01*
X7335Y444660D01*
X7341Y444707D01*
X7350Y444754D01*
X7363Y444801D01*
X7379Y444845D01*
X7399Y444889D01*
X7423Y444931D01*
X7449Y444971D01*
X7479Y445008D01*
X7512Y445043D01*
X7547Y445076D01*
X7584Y445106D01*
X7624Y445132D01*
X7666Y445156D01*
X7710Y445176D01*
X7754Y445192D01*
X7801Y445205D01*
X7848Y445214D01*
X7895Y445220D01*
X7943Y445222D01*
X7943Y445223D02*
X8248Y445223D01*
X8248Y444002D01*
X11680Y437061D02*
X12900Y437061D01*
X11680Y437061D02*
X11626Y437063D01*
X11571Y437069D01*
X11518Y437078D01*
X11465Y437092D01*
X11413Y437109D01*
X11363Y437130D01*
X11314Y437154D01*
X11267Y437182D01*
X11223Y437213D01*
X11180Y437247D01*
X11140Y437284D01*
X11103Y437324D01*
X11069Y437367D01*
X11038Y437411D01*
X11010Y437458D01*
X10986Y437507D01*
X10965Y437557D01*
X10948Y437609D01*
X10934Y437662D01*
X10925Y437715D01*
X10919Y437770D01*
X10917Y437824D01*
X10919Y437878D01*
X10925Y437933D01*
X10934Y437986D01*
X10948Y438039D01*
X10965Y438091D01*
X10986Y438141D01*
X11010Y438190D01*
X11038Y438237D01*
X11069Y438281D01*
X11103Y438324D01*
X11140Y438364D01*
X11180Y438401D01*
X11223Y438435D01*
X11267Y438466D01*
X11314Y438494D01*
X11363Y438518D01*
X11413Y438539D01*
X11465Y438556D01*
X11518Y438570D01*
X11571Y438579D01*
X11626Y438585D01*
X11680Y438587D01*
X12900Y438587D01*
X12954Y438585D01*
X13009Y438579D01*
X13062Y438570D01*
X13115Y438556D01*
X13167Y438539D01*
X13217Y438518D01*
X13266Y438494D01*
X13313Y438466D01*
X13357Y438435D01*
X13400Y438401D01*
X13440Y438364D01*
X13477Y438324D01*
X13511Y438281D01*
X13542Y438237D01*
X13570Y438190D01*
X13594Y438141D01*
X13615Y438091D01*
X13632Y438039D01*
X13646Y437986D01*
X13655Y437933D01*
X13661Y437878D01*
X13663Y437824D01*
X13661Y437770D01*
X13655Y437715D01*
X13646Y437662D01*
X13632Y437609D01*
X13615Y437557D01*
X13594Y437507D01*
X13570Y437458D01*
X13542Y437411D01*
X13511Y437367D01*
X13477Y437324D01*
X13440Y437284D01*
X13400Y437247D01*
X13357Y437213D01*
X13313Y437182D01*
X13266Y437154D01*
X13217Y437130D01*
X13167Y437109D01*
X13115Y437092D01*
X13062Y437078D01*
X13009Y437069D01*
X12954Y437063D01*
X12900Y437061D01*
X13205Y439824D02*
X11832Y439824D01*
X13205Y439823D02*
X13245Y439825D01*
X13285Y439830D01*
X13324Y439839D01*
X13362Y439851D01*
X13399Y439866D01*
X13434Y439884D01*
X13468Y439906D01*
X13499Y439930D01*
X13529Y439957D01*
X13556Y439987D01*
X13580Y440018D01*
X13602Y440052D01*
X13620Y440087D01*
X13635Y440124D01*
X13647Y440162D01*
X13656Y440201D01*
X13661Y440241D01*
X13663Y440281D01*
X13663Y441044D01*
X11832Y441044D01*
X11832Y442024D02*
X11832Y442939D01*
X10917Y442329D02*
X13205Y442329D01*
X13205Y442328D02*
X13245Y442330D01*
X13285Y442335D01*
X13324Y442344D01*
X13362Y442356D01*
X13399Y442371D01*
X13434Y442389D01*
X13468Y442411D01*
X13499Y442435D01*
X13529Y442462D01*
X13556Y442492D01*
X13580Y442523D01*
X13602Y442557D01*
X13620Y442592D01*
X13635Y442629D01*
X13647Y442667D01*
X13656Y442706D01*
X13661Y442746D01*
X13663Y442786D01*
X13663Y442939D01*
D14*
X3030Y457331D02*
X3451Y457264D01*
X3870Y457187D01*
X4287Y457099D01*
X4701Y457001D01*
X5113Y456894D01*
X5523Y456776D01*
X5929Y456648D01*
X6332Y456511D01*
X6732Y456364D01*
X7128Y456207D01*
X7520Y456040D01*
X7908Y455864D01*
X8292Y455679D01*
X8671Y455484D01*
X9045Y455280D01*
X9414Y455067D01*
X9777Y454846D01*
X10136Y454615D01*
X10488Y454376D01*
X10835Y454128D01*
X11175Y453872D01*
X11509Y453608D01*
X11837Y453335D01*
X12157Y453055D01*
X12471Y452767D01*
X12778Y452471D01*
X13078Y452168D01*
X13370Y451858D01*
X13654Y451541D01*
X13931Y451217D01*
X14199Y450886D01*
X14460Y450549D01*
X14712Y450206D01*
X14956Y449857D01*
X15191Y449501D01*
X15417Y449141D01*
X15635Y448774D01*
X15844Y448403D01*
X16043Y448027D01*
X16234Y447645D01*
X16415Y447260D01*
X16586Y446870D01*
X16748Y446476D01*
X16900Y446078D01*
X17043Y445677D01*
X17176Y445272D01*
X17299Y444864D01*
X17412Y444453D01*
X17515Y444040D01*
X17608Y443624D01*
X17690Y443206D01*
X17763Y442787D01*
X17825Y442365D01*
X17877Y441942D01*
X17919Y441518D01*
X17950Y441093D01*
X17971Y440668D01*
X17982Y440242D01*
X17982Y439816D01*
X17972Y439390D01*
X17951Y438965D01*
X17920Y438540D01*
X17879Y438116D01*
X17828Y437693D01*
X17766Y437271D01*
X17694Y436852D01*
X17612Y436434D01*
X17519Y436018D01*
X17417Y435604D01*
X17304Y435193D01*
X17182Y434785D01*
X17050Y434380D01*
X16907Y433979D01*
X16756Y433581D01*
X16594Y433187D01*
X16423Y432797D01*
X16242Y432411D01*
X16052Y432029D01*
X15853Y431653D01*
X15645Y431281D01*
X15428Y430915D01*
X15202Y430554D01*
X14967Y430198D01*
X14724Y429848D01*
X14472Y429505D01*
X14212Y429167D01*
X13944Y428837D01*
X13667Y428512D01*
X13383Y428195D01*
X13092Y427884D01*
X12793Y427581D01*
X12486Y427285D01*
X12173Y426997D01*
X11852Y426716D01*
X11525Y426443D01*
X11191Y426178D01*
X10851Y425922D01*
X10505Y425674D01*
X10153Y425434D01*
X9795Y425203D01*
X9431Y424981D01*
X9062Y424768D01*
X8689Y424563D01*
X8310Y424368D01*
X7927Y424182D01*
X7539Y424006D01*
X7147Y423839D01*
X6751Y423681D01*
X6352Y423534D01*
X5948Y423396D01*
X5542Y423268D01*
X5133Y423150D01*
X4721Y423041D01*
X4306Y422943D01*
X3890Y422855D01*
X3471Y422778D01*
X3050Y422710D01*
X377980Y422700D02*
X377559Y422766D01*
X377139Y422842D01*
X376721Y422928D01*
X376306Y423025D01*
X375893Y423131D01*
X375482Y423248D01*
X375075Y423374D01*
X374671Y423511D01*
X374270Y423657D01*
X373873Y423813D01*
X373480Y423979D01*
X373091Y424154D01*
X372707Y424338D01*
X372327Y424532D01*
X371952Y424735D01*
X371582Y424948D01*
X371217Y425169D01*
X370858Y425399D01*
X370505Y425637D01*
X370157Y425885D01*
X369816Y426140D01*
X369481Y426404D01*
X369152Y426676D01*
X368830Y426956D01*
X368515Y427244D01*
X368207Y427539D01*
X367907Y427842D01*
X367614Y428152D01*
X367329Y428468D01*
X367051Y428792D01*
X366781Y429123D01*
X366520Y429460D01*
X366267Y429803D01*
X366022Y430152D01*
X365786Y430508D01*
X365559Y430869D01*
X365340Y431235D01*
X365131Y431606D01*
X364930Y431983D01*
X364739Y432364D01*
X364558Y432750D01*
X364385Y433140D01*
X364223Y433534D01*
X364069Y433933D01*
X363926Y434334D01*
X363793Y434739D01*
X363669Y435148D01*
X363556Y435559D01*
X363452Y435973D01*
X363359Y436389D01*
X363276Y436807D01*
X363203Y437227D01*
X363140Y437649D01*
X363087Y438072D01*
X363045Y438497D01*
X363014Y438922D01*
X362992Y439348D01*
X362982Y439775D01*
X362981Y440201D01*
X362991Y440627D01*
X363011Y441053D01*
X363042Y441479D01*
X363083Y441903D01*
X363134Y442327D01*
X363196Y442749D01*
X363268Y443169D01*
X363350Y443588D01*
X363443Y444004D01*
X363545Y444418D01*
X363658Y444830D01*
X363781Y445238D01*
X363913Y445643D01*
X364055Y446046D01*
X364208Y446444D01*
X364369Y446839D01*
X364541Y447229D01*
X364722Y447615D01*
X364912Y447997D01*
X365111Y448374D01*
X365320Y448746D01*
X365538Y449113D01*
X365764Y449474D01*
X365999Y449830D01*
X366243Y450180D01*
X366496Y450524D01*
X366756Y450861D01*
X367025Y451193D01*
X367302Y451517D01*
X367587Y451835D01*
X367879Y452145D01*
X368179Y452449D01*
X368486Y452745D01*
X368800Y453033D01*
X369121Y453314D01*
X369449Y453586D01*
X369784Y453851D01*
X370124Y454108D01*
X370471Y454356D01*
X370824Y454595D01*
X371183Y454826D01*
X371547Y455048D01*
X371917Y455261D01*
X372291Y455465D01*
X372671Y455660D01*
X373055Y455845D01*
X373443Y456021D01*
X373836Y456188D01*
X374233Y456345D01*
X374633Y456492D01*
X375037Y456629D01*
X375444Y456757D01*
X375854Y456874D01*
X376267Y456981D01*
X376682Y457079D01*
X377099Y457166D01*
X377519Y457243D01*
X377940Y457310D01*
D15*
X500Y40000D02*
X86500Y40000D01*
X86947Y39945D01*
X87387Y39851D01*
X87818Y39718D01*
X88235Y39549D01*
X88636Y39344D01*
X89018Y39105D01*
X89377Y38834D01*
X89712Y38532D01*
X90019Y38203D01*
X90296Y37847D01*
X90540Y37470D01*
X90751Y37072D01*
X90927Y36657D01*
X91066Y36228D01*
X91167Y35790D01*
X91229Y35343D01*
X91250Y35000D01*
X91250Y0D01*
X210750Y0D01*
X210750Y29000D01*
X210773Y29523D01*
X210841Y30042D01*
X210954Y30553D01*
X211112Y31052D01*
X211312Y31536D01*
X211554Y32000D01*
X211835Y32441D01*
X212154Y32857D01*
X212507Y33243D01*
X212893Y33596D01*
X213309Y33915D01*
X213750Y34196D01*
X214214Y34438D01*
X214698Y34638D01*
X215197Y34796D01*
X215708Y34909D01*
X216227Y34977D01*
X216750Y35000D01*
X217273Y34977D01*
X217792Y34909D01*
X218303Y34796D01*
X218802Y34638D01*
X219286Y34438D01*
X219750Y34196D01*
X220191Y33915D01*
X220607Y33596D01*
X220993Y33243D01*
X221346Y32857D01*
X221665Y32441D01*
X221946Y32000D01*
X222188Y31536D01*
X222388Y31052D01*
X222546Y30553D01*
X222659Y30042D01*
X222727Y29523D01*
X222750Y29000D01*
X222750Y0D01*
X289750Y0D01*
X289750Y35000D01*
X289778Y35445D01*
X289844Y35885D01*
X289948Y36318D01*
X290090Y36741D01*
X290268Y37149D01*
X290481Y37540D01*
X290727Y37911D01*
X291005Y38260D01*
X291312Y38583D01*
X291646Y38878D01*
X292004Y39142D01*
X292384Y39375D01*
X292783Y39573D01*
X293198Y39736D01*
X293625Y39862D01*
X294062Y39950D01*
X294500Y40000D01*
X380500Y40000D01*
X380500Y650000D01*
X500Y650000D01*
X500Y40000D01*
M02*
