M48
;GenerationSoftware,Autodesk,EAGLE,9.6.2*%
;CreationDate,2022-10-17T01:33:39Z*%
FMAT,2
ICI,OFF
METRIC,TZ,000.000
T3C0.305
T2C1.016
T1C3.302
%
G90
M71
T1
X3375Y55880
X28375Y55880
T2
X36195Y62230
X10335Y54460
X13105Y54460
X15875Y54460
X18645Y54460
X21415Y54460
X11725Y57300
X14495Y57300
X17255Y57300
X20025Y57300
X33655Y62230
T3
X3683Y7366
X17653Y11176
X20193Y11176
X18923Y12446
X21463Y12446
X25273Y18796
X27813Y18796
X26543Y20066
X29083Y20066
X25273Y28956
X27813Y28956
X26543Y30226
X29083Y30226
X25273Y36576
X27813Y36576
X26543Y37846
X29083Y37846
X3683Y35306
X3683Y37846
X2413Y36576
X2413Y39116
X25273Y49276
X27813Y49276
X26543Y50546
X29083Y50546
X10950Y8890
X16319Y10351
X35179Y26670
X29210Y26670
X13970Y24130
X13970Y41275
X8890Y14478
X8890Y19431
X9525Y15875
X14478Y15875
X3683Y9906
X13970Y14732
X16510Y13970
X9779Y13208
X28890Y13970
X14859Y35052
X12065Y48006
X28829Y48006
X12065Y50800
X27940Y44323
X13335Y47371
X33655Y49276
X20320Y50800
X20320Y47371
X11430Y16510
X12954Y16510
X17780Y49784
X15240Y49784
X10414Y48768
X15240Y24130
X16510Y25400
X11430Y13970
X13970Y19304
X29210Y24130
X19431Y3810
X11176Y46101
X20320Y46101
X34290Y6350
X13970Y3810
X21590Y24130
X37050Y46100
X37050Y41900
X35750Y44000
X1050Y41900
X1050Y46100
X2350Y44000
X10160Y15113
X16383Y3556
X11303Y3556
X12573Y3556
X12573Y4826
X11303Y4826
X21463Y4826
X24003Y3556
X25273Y3556
X24003Y4826
X2413Y8636
X2413Y11176
X25400Y45720
M30