G04 EAGLE Gerber RS-274X export*
G75*
%MOMM*%
%FSLAX34Y34*%
%LPD*%
%INSoldermask Top*%
%IPPOS*%
%AMOC8*
5,1,8,0,0,1.08239X$1,22.5*%
G01*
%ADD10R,1.003200X1.103200*%
%ADD11R,0.553200X1.653200*%
%ADD12C,0.812800*%
%ADD13R,1.503200X1.503200*%
%ADD14R,0.753200X1.403200*%
%ADD15R,2.082800X2.082800*%
%ADD16C,2.082800*%
%ADD17C,5.283200*%
%ADD18R,1.727200X1.727200*%
%ADD19R,3.253200X2.253200*%
%ADD20R,0.803200X1.403200*%
%ADD21R,1.203200X1.303200*%
%ADD22R,1.303200X1.203200*%
%ADD23R,0.953200X0.903200*%
%ADD24R,1.473200X0.863600*%
%ADD25C,0.965200*%
%ADD26C,0.505344*%
%ADD27R,1.103200X1.003200*%
%ADD28C,1.203200*%
%ADD29C,0.152400*%

G36*
X4431Y412531D02*
X4431Y412531D01*
X4441Y412535D01*
X4467Y412536D01*
X8301Y413370D01*
X8309Y413375D01*
X8335Y413380D01*
X12011Y414752D01*
X12019Y414757D01*
X12043Y414766D01*
X15487Y416647D01*
X15494Y416654D01*
X15517Y416666D01*
X18658Y419017D01*
X18664Y419025D01*
X18685Y419041D01*
X21459Y421815D01*
X21464Y421824D01*
X21483Y421842D01*
X23834Y424983D01*
X23837Y424992D01*
X23853Y425013D01*
X25734Y428457D01*
X25736Y428466D01*
X25748Y428489D01*
X27120Y432165D01*
X27120Y432175D01*
X27130Y432199D01*
X27964Y436033D01*
X27963Y436043D01*
X27969Y436069D01*
X28249Y439982D01*
X28247Y439992D01*
X28249Y440018D01*
X27969Y443931D01*
X27967Y443936D01*
X27968Y443939D01*
X27965Y443945D01*
X27964Y443967D01*
X27130Y447801D01*
X27125Y447809D01*
X27120Y447835D01*
X25748Y451511D01*
X25743Y451519D01*
X25734Y451543D01*
X23853Y454987D01*
X23846Y454994D01*
X23834Y455017D01*
X21483Y458158D01*
X21475Y458164D01*
X21459Y458185D01*
X18685Y460959D01*
X18676Y460964D01*
X18658Y460983D01*
X15517Y463334D01*
X15508Y463337D01*
X15487Y463353D01*
X12043Y465234D01*
X12034Y465236D01*
X12011Y465248D01*
X8335Y466620D01*
X8325Y466620D01*
X8301Y466630D01*
X4467Y467464D01*
X4457Y467463D01*
X4431Y467469D01*
X518Y467749D01*
X492Y467743D01*
X467Y467747D01*
X425Y467729D01*
X381Y467719D01*
X363Y467701D01*
X339Y467690D01*
X314Y467652D01*
X282Y467621D01*
X276Y467595D01*
X262Y467574D01*
X251Y467500D01*
X251Y457500D01*
X253Y457493D01*
X251Y457486D01*
X272Y457427D01*
X290Y457366D01*
X295Y457361D01*
X298Y457354D01*
X348Y457316D01*
X395Y457274D01*
X402Y457273D01*
X408Y457268D01*
X480Y457252D01*
X3198Y457038D01*
X5831Y456406D01*
X8331Y455370D01*
X10639Y453956D01*
X12698Y452198D01*
X14456Y450139D01*
X15870Y447831D01*
X16906Y445331D01*
X17538Y442698D01*
X17750Y440000D01*
X17538Y437302D01*
X16906Y434669D01*
X15870Y432169D01*
X14456Y429861D01*
X12698Y427802D01*
X10639Y426044D01*
X8331Y424630D01*
X5831Y423594D01*
X3198Y422962D01*
X480Y422748D01*
X474Y422746D01*
X467Y422747D01*
X409Y422721D01*
X350Y422699D01*
X345Y422693D01*
X339Y422690D01*
X304Y422637D01*
X266Y422587D01*
X266Y422580D01*
X262Y422574D01*
X251Y422500D01*
X251Y412500D01*
X258Y412475D01*
X256Y412449D01*
X277Y412409D01*
X290Y412366D01*
X310Y412349D01*
X322Y412326D01*
X361Y412304D01*
X395Y412274D01*
X421Y412270D01*
X444Y412257D01*
X518Y412251D01*
X4431Y412531D01*
G37*
G36*
X380508Y412257D02*
X380508Y412257D01*
X380533Y412253D01*
X380575Y412271D01*
X380619Y412281D01*
X380637Y412299D01*
X380661Y412310D01*
X380686Y412348D01*
X380718Y412379D01*
X380724Y412405D01*
X380738Y412427D01*
X380749Y412500D01*
X380749Y422500D01*
X380747Y422507D01*
X380749Y422514D01*
X380728Y422573D01*
X380710Y422634D01*
X380705Y422639D01*
X380702Y422646D01*
X380652Y422685D01*
X380605Y422726D01*
X380598Y422727D01*
X380592Y422732D01*
X380520Y422748D01*
X377802Y422962D01*
X375169Y423594D01*
X372669Y424630D01*
X370361Y426044D01*
X368302Y427802D01*
X366544Y429861D01*
X365130Y432169D01*
X364094Y434669D01*
X363462Y437302D01*
X363250Y440000D01*
X363462Y442698D01*
X364094Y445331D01*
X365130Y447831D01*
X366544Y450139D01*
X368302Y452198D01*
X370361Y453956D01*
X372669Y455370D01*
X375169Y456406D01*
X377802Y457038D01*
X380520Y457252D01*
X380526Y457254D01*
X380533Y457253D01*
X380591Y457279D01*
X380650Y457301D01*
X380655Y457307D01*
X380661Y457310D01*
X380696Y457363D01*
X380734Y457413D01*
X380734Y457421D01*
X380738Y457427D01*
X380749Y457500D01*
X380749Y467500D01*
X380742Y467525D01*
X380744Y467551D01*
X380723Y467591D01*
X380710Y467634D01*
X380690Y467651D01*
X380678Y467674D01*
X380639Y467696D01*
X380605Y467726D01*
X380579Y467730D01*
X380556Y467743D01*
X380482Y467749D01*
X376569Y467469D01*
X376559Y467465D01*
X376533Y467464D01*
X372699Y466630D01*
X372691Y466625D01*
X372665Y466620D01*
X368989Y465248D01*
X368981Y465243D01*
X368957Y465234D01*
X365513Y463353D01*
X365506Y463346D01*
X365483Y463334D01*
X362342Y460983D01*
X362336Y460975D01*
X362315Y460959D01*
X359541Y458185D01*
X359536Y458176D01*
X359517Y458158D01*
X357166Y455017D01*
X357163Y455008D01*
X357147Y454987D01*
X355266Y451543D01*
X355264Y451534D01*
X355252Y451511D01*
X353880Y447835D01*
X353880Y447825D01*
X353870Y447801D01*
X353036Y443967D01*
X353037Y443957D01*
X353031Y443931D01*
X352751Y440018D01*
X352753Y440008D01*
X352751Y439982D01*
X353031Y436069D01*
X353035Y436059D01*
X353036Y436033D01*
X353870Y432199D01*
X353875Y432191D01*
X353880Y432165D01*
X355252Y428489D01*
X355257Y428481D01*
X355266Y428457D01*
X357147Y425013D01*
X357154Y425006D01*
X357166Y424983D01*
X359517Y421842D01*
X359525Y421836D01*
X359541Y421815D01*
X362315Y419041D01*
X362324Y419036D01*
X362342Y419017D01*
X365483Y416666D01*
X365492Y416663D01*
X365513Y416647D01*
X368957Y414766D01*
X368966Y414764D01*
X368989Y414752D01*
X372665Y413380D01*
X372675Y413380D01*
X372699Y413370D01*
X376533Y412536D01*
X376543Y412537D01*
X376569Y412531D01*
X380482Y412251D01*
X380508Y412257D01*
G37*
G36*
X110044Y126665D02*
X110044Y126665D01*
X110051Y126672D01*
X110056Y126669D01*
X110559Y126870D01*
X110564Y126878D01*
X110570Y126876D01*
X111004Y127201D01*
X111007Y127210D01*
X111013Y127210D01*
X111348Y127635D01*
X111348Y127645D01*
X111355Y127646D01*
X111568Y128144D01*
X111566Y128154D01*
X111572Y128157D01*
X111649Y128693D01*
X111646Y128698D01*
X111649Y128700D01*
X111599Y136450D01*
X111563Y136498D01*
X111556Y136492D01*
X111550Y136499D01*
X107400Y136499D01*
X107353Y136463D01*
X107358Y136456D01*
X107351Y136450D01*
X107351Y128700D01*
X107354Y128696D01*
X107351Y128693D01*
X107428Y128157D01*
X107435Y128150D01*
X107432Y128144D01*
X107645Y127646D01*
X107653Y127642D01*
X107652Y127635D01*
X107987Y127210D01*
X107996Y127207D01*
X107996Y127201D01*
X108430Y126876D01*
X108439Y126876D01*
X108441Y126870D01*
X108944Y126669D01*
X108953Y126671D01*
X108956Y126665D01*
X109494Y126601D01*
X109502Y126605D01*
X109506Y126601D01*
X110044Y126665D01*
G37*
G36*
X114502Y126606D02*
X114502Y126606D01*
X114506Y126601D01*
X115037Y126671D01*
X115044Y126678D01*
X115049Y126674D01*
X115544Y126879D01*
X115549Y126887D01*
X115555Y126886D01*
X115980Y127211D01*
X115982Y127221D01*
X115989Y127220D01*
X116314Y127645D01*
X116314Y127655D01*
X116321Y127656D01*
X116526Y128151D01*
X116523Y128160D01*
X116525Y128160D01*
X116529Y128163D01*
X116599Y128694D01*
X116596Y128698D01*
X116599Y128700D01*
X116599Y136450D01*
X116563Y136497D01*
X116556Y136492D01*
X116550Y136499D01*
X112450Y136499D01*
X112403Y136463D01*
X112408Y136456D01*
X112401Y136450D01*
X112351Y128700D01*
X112354Y128696D01*
X112351Y128693D01*
X112428Y128157D01*
X112435Y128150D01*
X112432Y128144D01*
X112645Y127646D01*
X112653Y127642D01*
X112652Y127635D01*
X112987Y127210D01*
X112996Y127207D01*
X112996Y127201D01*
X113430Y126876D01*
X113439Y126876D01*
X113441Y126870D01*
X113944Y126669D01*
X113953Y126671D01*
X113956Y126665D01*
X114494Y126601D01*
X114502Y126606D01*
G37*
G36*
X121597Y92137D02*
X121597Y92137D01*
X121592Y92144D01*
X121599Y92150D01*
X121599Y99950D01*
X121596Y99954D01*
X121599Y99957D01*
X121523Y100480D01*
X121517Y100487D01*
X121520Y100493D01*
X121311Y100979D01*
X121303Y100983D01*
X121305Y100990D01*
X120978Y101405D01*
X120969Y101407D01*
X120969Y101414D01*
X120545Y101731D01*
X120536Y101731D01*
X120534Y101737D01*
X120043Y101933D01*
X120034Y101931D01*
X120031Y101936D01*
X119506Y101999D01*
X119498Y101994D01*
X119494Y101999D01*
X118963Y101929D01*
X118956Y101922D01*
X118951Y101926D01*
X118456Y101721D01*
X118451Y101713D01*
X118445Y101714D01*
X118020Y101389D01*
X118018Y101380D01*
X118011Y101380D01*
X117686Y100955D01*
X117686Y100946D01*
X117679Y100944D01*
X117474Y100449D01*
X117477Y100441D01*
X117472Y100437D01*
X117471Y100437D01*
X117401Y99906D01*
X117404Y99902D01*
X117401Y99900D01*
X117401Y92150D01*
X117437Y92103D01*
X117444Y92108D01*
X117450Y92101D01*
X121550Y92101D01*
X121597Y92137D01*
G37*
G36*
X116597Y92137D02*
X116597Y92137D01*
X116592Y92144D01*
X116599Y92150D01*
X116599Y99900D01*
X116596Y99904D01*
X116599Y99906D01*
X116529Y100437D01*
X116522Y100444D01*
X116526Y100449D01*
X116321Y100944D01*
X116313Y100949D01*
X116314Y100955D01*
X115989Y101380D01*
X115980Y101382D01*
X115980Y101389D01*
X115555Y101714D01*
X115546Y101714D01*
X115544Y101721D01*
X115049Y101926D01*
X115040Y101923D01*
X115037Y101929D01*
X114506Y101999D01*
X114498Y101994D01*
X114494Y101999D01*
X113963Y101929D01*
X113956Y101922D01*
X113951Y101926D01*
X113456Y101721D01*
X113451Y101713D01*
X113445Y101714D01*
X113020Y101389D01*
X113018Y101380D01*
X113011Y101380D01*
X112686Y100955D01*
X112686Y100946D01*
X112679Y100944D01*
X112474Y100449D01*
X112477Y100441D01*
X112472Y100437D01*
X112471Y100437D01*
X112401Y99906D01*
X112404Y99902D01*
X112401Y99900D01*
X112401Y92150D01*
X112437Y92103D01*
X112444Y92108D01*
X112450Y92101D01*
X116550Y92101D01*
X116597Y92137D01*
G37*
G36*
X126597Y92137D02*
X126597Y92137D01*
X126592Y92144D01*
X126599Y92150D01*
X126599Y99900D01*
X126596Y99904D01*
X126599Y99906D01*
X126529Y100437D01*
X126522Y100444D01*
X126526Y100449D01*
X126321Y100944D01*
X126313Y100949D01*
X126314Y100955D01*
X125989Y101380D01*
X125980Y101382D01*
X125980Y101389D01*
X125555Y101714D01*
X125546Y101714D01*
X125544Y101721D01*
X125049Y101926D01*
X125040Y101923D01*
X125037Y101929D01*
X124506Y101999D01*
X124498Y101994D01*
X124494Y101999D01*
X123963Y101929D01*
X123956Y101922D01*
X123951Y101926D01*
X123456Y101721D01*
X123451Y101713D01*
X123445Y101714D01*
X123020Y101389D01*
X123018Y101380D01*
X123011Y101380D01*
X122686Y100955D01*
X122686Y100946D01*
X122679Y100944D01*
X122474Y100449D01*
X122477Y100441D01*
X122472Y100437D01*
X122471Y100437D01*
X122401Y99906D01*
X122404Y99902D01*
X122401Y99900D01*
X122401Y92150D01*
X122437Y92103D01*
X122444Y92108D01*
X122450Y92101D01*
X126550Y92101D01*
X126597Y92137D01*
G37*
G36*
X131597Y92137D02*
X131597Y92137D01*
X131592Y92144D01*
X131599Y92150D01*
X131599Y99900D01*
X131596Y99904D01*
X131599Y99906D01*
X131529Y100437D01*
X131522Y100444D01*
X131526Y100449D01*
X131321Y100944D01*
X131313Y100949D01*
X131314Y100955D01*
X130989Y101380D01*
X130980Y101382D01*
X130980Y101389D01*
X130555Y101714D01*
X130546Y101714D01*
X130544Y101721D01*
X130049Y101926D01*
X130040Y101923D01*
X130037Y101929D01*
X129506Y101999D01*
X129498Y101994D01*
X129494Y101999D01*
X128963Y101929D01*
X128956Y101922D01*
X128951Y101926D01*
X128456Y101721D01*
X128451Y101713D01*
X128445Y101714D01*
X128020Y101389D01*
X128018Y101380D01*
X128011Y101380D01*
X127686Y100955D01*
X127686Y100946D01*
X127679Y100944D01*
X127474Y100449D01*
X127477Y100441D01*
X127472Y100437D01*
X127471Y100437D01*
X127401Y99906D01*
X127404Y99902D01*
X127401Y99900D01*
X127401Y92150D01*
X127437Y92103D01*
X127444Y92108D01*
X127450Y92101D01*
X131550Y92101D01*
X131597Y92137D01*
G37*
G36*
X136597Y92137D02*
X136597Y92137D01*
X136592Y92144D01*
X136599Y92150D01*
X136599Y99900D01*
X136596Y99904D01*
X136599Y99906D01*
X136529Y100437D01*
X136522Y100444D01*
X136526Y100449D01*
X136321Y100944D01*
X136313Y100949D01*
X136314Y100955D01*
X135989Y101380D01*
X135980Y101382D01*
X135980Y101389D01*
X135555Y101714D01*
X135546Y101714D01*
X135544Y101721D01*
X135049Y101926D01*
X135040Y101923D01*
X135037Y101929D01*
X134506Y101999D01*
X134498Y101994D01*
X134494Y101999D01*
X133963Y101929D01*
X133956Y101922D01*
X133951Y101926D01*
X133456Y101721D01*
X133451Y101713D01*
X133445Y101714D01*
X133020Y101389D01*
X133018Y101380D01*
X133011Y101380D01*
X132686Y100955D01*
X132686Y100946D01*
X132679Y100944D01*
X132474Y100449D01*
X132477Y100441D01*
X132472Y100437D01*
X132471Y100437D01*
X132401Y99906D01*
X132404Y99902D01*
X132401Y99900D01*
X132401Y92150D01*
X132437Y92103D01*
X132444Y92108D01*
X132450Y92101D01*
X136550Y92101D01*
X136597Y92137D01*
G37*
G36*
X146597Y92137D02*
X146597Y92137D01*
X146592Y92144D01*
X146599Y92150D01*
X146599Y99900D01*
X146596Y99904D01*
X146599Y99906D01*
X146529Y100437D01*
X146522Y100444D01*
X146526Y100449D01*
X146321Y100944D01*
X146313Y100949D01*
X146314Y100955D01*
X145989Y101380D01*
X145980Y101382D01*
X145980Y101389D01*
X145555Y101714D01*
X145546Y101714D01*
X145544Y101721D01*
X145049Y101926D01*
X145040Y101923D01*
X145037Y101929D01*
X144506Y101999D01*
X144498Y101994D01*
X144494Y101999D01*
X143963Y101929D01*
X143956Y101922D01*
X143951Y101926D01*
X143456Y101721D01*
X143451Y101713D01*
X143445Y101714D01*
X143020Y101389D01*
X143018Y101380D01*
X143011Y101380D01*
X142686Y100955D01*
X142686Y100946D01*
X142679Y100944D01*
X142474Y100449D01*
X142477Y100441D01*
X142472Y100437D01*
X142471Y100437D01*
X142401Y99906D01*
X142404Y99902D01*
X142401Y99900D01*
X142401Y92150D01*
X142437Y92103D01*
X142444Y92108D01*
X142450Y92101D01*
X146550Y92101D01*
X146597Y92137D01*
G37*
G36*
X141597Y92137D02*
X141597Y92137D01*
X141592Y92144D01*
X141599Y92150D01*
X141599Y99900D01*
X141596Y99904D01*
X141599Y99906D01*
X141529Y100437D01*
X141522Y100444D01*
X141526Y100449D01*
X141321Y100944D01*
X141313Y100949D01*
X141314Y100955D01*
X140989Y101380D01*
X140980Y101382D01*
X140980Y101389D01*
X140555Y101714D01*
X140546Y101714D01*
X140544Y101721D01*
X140049Y101926D01*
X140040Y101923D01*
X140037Y101929D01*
X139506Y101999D01*
X139498Y101994D01*
X139494Y101999D01*
X138963Y101929D01*
X138956Y101922D01*
X138951Y101926D01*
X138456Y101721D01*
X138451Y101713D01*
X138445Y101714D01*
X138020Y101389D01*
X138018Y101380D01*
X138011Y101380D01*
X137686Y100955D01*
X137686Y100946D01*
X137679Y100944D01*
X137474Y100449D01*
X137477Y100441D01*
X137472Y100437D01*
X137471Y100437D01*
X137401Y99906D01*
X137404Y99902D01*
X137401Y99900D01*
X137401Y92150D01*
X137437Y92103D01*
X137444Y92108D01*
X137450Y92101D01*
X141550Y92101D01*
X141597Y92137D01*
G37*
G36*
X107604Y104704D02*
X107604Y104704D01*
X107606Y104701D01*
X108137Y104771D01*
X108144Y104778D01*
X108149Y104774D01*
X108644Y104979D01*
X108649Y104987D01*
X108655Y104986D01*
X109080Y105311D01*
X109082Y105321D01*
X109089Y105320D01*
X109414Y105745D01*
X109414Y105755D01*
X109421Y105756D01*
X109626Y106251D01*
X109623Y106259D01*
X109625Y106261D01*
X109629Y106263D01*
X109699Y106794D01*
X109694Y106802D01*
X109699Y106806D01*
X109629Y107337D01*
X109622Y107344D01*
X109626Y107349D01*
X109421Y107844D01*
X109413Y107849D01*
X109414Y107855D01*
X109089Y108280D01*
X109080Y108282D01*
X109080Y108289D01*
X108655Y108614D01*
X108646Y108614D01*
X108644Y108621D01*
X108149Y108826D01*
X108140Y108823D01*
X108137Y108829D01*
X107606Y108899D01*
X107602Y108896D01*
X107600Y108899D01*
X99850Y108899D01*
X99803Y108863D01*
X99808Y108856D01*
X99801Y108850D01*
X99801Y104750D01*
X99837Y104703D01*
X99844Y104708D01*
X99850Y104701D01*
X107600Y104701D01*
X107604Y104704D01*
G37*
G36*
X135037Y126671D02*
X135037Y126671D01*
X135044Y126678D01*
X135049Y126674D01*
X135544Y126879D01*
X135549Y126887D01*
X135555Y126886D01*
X135980Y127211D01*
X135982Y127221D01*
X135989Y127220D01*
X136314Y127645D01*
X136314Y127655D01*
X136321Y127656D01*
X136526Y128151D01*
X136523Y128160D01*
X136525Y128160D01*
X136529Y128163D01*
X136599Y128694D01*
X136596Y128698D01*
X136599Y128700D01*
X136599Y136450D01*
X136563Y136497D01*
X136556Y136492D01*
X136550Y136499D01*
X132450Y136499D01*
X132403Y136463D01*
X132408Y136456D01*
X132401Y136450D01*
X132401Y128700D01*
X132404Y128696D01*
X132401Y128694D01*
X132471Y128163D01*
X132478Y128156D01*
X132474Y128151D01*
X132679Y127656D01*
X132687Y127651D01*
X132686Y127645D01*
X133011Y127220D01*
X133021Y127218D01*
X133020Y127211D01*
X133445Y126886D01*
X133455Y126886D01*
X133456Y126879D01*
X133951Y126674D01*
X133960Y126677D01*
X133963Y126671D01*
X134494Y126601D01*
X134502Y126606D01*
X134506Y126601D01*
X135037Y126671D01*
G37*
G36*
X140037Y126671D02*
X140037Y126671D01*
X140044Y126678D01*
X140049Y126674D01*
X140544Y126879D01*
X140549Y126887D01*
X140555Y126886D01*
X140980Y127211D01*
X140982Y127221D01*
X140989Y127220D01*
X141314Y127645D01*
X141314Y127655D01*
X141321Y127656D01*
X141526Y128151D01*
X141523Y128160D01*
X141525Y128160D01*
X141529Y128163D01*
X141599Y128694D01*
X141596Y128698D01*
X141599Y128700D01*
X141599Y136450D01*
X141563Y136497D01*
X141556Y136492D01*
X141550Y136499D01*
X137450Y136499D01*
X137403Y136463D01*
X137408Y136456D01*
X137401Y136450D01*
X137401Y128700D01*
X137404Y128696D01*
X137401Y128694D01*
X137471Y128163D01*
X137478Y128156D01*
X137474Y128151D01*
X137679Y127656D01*
X137687Y127651D01*
X137686Y127645D01*
X138011Y127220D01*
X138021Y127218D01*
X138020Y127211D01*
X138445Y126886D01*
X138455Y126886D01*
X138456Y126879D01*
X138951Y126674D01*
X138960Y126677D01*
X138963Y126671D01*
X139494Y126601D01*
X139502Y126606D01*
X139506Y126601D01*
X140037Y126671D01*
G37*
G36*
X125037Y126671D02*
X125037Y126671D01*
X125044Y126678D01*
X125049Y126674D01*
X125544Y126879D01*
X125549Y126887D01*
X125555Y126886D01*
X125980Y127211D01*
X125982Y127221D01*
X125989Y127220D01*
X126314Y127645D01*
X126314Y127655D01*
X126321Y127656D01*
X126526Y128151D01*
X126523Y128160D01*
X126525Y128160D01*
X126529Y128163D01*
X126599Y128694D01*
X126596Y128698D01*
X126599Y128700D01*
X126599Y136450D01*
X126563Y136497D01*
X126556Y136492D01*
X126550Y136499D01*
X122450Y136499D01*
X122403Y136463D01*
X122408Y136456D01*
X122401Y136450D01*
X122401Y128700D01*
X122404Y128696D01*
X122401Y128694D01*
X122471Y128163D01*
X122478Y128156D01*
X122474Y128151D01*
X122679Y127656D01*
X122687Y127651D01*
X122686Y127645D01*
X123011Y127220D01*
X123021Y127218D01*
X123020Y127211D01*
X123445Y126886D01*
X123455Y126886D01*
X123456Y126879D01*
X123951Y126674D01*
X123960Y126677D01*
X123963Y126671D01*
X124494Y126601D01*
X124502Y126606D01*
X124506Y126601D01*
X125037Y126671D01*
G37*
G36*
X145037Y126671D02*
X145037Y126671D01*
X145044Y126678D01*
X145049Y126674D01*
X145544Y126879D01*
X145549Y126887D01*
X145555Y126886D01*
X145980Y127211D01*
X145982Y127221D01*
X145989Y127220D01*
X146314Y127645D01*
X146314Y127655D01*
X146321Y127656D01*
X146526Y128151D01*
X146523Y128160D01*
X146525Y128160D01*
X146529Y128163D01*
X146599Y128694D01*
X146596Y128698D01*
X146599Y128700D01*
X146599Y136450D01*
X146563Y136497D01*
X146556Y136492D01*
X146550Y136499D01*
X142450Y136499D01*
X142403Y136463D01*
X142408Y136456D01*
X142401Y136450D01*
X142401Y128700D01*
X142404Y128696D01*
X142401Y128694D01*
X142471Y128163D01*
X142478Y128156D01*
X142474Y128151D01*
X142679Y127656D01*
X142687Y127651D01*
X142686Y127645D01*
X143011Y127220D01*
X143021Y127218D01*
X143020Y127211D01*
X143445Y126886D01*
X143455Y126886D01*
X143456Y126879D01*
X143951Y126674D01*
X143960Y126677D01*
X143963Y126671D01*
X144494Y126601D01*
X144502Y126606D01*
X144506Y126601D01*
X145037Y126671D01*
G37*
G36*
X120037Y126671D02*
X120037Y126671D01*
X120044Y126678D01*
X120049Y126674D01*
X120544Y126879D01*
X120549Y126887D01*
X120555Y126886D01*
X120980Y127211D01*
X120982Y127221D01*
X120989Y127220D01*
X121314Y127645D01*
X121314Y127655D01*
X121321Y127656D01*
X121526Y128151D01*
X121523Y128160D01*
X121525Y128160D01*
X121529Y128163D01*
X121599Y128694D01*
X121596Y128698D01*
X121599Y128700D01*
X121599Y136450D01*
X121563Y136497D01*
X121556Y136492D01*
X121550Y136499D01*
X117450Y136499D01*
X117403Y136463D01*
X117408Y136456D01*
X117401Y136450D01*
X117401Y128700D01*
X117404Y128696D01*
X117401Y128694D01*
X117471Y128163D01*
X117478Y128156D01*
X117474Y128151D01*
X117679Y127656D01*
X117687Y127651D01*
X117686Y127645D01*
X118011Y127220D01*
X118021Y127218D01*
X118020Y127211D01*
X118445Y126886D01*
X118455Y126886D01*
X118456Y126879D01*
X118951Y126674D01*
X118960Y126677D01*
X118963Y126671D01*
X119494Y126601D01*
X119502Y126606D01*
X119506Y126601D01*
X120037Y126671D01*
G37*
G36*
X130037Y126671D02*
X130037Y126671D01*
X130044Y126678D01*
X130049Y126674D01*
X130544Y126879D01*
X130549Y126887D01*
X130555Y126886D01*
X130980Y127211D01*
X130982Y127221D01*
X130989Y127220D01*
X131314Y127645D01*
X131314Y127655D01*
X131321Y127656D01*
X131526Y128151D01*
X131523Y128160D01*
X131525Y128160D01*
X131529Y128163D01*
X131599Y128694D01*
X131596Y128698D01*
X131599Y128700D01*
X131599Y136450D01*
X131563Y136497D01*
X131556Y136492D01*
X131550Y136499D01*
X127450Y136499D01*
X127403Y136463D01*
X127408Y136456D01*
X127401Y136450D01*
X127401Y128700D01*
X127404Y128696D01*
X127401Y128694D01*
X127471Y128163D01*
X127478Y128156D01*
X127474Y128151D01*
X127679Y127656D01*
X127687Y127651D01*
X127686Y127645D01*
X128011Y127220D01*
X128021Y127218D01*
X128020Y127211D01*
X128445Y126886D01*
X128455Y126886D01*
X128456Y126879D01*
X128951Y126674D01*
X128960Y126677D01*
X128963Y126671D01*
X129494Y126601D01*
X129502Y126606D01*
X129506Y126601D01*
X130037Y126671D01*
G37*
G36*
X107604Y119704D02*
X107604Y119704D01*
X107606Y119701D01*
X108137Y119771D01*
X108144Y119778D01*
X108149Y119774D01*
X108644Y119979D01*
X108649Y119987D01*
X108655Y119986D01*
X109080Y120311D01*
X109082Y120321D01*
X109089Y120320D01*
X109414Y120745D01*
X109414Y120755D01*
X109421Y120756D01*
X109626Y121251D01*
X109623Y121260D01*
X109625Y121260D01*
X109629Y121263D01*
X109699Y121794D01*
X109694Y121802D01*
X109699Y121806D01*
X109629Y122337D01*
X109622Y122344D01*
X109626Y122349D01*
X109421Y122844D01*
X109413Y122849D01*
X109414Y122855D01*
X109089Y123280D01*
X109080Y123282D01*
X109080Y123289D01*
X108655Y123614D01*
X108646Y123614D01*
X108644Y123621D01*
X108149Y123826D01*
X108140Y123823D01*
X108137Y123829D01*
X107606Y123899D01*
X107602Y123896D01*
X107600Y123899D01*
X99850Y123899D01*
X99803Y123863D01*
X99808Y123856D01*
X99801Y123850D01*
X99801Y119750D01*
X99837Y119703D01*
X99844Y119708D01*
X99850Y119701D01*
X107600Y119701D01*
X107604Y119704D01*
G37*
G36*
X154197Y119737D02*
X154197Y119737D01*
X154192Y119744D01*
X154199Y119750D01*
X154199Y123850D01*
X154163Y123897D01*
X154156Y123892D01*
X154150Y123899D01*
X146400Y123899D01*
X146396Y123896D01*
X146394Y123899D01*
X145863Y123829D01*
X145856Y123822D01*
X145851Y123826D01*
X145356Y123621D01*
X145351Y123613D01*
X145345Y123614D01*
X144920Y123289D01*
X144918Y123280D01*
X144911Y123280D01*
X144586Y122855D01*
X144586Y122846D01*
X144579Y122844D01*
X144374Y122349D01*
X144377Y122340D01*
X144371Y122337D01*
X144301Y121806D01*
X144306Y121798D01*
X144301Y121794D01*
X144371Y121263D01*
X144378Y121256D01*
X144374Y121251D01*
X144579Y120756D01*
X144587Y120751D01*
X144586Y120745D01*
X144911Y120320D01*
X144921Y120318D01*
X144920Y120311D01*
X145345Y119986D01*
X145355Y119986D01*
X145356Y119979D01*
X145851Y119774D01*
X145860Y119777D01*
X145863Y119771D01*
X146394Y119701D01*
X146398Y119704D01*
X146400Y119701D01*
X154150Y119701D01*
X154197Y119737D01*
G37*
G36*
X154197Y104737D02*
X154197Y104737D01*
X154192Y104744D01*
X154199Y104750D01*
X154199Y108850D01*
X154163Y108897D01*
X154156Y108892D01*
X154150Y108899D01*
X146400Y108899D01*
X146396Y108896D01*
X146394Y108899D01*
X145863Y108829D01*
X145856Y108822D01*
X145851Y108826D01*
X145356Y108621D01*
X145351Y108613D01*
X145345Y108614D01*
X144920Y108289D01*
X144918Y108280D01*
X144911Y108280D01*
X144586Y107855D01*
X144586Y107846D01*
X144579Y107844D01*
X144374Y107349D01*
X144377Y107340D01*
X144371Y107337D01*
X144301Y106806D01*
X144306Y106798D01*
X144301Y106794D01*
X144371Y106263D01*
X144378Y106256D01*
X144374Y106251D01*
X144579Y105756D01*
X144587Y105751D01*
X144586Y105745D01*
X144911Y105320D01*
X144921Y105318D01*
X144920Y105311D01*
X145345Y104986D01*
X145355Y104986D01*
X145356Y104979D01*
X145851Y104774D01*
X145860Y104777D01*
X145863Y104771D01*
X146394Y104701D01*
X146398Y104704D01*
X146400Y104701D01*
X154150Y104701D01*
X154197Y104737D01*
G37*
G36*
X111597Y92187D02*
X111597Y92187D01*
X111592Y92194D01*
X111599Y92200D01*
X111599Y99900D01*
X111596Y99904D01*
X111599Y99906D01*
X111529Y100437D01*
X111522Y100444D01*
X111526Y100449D01*
X111321Y100944D01*
X111313Y100949D01*
X111314Y100955D01*
X110989Y101380D01*
X110980Y101382D01*
X110980Y101389D01*
X110555Y101714D01*
X110546Y101714D01*
X110544Y101721D01*
X110049Y101926D01*
X110040Y101923D01*
X110037Y101929D01*
X109506Y101999D01*
X109498Y101994D01*
X109494Y101999D01*
X108963Y101929D01*
X108956Y101922D01*
X108951Y101926D01*
X108456Y101721D01*
X108451Y101713D01*
X108445Y101714D01*
X108020Y101389D01*
X108018Y101380D01*
X108011Y101380D01*
X107686Y100955D01*
X107686Y100946D01*
X107679Y100944D01*
X107474Y100449D01*
X107476Y100442D01*
X107472Y100438D01*
X107471Y100437D01*
X107401Y99906D01*
X107404Y99902D01*
X107401Y99900D01*
X107401Y92200D01*
X107437Y92153D01*
X107444Y92158D01*
X107450Y92151D01*
X111550Y92151D01*
X111597Y92187D01*
G37*
G36*
X115635Y175272D02*
X115635Y175272D01*
X115701Y175274D01*
X115744Y175292D01*
X115791Y175300D01*
X115848Y175334D01*
X115908Y175359D01*
X115943Y175390D01*
X115984Y175415D01*
X116026Y175466D01*
X116074Y175510D01*
X116096Y175552D01*
X116125Y175589D01*
X116146Y175651D01*
X116177Y175710D01*
X116185Y175764D01*
X116197Y175801D01*
X116196Y175841D01*
X116204Y175895D01*
X116204Y179705D01*
X116193Y179770D01*
X116191Y179836D01*
X116173Y179879D01*
X116165Y179926D01*
X116131Y179983D01*
X116106Y180043D01*
X116075Y180078D01*
X116050Y180119D01*
X115999Y180161D01*
X115955Y180209D01*
X115913Y180231D01*
X115876Y180260D01*
X115814Y180281D01*
X115755Y180312D01*
X115701Y180320D01*
X115664Y180332D01*
X115624Y180331D01*
X115570Y180339D01*
X113030Y180339D01*
X112965Y180328D01*
X112899Y180326D01*
X112856Y180308D01*
X112809Y180300D01*
X112752Y180266D01*
X112692Y180241D01*
X112657Y180210D01*
X112616Y180185D01*
X112575Y180134D01*
X112526Y180090D01*
X112504Y180048D01*
X112475Y180011D01*
X112454Y179949D01*
X112423Y179890D01*
X112415Y179836D01*
X112403Y179799D01*
X112403Y179795D01*
X112403Y179794D01*
X112404Y179759D01*
X112396Y179705D01*
X112396Y175895D01*
X112407Y175830D01*
X112409Y175764D01*
X112427Y175721D01*
X112435Y175674D01*
X112469Y175617D01*
X112494Y175557D01*
X112525Y175522D01*
X112550Y175481D01*
X112601Y175440D01*
X112645Y175391D01*
X112687Y175369D01*
X112724Y175340D01*
X112786Y175319D01*
X112845Y175288D01*
X112899Y175280D01*
X112936Y175268D01*
X112976Y175269D01*
X113030Y175261D01*
X115570Y175261D01*
X115635Y175272D01*
G37*
G36*
X166435Y175272D02*
X166435Y175272D01*
X166501Y175274D01*
X166544Y175292D01*
X166591Y175300D01*
X166648Y175334D01*
X166708Y175359D01*
X166743Y175390D01*
X166784Y175415D01*
X166826Y175466D01*
X166874Y175510D01*
X166896Y175552D01*
X166925Y175589D01*
X166946Y175651D01*
X166977Y175710D01*
X166985Y175764D01*
X166997Y175801D01*
X166996Y175841D01*
X167004Y175895D01*
X167004Y179705D01*
X166993Y179770D01*
X166991Y179836D01*
X166973Y179879D01*
X166965Y179926D01*
X166931Y179983D01*
X166906Y180043D01*
X166875Y180078D01*
X166850Y180119D01*
X166799Y180161D01*
X166755Y180209D01*
X166713Y180231D01*
X166676Y180260D01*
X166614Y180281D01*
X166555Y180312D01*
X166501Y180320D01*
X166464Y180332D01*
X166424Y180331D01*
X166370Y180339D01*
X163830Y180339D01*
X163765Y180328D01*
X163699Y180326D01*
X163656Y180308D01*
X163609Y180300D01*
X163552Y180266D01*
X163492Y180241D01*
X163457Y180210D01*
X163416Y180185D01*
X163375Y180134D01*
X163326Y180090D01*
X163304Y180048D01*
X163275Y180011D01*
X163254Y179949D01*
X163223Y179890D01*
X163215Y179836D01*
X163203Y179799D01*
X163203Y179795D01*
X163203Y179794D01*
X163204Y179759D01*
X163196Y179705D01*
X163196Y175895D01*
X163207Y175830D01*
X163209Y175764D01*
X163227Y175721D01*
X163235Y175674D01*
X163269Y175617D01*
X163294Y175557D01*
X163325Y175522D01*
X163350Y175481D01*
X163401Y175440D01*
X163445Y175391D01*
X163487Y175369D01*
X163524Y175340D01*
X163586Y175319D01*
X163645Y175288D01*
X163699Y175280D01*
X163736Y175268D01*
X163776Y175269D01*
X163830Y175261D01*
X166370Y175261D01*
X166435Y175272D01*
G37*
G36*
X141035Y175272D02*
X141035Y175272D01*
X141101Y175274D01*
X141144Y175292D01*
X141191Y175300D01*
X141248Y175334D01*
X141308Y175359D01*
X141343Y175390D01*
X141384Y175415D01*
X141426Y175466D01*
X141474Y175510D01*
X141496Y175552D01*
X141525Y175589D01*
X141546Y175651D01*
X141577Y175710D01*
X141585Y175764D01*
X141597Y175801D01*
X141596Y175841D01*
X141604Y175895D01*
X141604Y179705D01*
X141593Y179770D01*
X141591Y179836D01*
X141573Y179879D01*
X141565Y179926D01*
X141531Y179983D01*
X141506Y180043D01*
X141475Y180078D01*
X141450Y180119D01*
X141399Y180161D01*
X141355Y180209D01*
X141313Y180231D01*
X141276Y180260D01*
X141214Y180281D01*
X141155Y180312D01*
X141101Y180320D01*
X141064Y180332D01*
X141024Y180331D01*
X140970Y180339D01*
X138430Y180339D01*
X138365Y180328D01*
X138299Y180326D01*
X138256Y180308D01*
X138209Y180300D01*
X138152Y180266D01*
X138092Y180241D01*
X138057Y180210D01*
X138016Y180185D01*
X137975Y180134D01*
X137926Y180090D01*
X137904Y180048D01*
X137875Y180011D01*
X137854Y179949D01*
X137823Y179890D01*
X137815Y179836D01*
X137803Y179799D01*
X137803Y179795D01*
X137803Y179794D01*
X137804Y179759D01*
X137796Y179705D01*
X137796Y175895D01*
X137807Y175830D01*
X137809Y175764D01*
X137827Y175721D01*
X137835Y175674D01*
X137869Y175617D01*
X137894Y175557D01*
X137925Y175522D01*
X137950Y175481D01*
X138001Y175440D01*
X138045Y175391D01*
X138087Y175369D01*
X138124Y175340D01*
X138186Y175319D01*
X138245Y175288D01*
X138299Y175280D01*
X138336Y175268D01*
X138376Y175269D01*
X138430Y175261D01*
X140970Y175261D01*
X141035Y175272D01*
G37*
G36*
X90235Y175272D02*
X90235Y175272D01*
X90301Y175274D01*
X90344Y175292D01*
X90391Y175300D01*
X90448Y175334D01*
X90508Y175359D01*
X90543Y175390D01*
X90584Y175415D01*
X90626Y175466D01*
X90674Y175510D01*
X90696Y175552D01*
X90725Y175589D01*
X90746Y175651D01*
X90777Y175710D01*
X90785Y175764D01*
X90797Y175801D01*
X90796Y175841D01*
X90804Y175895D01*
X90804Y179705D01*
X90793Y179770D01*
X90791Y179836D01*
X90773Y179879D01*
X90765Y179926D01*
X90731Y179983D01*
X90706Y180043D01*
X90675Y180078D01*
X90650Y180119D01*
X90599Y180161D01*
X90555Y180209D01*
X90513Y180231D01*
X90476Y180260D01*
X90414Y180281D01*
X90355Y180312D01*
X90301Y180320D01*
X90264Y180332D01*
X90224Y180331D01*
X90170Y180339D01*
X87630Y180339D01*
X87565Y180328D01*
X87499Y180326D01*
X87456Y180308D01*
X87409Y180300D01*
X87352Y180266D01*
X87292Y180241D01*
X87257Y180210D01*
X87216Y180185D01*
X87175Y180134D01*
X87126Y180090D01*
X87104Y180048D01*
X87075Y180011D01*
X87054Y179949D01*
X87023Y179890D01*
X87015Y179836D01*
X87003Y179799D01*
X87003Y179795D01*
X87003Y179794D01*
X87004Y179759D01*
X86996Y179705D01*
X86996Y175895D01*
X87007Y175830D01*
X87009Y175764D01*
X87027Y175721D01*
X87035Y175674D01*
X87069Y175617D01*
X87094Y175557D01*
X87125Y175522D01*
X87150Y175481D01*
X87201Y175440D01*
X87245Y175391D01*
X87287Y175369D01*
X87324Y175340D01*
X87386Y175319D01*
X87445Y175288D01*
X87499Y175280D01*
X87536Y175268D01*
X87576Y175269D01*
X87630Y175261D01*
X90170Y175261D01*
X90235Y175272D01*
G37*
D10*
X288900Y429100D03*
X269900Y429100D03*
X279400Y408100D03*
D11*
X283000Y12750D03*
X278000Y12750D03*
X273000Y12750D03*
X268000Y12750D03*
X263000Y12750D03*
X258000Y12750D03*
X253000Y12750D03*
X248000Y12750D03*
X243000Y12750D03*
X238000Y12750D03*
X233000Y12750D03*
X228000Y12750D03*
X203000Y12750D03*
X198000Y12750D03*
X193000Y12750D03*
X188000Y12750D03*
X183000Y12750D03*
X178000Y12750D03*
X173000Y12750D03*
X168000Y12750D03*
X163000Y12750D03*
X158000Y12750D03*
X153000Y12750D03*
X148000Y12750D03*
X143000Y12750D03*
X138000Y12750D03*
X133000Y12750D03*
X128000Y12750D03*
X123000Y12750D03*
X118000Y12750D03*
X113000Y12750D03*
X108000Y12750D03*
X103000Y12750D03*
X98000Y12750D03*
D12*
X370500Y461000D03*
X370500Y419000D03*
X357500Y440000D03*
X10500Y419000D03*
X10500Y461000D03*
X23500Y440000D03*
D13*
X241300Y129300D03*
X241300Y99300D03*
D14*
X269900Y101299D03*
X279400Y101299D03*
X288900Y101299D03*
X288900Y127301D03*
X269900Y127301D03*
D15*
X103350Y544600D03*
D16*
X131050Y544600D03*
X158750Y544600D03*
X186450Y544600D03*
X214150Y544600D03*
X117250Y573000D03*
X144950Y573000D03*
X172550Y573000D03*
X200250Y573000D03*
D17*
X33750Y558800D03*
X283750Y558800D03*
D18*
X336550Y622300D03*
X361950Y622300D03*
D19*
X127000Y114300D03*
D20*
X165100Y301879D03*
X152400Y301879D03*
X139700Y301879D03*
X127000Y301879D03*
X114300Y301879D03*
X101600Y301879D03*
X88900Y301879D03*
X76200Y301879D03*
X63500Y301879D03*
X63500Y206121D03*
X76200Y206121D03*
X88900Y206121D03*
X101600Y206121D03*
X114300Y206121D03*
X127000Y206121D03*
X139700Y206121D03*
X152400Y206121D03*
X165100Y206121D03*
X107950Y391100D03*
X120650Y391100D03*
X133350Y391100D03*
X146050Y391100D03*
X146050Y447100D03*
X133350Y447100D03*
X120650Y447100D03*
X107950Y447100D03*
D21*
X63500Y410600D03*
X63500Y427600D03*
X317500Y427600D03*
X317500Y410600D03*
X241300Y427600D03*
X241300Y410600D03*
D22*
X326000Y381000D03*
X309000Y381000D03*
X232800Y381000D03*
X249800Y381000D03*
D21*
X190500Y245500D03*
X190500Y262500D03*
X139700Y351400D03*
X139700Y334400D03*
X317500Y105800D03*
X317500Y122800D03*
D22*
X249800Y165100D03*
X232800Y165100D03*
D23*
X95650Y337900D03*
X82150Y337900D03*
X82150Y347900D03*
X95650Y347900D03*
D21*
X63500Y351400D03*
X63500Y334400D03*
X114300Y334400D03*
X114300Y351400D03*
D24*
X88900Y172593D03*
X88900Y183007D03*
X114300Y172593D03*
X114300Y183007D03*
X139700Y172593D03*
X139700Y183007D03*
X165100Y183007D03*
X165100Y172593D03*
D25*
X152400Y50800D03*
X165100Y50800D03*
X127000Y152400D03*
X114300Y152400D03*
X165100Y419100D03*
X88900Y419100D03*
D26*
X312220Y244790D02*
X312220Y237810D01*
X305240Y237810D01*
X305240Y244790D01*
X312220Y244790D01*
X312220Y242610D02*
X305240Y242610D01*
X329760Y244790D02*
X329760Y237810D01*
X322780Y237810D01*
X322780Y244790D01*
X329760Y244790D01*
X329760Y242610D02*
X322780Y242610D01*
D22*
X326000Y165100D03*
X309000Y165100D03*
X287900Y457200D03*
X270900Y457200D03*
D27*
X307500Y339700D03*
X307500Y320700D03*
X328500Y330200D03*
D22*
X232800Y317500D03*
X249800Y317500D03*
X232800Y342900D03*
X249800Y342900D03*
X309000Y266700D03*
X326000Y266700D03*
D26*
X236020Y244790D02*
X236020Y237810D01*
X229040Y237810D01*
X229040Y244790D01*
X236020Y244790D01*
X236020Y242610D02*
X229040Y242610D01*
X253560Y244790D02*
X253560Y237810D01*
X246580Y237810D01*
X246580Y244790D01*
X253560Y244790D01*
X253560Y242610D02*
X246580Y242610D01*
D22*
X232800Y266700D03*
X249800Y266700D03*
D28*
X12700Y635000D03*
X368300Y50800D03*
D29*
X12100Y50800D02*
X12102Y50849D01*
X12108Y50897D01*
X12118Y50945D01*
X12132Y50992D01*
X12149Y51038D01*
X12170Y51082D01*
X12195Y51124D01*
X12223Y51164D01*
X12255Y51202D01*
X12289Y51237D01*
X12326Y51269D01*
X12365Y51298D01*
X12407Y51324D01*
X12451Y51346D01*
X12496Y51364D01*
X12543Y51379D01*
X12590Y51390D01*
X12639Y51397D01*
X12688Y51400D01*
X12737Y51399D01*
X12785Y51394D01*
X12834Y51385D01*
X12881Y51372D01*
X12927Y51355D01*
X12971Y51335D01*
X13014Y51311D01*
X13055Y51284D01*
X13093Y51253D01*
X13129Y51220D01*
X13161Y51184D01*
X13191Y51145D01*
X13218Y51104D01*
X13241Y51060D01*
X13260Y51015D01*
X13276Y50969D01*
X13288Y50922D01*
X13296Y50873D01*
X13300Y50824D01*
X13300Y50776D01*
X13296Y50727D01*
X13288Y50678D01*
X13276Y50631D01*
X13260Y50585D01*
X13241Y50540D01*
X13218Y50496D01*
X13191Y50455D01*
X13161Y50416D01*
X13129Y50380D01*
X13093Y50347D01*
X13055Y50316D01*
X13014Y50289D01*
X12971Y50265D01*
X12927Y50245D01*
X12881Y50228D01*
X12834Y50215D01*
X12785Y50206D01*
X12737Y50201D01*
X12688Y50200D01*
X12639Y50203D01*
X12590Y50210D01*
X12543Y50221D01*
X12496Y50236D01*
X12451Y50254D01*
X12407Y50276D01*
X12365Y50302D01*
X12326Y50331D01*
X12289Y50363D01*
X12255Y50398D01*
X12223Y50436D01*
X12195Y50476D01*
X12170Y50518D01*
X12149Y50562D01*
X12132Y50608D01*
X12118Y50655D01*
X12108Y50703D01*
X12102Y50751D01*
X12100Y50800D01*
M02*
