G04 EAGLE Gerber RS-274X export*
G75*
%MOMM*%
%FSLAX34Y34*%
%LPD*%
%INSilkscreen Top*%
%IPPOS*%
%AMOC8*
5,1,8,0,0,1.08239X$1,22.5*%
G01*
%ADD10C,0.203200*%
%ADD11R,0.640000X0.040000*%
%ADD12R,0.800000X0.040000*%
%ADD13R,0.840000X0.040000*%
%ADD14R,0.280000X0.040000*%
%ADD15R,0.600000X0.040000*%
%ADD16R,0.680000X0.040000*%
%ADD17R,0.760000X0.040000*%
%ADD18C,0.254000*%
%ADD19C,0.508000*%

G36*
X213211Y313968D02*
X213211Y313968D01*
X213249Y313976D01*
X213357Y313990D01*
X213860Y314145D01*
X213867Y314149D01*
X213876Y314151D01*
X214022Y314230D01*
X214435Y314556D01*
X214440Y314562D01*
X214447Y314566D01*
X214476Y314599D01*
X214489Y314609D01*
X214507Y314636D01*
X214555Y314692D01*
X214824Y315144D01*
X214827Y315152D01*
X214832Y315158D01*
X214887Y315315D01*
X214976Y315833D01*
X214975Y315869D01*
X214984Y315918D01*
X214984Y321210D01*
X214980Y321228D01*
X214982Y321250D01*
X214941Y321775D01*
X214940Y321778D01*
X214940Y321780D01*
X214898Y321941D01*
X214683Y322421D01*
X214678Y322427D01*
X214676Y322435D01*
X214579Y322570D01*
X214205Y322941D01*
X214198Y322946D01*
X214193Y322953D01*
X214054Y323044D01*
X213572Y323255D01*
X213571Y323255D01*
X213570Y323256D01*
X213409Y323295D01*
X212883Y323334D01*
X212866Y323332D01*
X212846Y323336D01*
X196970Y323333D01*
X196968Y323333D01*
X196967Y323333D01*
X192733Y323309D01*
X192731Y323309D01*
X192729Y323309D01*
X189556Y323261D01*
X189554Y323261D01*
X189461Y323241D01*
X189361Y323219D01*
X189360Y323219D01*
X189338Y323203D01*
X189317Y323217D01*
X189300Y323220D01*
X189286Y323228D01*
X189121Y323252D01*
X184892Y323159D01*
X184890Y323159D01*
X184888Y323159D01*
X181717Y323061D01*
X181714Y323060D01*
X181710Y323060D01*
X179932Y322982D01*
X181813Y323397D01*
X181815Y323398D01*
X181819Y323398D01*
X189028Y325077D01*
X189042Y325083D01*
X189062Y325086D01*
X189397Y325189D01*
X189463Y325194D01*
X189506Y325191D01*
X189529Y325199D01*
X189560Y325201D01*
X196229Y326822D01*
X196230Y326823D01*
X196232Y326823D01*
X201866Y328229D01*
X201867Y328230D01*
X201869Y328230D01*
X209029Y330065D01*
X209030Y330066D01*
X209033Y330066D01*
X213626Y331282D01*
X213665Y331302D01*
X213737Y331327D01*
X214198Y331579D01*
X214205Y331585D01*
X214213Y331588D01*
X214340Y331695D01*
X214678Y332097D01*
X214681Y332103D01*
X214686Y332107D01*
X214767Y332253D01*
X214941Y332748D01*
X214946Y332778D01*
X214969Y332901D01*
X214983Y333428D01*
X214982Y333434D01*
X214983Y333441D01*
X214983Y338720D01*
X214979Y338742D01*
X214981Y338771D01*
X214927Y339293D01*
X214926Y339299D01*
X214926Y339304D01*
X214878Y339464D01*
X214646Y339934D01*
X214641Y339941D01*
X214638Y339949D01*
X214536Y340081D01*
X214150Y340436D01*
X214145Y340439D01*
X214142Y340443D01*
X214001Y340530D01*
X213514Y340729D01*
X213493Y340733D01*
X213469Y340745D01*
X208413Y342265D01*
X208411Y342266D01*
X208409Y342267D01*
X201312Y344331D01*
X201310Y344332D01*
X201308Y344333D01*
X195717Y345903D01*
X195715Y345903D01*
X195712Y345904D01*
X189598Y347561D01*
X189563Y347563D01*
X189530Y347575D01*
X189465Y347570D01*
X189399Y347574D01*
X189387Y347570D01*
X189361Y347596D01*
X189288Y347629D01*
X189250Y347652D01*
X189231Y347655D01*
X189209Y347664D01*
X186141Y348467D01*
X186139Y348467D01*
X186137Y348468D01*
X182036Y349501D01*
X182034Y349501D01*
X182031Y349502D01*
X179461Y350119D01*
X179458Y350119D01*
X179455Y350120D01*
X182821Y350044D01*
X182823Y350044D01*
X182825Y350044D01*
X189167Y349952D01*
X189221Y349962D01*
X189276Y349962D01*
X189318Y349980D01*
X189363Y349989D01*
X189409Y350019D01*
X189459Y350041D01*
X189461Y350042D01*
X189669Y349982D01*
X189712Y349978D01*
X189805Y349962D01*
X192970Y349937D01*
X192972Y349937D01*
X192974Y349937D01*
X213022Y349924D01*
X213057Y349931D01*
X213107Y349932D01*
X213624Y350020D01*
X213631Y350023D01*
X213638Y350023D01*
X213794Y350083D01*
X214245Y350350D01*
X214251Y350355D01*
X214259Y350358D01*
X214382Y350469D01*
X214708Y350880D01*
X214712Y350888D01*
X214718Y350893D01*
X214794Y351042D01*
X214950Y351542D01*
X214954Y351586D01*
X214972Y351680D01*
X214984Y352207D01*
X214983Y352212D01*
X214984Y352218D01*
X214984Y357494D01*
X214982Y357505D01*
X214983Y357518D01*
X214958Y358044D01*
X214952Y358066D01*
X214925Y358201D01*
X214735Y358689D01*
X214731Y358696D01*
X214729Y358703D01*
X214640Y358844D01*
X214288Y359232D01*
X214282Y359237D01*
X214278Y359243D01*
X214144Y359342D01*
X213677Y359580D01*
X213671Y359582D01*
X213666Y359585D01*
X213506Y359631D01*
X212984Y359691D01*
X212967Y359689D01*
X212945Y359694D01*
X212544Y359707D01*
X212337Y359827D01*
X212228Y360055D01*
X212211Y366273D01*
X212202Y366316D01*
X212197Y366390D01*
X212071Y366901D01*
X212053Y366940D01*
X212020Y367030D01*
X211758Y367486D01*
X211729Y367519D01*
X211673Y367596D01*
X211296Y367962D01*
X211259Y367986D01*
X211185Y368044D01*
X210723Y368294D01*
X210682Y368306D01*
X210591Y368342D01*
X210078Y368453D01*
X210036Y368454D01*
X209973Y368464D01*
X189933Y368472D01*
X189415Y368491D01*
X189398Y368488D01*
X189380Y368491D01*
X189300Y368472D01*
X189260Y368465D01*
X189243Y368471D01*
X189213Y368469D01*
X189174Y368476D01*
X183359Y368476D01*
X183355Y368475D01*
X183351Y368476D01*
X182822Y368466D01*
X182781Y368457D01*
X182717Y368453D01*
X182204Y368333D01*
X182165Y368315D01*
X182074Y368282D01*
X181615Y368024D01*
X181582Y367996D01*
X181504Y367940D01*
X181134Y367566D01*
X181110Y367529D01*
X181051Y367454D01*
X180798Y366992D01*
X180786Y366951D01*
X180749Y366862D01*
X180634Y366348D01*
X180633Y366306D01*
X180622Y366240D01*
X180614Y360431D01*
X180604Y360032D01*
X180486Y359819D01*
X180263Y359707D01*
X179427Y359702D01*
X179189Y359804D01*
X179065Y360002D01*
X179047Y360387D01*
X179041Y366189D01*
X179034Y366228D01*
X179032Y366285D01*
X178931Y366801D01*
X178914Y366842D01*
X178886Y366933D01*
X178646Y367402D01*
X178619Y367436D01*
X178566Y367515D01*
X178207Y367900D01*
X178171Y367926D01*
X178099Y367988D01*
X177646Y368258D01*
X177606Y368273D01*
X177516Y368313D01*
X177006Y368446D01*
X176963Y368449D01*
X176894Y368462D01*
X176366Y368477D01*
X176360Y368476D01*
X176352Y368477D01*
X174238Y368477D01*
X174222Y368474D01*
X174202Y368476D01*
X173676Y368438D01*
X173633Y368426D01*
X173544Y368410D01*
X173048Y368233D01*
X173010Y368211D01*
X172925Y368169D01*
X172497Y367862D01*
X172469Y367832D01*
X172463Y367828D01*
X172461Y367825D01*
X172396Y367767D01*
X172069Y367354D01*
X172049Y367315D01*
X171999Y367236D01*
X171797Y366749D01*
X171789Y366706D01*
X171762Y366616D01*
X171701Y366093D01*
X171703Y366067D01*
X171698Y366035D01*
X171696Y360256D01*
X171648Y359921D01*
X171507Y359762D01*
X171183Y359684D01*
X170691Y359628D01*
X170685Y359627D01*
X170679Y359627D01*
X170520Y359577D01*
X170052Y359338D01*
X170046Y359333D01*
X170039Y359331D01*
X169909Y359228D01*
X169557Y358838D01*
X169552Y358831D01*
X169546Y358826D01*
X169461Y358683D01*
X169272Y358193D01*
X169269Y358175D01*
X169239Y358035D01*
X169217Y357508D01*
X169218Y357498D01*
X169216Y357486D01*
X169216Y347443D01*
X169217Y347438D01*
X169216Y347432D01*
X169229Y346903D01*
X169236Y346872D01*
X169256Y346751D01*
X169429Y346255D01*
X169433Y346247D01*
X169435Y346238D01*
X169520Y346095D01*
X169861Y345695D01*
X169868Y345690D01*
X169872Y345683D01*
X169908Y345654D01*
X169917Y345643D01*
X169941Y345629D01*
X170003Y345580D01*
X170464Y345330D01*
X170502Y345318D01*
X170553Y345292D01*
X176604Y343389D01*
X176605Y343389D01*
X176606Y343389D01*
X181151Y341983D01*
X181153Y341983D01*
X181155Y341982D01*
X189253Y339544D01*
X189334Y339537D01*
X189375Y339530D01*
X189388Y339525D01*
X189493Y339474D01*
X193046Y338456D01*
X193049Y338456D01*
X193052Y338455D01*
X196617Y337482D01*
X196622Y337482D01*
X196628Y337480D01*
X199701Y336712D01*
X199707Y336712D01*
X199713Y336709D01*
X200164Y336609D01*
X199567Y336489D01*
X199563Y336487D01*
X199557Y336486D01*
X195951Y335678D01*
X195948Y335677D01*
X195943Y335677D01*
X191837Y334691D01*
X191835Y334691D01*
X191833Y334691D01*
X190296Y334311D01*
X190291Y334308D01*
X190284Y334308D01*
X189265Y334030D01*
X189240Y334017D01*
X189201Y334013D01*
X189187Y334013D01*
X189185Y334012D01*
X189183Y334012D01*
X185599Y333092D01*
X185597Y333091D01*
X185594Y333091D01*
X181506Y332004D01*
X181505Y332004D01*
X181503Y332004D01*
X178953Y331308D01*
X178951Y331307D01*
X178949Y331307D01*
X174878Y330160D01*
X174875Y330159D01*
X174872Y330158D01*
X170814Y328964D01*
X170802Y328958D01*
X170786Y328955D01*
X170290Y328776D01*
X170277Y328768D01*
X170148Y328696D01*
X169737Y328368D01*
X169730Y328360D01*
X169721Y328355D01*
X169615Y328227D01*
X169354Y327771D01*
X169351Y327761D01*
X169344Y327753D01*
X169293Y327595D01*
X169216Y327075D01*
X169218Y327044D01*
X169211Y327003D01*
X169206Y315899D01*
X169213Y315863D01*
X169214Y315810D01*
X169308Y315293D01*
X169311Y315284D01*
X169311Y315275D01*
X169374Y315120D01*
X169649Y314673D01*
X169654Y314668D01*
X169657Y314661D01*
X169725Y314588D01*
X169726Y314587D01*
X169726Y314586D01*
X169770Y314539D01*
X170186Y314219D01*
X170194Y314215D01*
X170200Y314209D01*
X170349Y314136D01*
X170853Y313987D01*
X170895Y313983D01*
X170994Y313967D01*
X188971Y313958D01*
X189014Y313967D01*
X189089Y313972D01*
X189203Y314000D01*
X189217Y313991D01*
X189226Y313990D01*
X189233Y313985D01*
X189397Y313958D01*
X213211Y313968D01*
G37*
G36*
X368588Y536780D02*
X368588Y536780D01*
X368596Y536782D01*
X368796Y537282D01*
X368792Y537295D01*
X368799Y537300D01*
X368799Y588800D01*
X368786Y588818D01*
X368789Y588830D01*
X368489Y589230D01*
X368458Y589239D01*
X368450Y589249D01*
X355550Y589249D01*
X355532Y589236D01*
X355520Y589239D01*
X355120Y588939D01*
X355116Y588923D01*
X355111Y588920D01*
X355114Y588916D01*
X355112Y588908D01*
X355101Y588900D01*
X355101Y536900D01*
X355137Y536853D01*
X355140Y536855D01*
X355142Y536851D01*
X355742Y536751D01*
X355747Y536754D01*
X355750Y536751D01*
X368550Y536751D01*
X368588Y536780D01*
G37*
G36*
X342755Y538024D02*
X342755Y538024D01*
X342758Y538021D01*
X343358Y538121D01*
X343399Y538165D01*
X343396Y538168D01*
X343399Y538170D01*
X343399Y588870D01*
X343380Y588896D01*
X343380Y588909D01*
X342980Y589209D01*
X342958Y589209D01*
X342950Y589219D01*
X330050Y589219D01*
X330024Y589200D01*
X330011Y589200D01*
X329711Y588800D01*
X329711Y588778D01*
X329701Y588770D01*
X329701Y538670D01*
X329704Y538665D01*
X329701Y538662D01*
X329801Y538062D01*
X329845Y538021D01*
X329848Y538024D01*
X329850Y538021D01*
X342750Y538021D01*
X342755Y538024D01*
G37*
G36*
X211672Y452782D02*
X211672Y452782D01*
X211674Y452781D01*
X213074Y452881D01*
X213094Y452899D01*
X213107Y452898D01*
X213807Y453698D01*
X213809Y453718D01*
X213819Y453724D01*
X214019Y455324D01*
X214017Y455328D01*
X214017Y455329D01*
X214019Y455330D01*
X214019Y462130D01*
X214016Y462134D01*
X214019Y462137D01*
X213819Y463537D01*
X213812Y463543D01*
X213815Y463549D01*
X213315Y464749D01*
X213306Y464754D01*
X213308Y464761D01*
X212408Y465861D01*
X212403Y465863D01*
X212403Y465867D01*
X211403Y466767D01*
X211395Y466767D01*
X211395Y466773D01*
X210195Y467473D01*
X210185Y467471D01*
X210182Y467478D01*
X208982Y467778D01*
X208976Y467775D01*
X208973Y467779D01*
X207473Y467879D01*
X207467Y467875D01*
X207463Y467879D01*
X206163Y467679D01*
X206156Y467672D01*
X206151Y467675D01*
X204951Y467175D01*
X204947Y467169D01*
X204943Y467171D01*
X203769Y466388D01*
X203295Y466672D01*
X203289Y466672D01*
X203288Y466676D01*
X201988Y467176D01*
X201978Y467173D01*
X201974Y467179D01*
X200674Y467279D01*
X200669Y467276D01*
X200667Y467279D01*
X199267Y467179D01*
X199260Y467173D01*
X199254Y467177D01*
X198054Y466777D01*
X198050Y466770D01*
X198045Y466773D01*
X196845Y466073D01*
X196841Y466062D01*
X196833Y466063D01*
X195933Y465063D01*
X195933Y465055D01*
X195927Y465055D01*
X195227Y463855D01*
X195229Y463844D01*
X195222Y463841D01*
X194922Y462541D01*
X194924Y462536D01*
X194921Y462534D01*
X194821Y461134D01*
X194822Y461131D01*
X194821Y461130D01*
X194821Y455730D01*
X194822Y455728D01*
X194821Y455727D01*
X194921Y454027D01*
X194931Y454015D01*
X194927Y454006D01*
X195427Y453106D01*
X195452Y453095D01*
X195457Y453083D01*
X196557Y452783D01*
X196566Y452786D01*
X196570Y452781D01*
X211670Y452781D01*
X211672Y452782D01*
G37*
G36*
X43400Y122841D02*
X43400Y122841D01*
X43451Y122843D01*
X43483Y122861D01*
X43519Y122869D01*
X43558Y122902D01*
X43603Y122926D01*
X43624Y122956D01*
X43652Y122979D01*
X43673Y123026D01*
X43703Y123068D01*
X43711Y123110D01*
X43723Y123138D01*
X43722Y123168D01*
X43730Y123210D01*
X43730Y123310D01*
X43724Y123336D01*
X43727Y123363D01*
X43705Y123420D01*
X43691Y123479D01*
X43674Y123499D01*
X43664Y123525D01*
X43605Y123583D01*
X43581Y123612D01*
X43571Y123617D01*
X43561Y123626D01*
X43292Y123806D01*
X43019Y124079D01*
X42999Y124091D01*
X42978Y124114D01*
X42600Y124398D01*
X42119Y124879D01*
X42106Y124887D01*
X42093Y124902D01*
X41507Y125391D01*
X40919Y125979D01*
X40896Y125993D01*
X40871Y126019D01*
X40197Y126501D01*
X38919Y127779D01*
X38906Y127787D01*
X38893Y127802D01*
X38323Y128278D01*
X37563Y129228D01*
X37313Y129644D01*
X37230Y130141D01*
X37230Y132010D01*
X37224Y132036D01*
X37225Y132073D01*
X37025Y133273D01*
X37018Y133288D01*
X37017Y133310D01*
X36840Y133958D01*
X36737Y134338D01*
X36717Y134410D01*
X36708Y134427D01*
X36703Y134451D01*
X36303Y135451D01*
X36288Y135473D01*
X36276Y135506D01*
X35676Y136506D01*
X35656Y136526D01*
X35636Y136560D01*
X34936Y137360D01*
X34927Y137367D01*
X34919Y137379D01*
X34119Y138179D01*
X34101Y138190D01*
X34083Y138210D01*
X33183Y138910D01*
X33160Y138921D01*
X33135Y138942D01*
X31335Y139942D01*
X31300Y139952D01*
X31252Y139976D01*
X29452Y140476D01*
X29418Y140478D01*
X29371Y140490D01*
X27571Y140590D01*
X27536Y140583D01*
X27480Y140584D01*
X25880Y140284D01*
X25856Y140273D01*
X25822Y140268D01*
X24422Y139768D01*
X24397Y139752D01*
X24358Y139738D01*
X23158Y139038D01*
X23136Y139017D01*
X23097Y138994D01*
X22197Y138194D01*
X22194Y138190D01*
X22110Y138080D01*
X21710Y137280D01*
X21698Y137230D01*
X21677Y137182D01*
X21678Y137147D01*
X21670Y137112D01*
X21681Y137061D01*
X21683Y137009D01*
X21701Y136978D01*
X21709Y136943D01*
X21741Y136903D01*
X21766Y136857D01*
X21795Y136836D01*
X21818Y136809D01*
X21865Y136787D01*
X21908Y136757D01*
X21949Y136749D01*
X21976Y136737D01*
X22007Y136738D01*
X22050Y136730D01*
X22788Y136730D01*
X23206Y136591D01*
X23305Y136442D01*
X23370Y136248D01*
X23370Y135700D01*
X23021Y135001D01*
X22839Y134730D01*
X22546Y134338D01*
X22542Y134329D01*
X22534Y134321D01*
X22355Y134052D01*
X22125Y133823D01*
X22115Y133818D01*
X21780Y133650D01*
X21764Y133637D01*
X21739Y133626D01*
X21494Y133463D01*
X21158Y133379D01*
X21146Y133373D01*
X21130Y133371D01*
X20950Y133311D01*
X20796Y133362D01*
X20620Y133450D01*
X20597Y133456D01*
X20570Y133471D01*
X20319Y133555D01*
X20115Y133690D01*
X19875Y134011D01*
X19713Y134334D01*
X19623Y134785D01*
X19619Y134792D01*
X19619Y134802D01*
X19530Y135157D01*
X19530Y135348D01*
X19611Y135590D01*
X19614Y135627D01*
X19630Y135710D01*
X19630Y136010D01*
X19624Y136035D01*
X19627Y136061D01*
X19605Y136119D01*
X19591Y136179D01*
X19574Y136199D01*
X19565Y136223D01*
X19520Y136265D01*
X19481Y136312D01*
X19457Y136323D01*
X19438Y136340D01*
X19379Y136358D01*
X19322Y136383D01*
X19297Y136382D01*
X19272Y136390D01*
X19211Y136379D01*
X19149Y136377D01*
X19127Y136364D01*
X19101Y136360D01*
X19030Y136312D01*
X18997Y136294D01*
X18991Y136286D01*
X18981Y136279D01*
X18881Y136179D01*
X18869Y136159D01*
X18846Y136138D01*
X18546Y135738D01*
X18534Y135712D01*
X18510Y135680D01*
X18210Y135080D01*
X18206Y135063D01*
X18194Y135044D01*
X17894Y134244D01*
X17893Y134237D01*
X17889Y134230D01*
X17589Y133330D01*
X17586Y133292D01*
X17570Y133210D01*
X17570Y132210D01*
X17576Y132182D01*
X17576Y132142D01*
X17776Y131042D01*
X17791Y131007D01*
X17816Y130928D01*
X18416Y129828D01*
X18439Y129802D01*
X18466Y129757D01*
X19266Y128857D01*
X19294Y128838D01*
X19329Y128801D01*
X20029Y128301D01*
X20065Y128286D01*
X20130Y128249D01*
X21030Y127949D01*
X21067Y127946D01*
X21150Y127930D01*
X21950Y127930D01*
X21983Y127937D01*
X22033Y127939D01*
X22933Y128139D01*
X22968Y128156D01*
X23035Y128178D01*
X23935Y128678D01*
X23959Y128700D01*
X24000Y128724D01*
X24800Y129424D01*
X24801Y129425D01*
X24803Y129426D01*
X25700Y130224D01*
X26455Y130884D01*
X27028Y131130D01*
X27588Y131130D01*
X28065Y130971D01*
X28466Y130650D01*
X28797Y130154D01*
X28970Y129463D01*
X28970Y128748D01*
X28884Y128319D01*
X28712Y127888D01*
X28555Y127652D01*
X28325Y127423D01*
X28186Y127353D01*
X28004Y127262D01*
X27788Y127190D01*
X27612Y127190D01*
X27419Y127255D01*
X27192Y127406D01*
X26882Y127715D01*
X26811Y127930D01*
X26798Y127950D01*
X26790Y127980D01*
X26590Y128380D01*
X26566Y128409D01*
X26519Y128479D01*
X26419Y128579D01*
X26398Y128592D01*
X26382Y128611D01*
X26325Y128637D01*
X26272Y128670D01*
X26247Y128673D01*
X26224Y128683D01*
X26161Y128681D01*
X26099Y128687D01*
X26076Y128678D01*
X26051Y128677D01*
X25996Y128647D01*
X25937Y128625D01*
X25920Y128607D01*
X25898Y128595D01*
X25844Y128525D01*
X25820Y128498D01*
X25817Y128489D01*
X25810Y128480D01*
X25710Y128280D01*
X25706Y128265D01*
X25697Y128252D01*
X25671Y128118D01*
X25670Y128112D01*
X25670Y128111D01*
X25670Y128110D01*
X25670Y127957D01*
X25581Y127602D01*
X25581Y127566D01*
X25570Y127510D01*
X25570Y126710D01*
X25576Y126684D01*
X25575Y126648D01*
X25675Y126048D01*
X25688Y126017D01*
X25697Y125969D01*
X26097Y124969D01*
X26119Y124938D01*
X26146Y124882D01*
X26434Y124498D01*
X26724Y124014D01*
X26738Y124000D01*
X26747Y123981D01*
X26824Y123911D01*
X26845Y123890D01*
X26850Y123888D01*
X26854Y123884D01*
X27354Y123584D01*
X27367Y123580D01*
X27380Y123570D01*
X27980Y123270D01*
X28003Y123264D01*
X28030Y123249D01*
X28630Y123049D01*
X28663Y123046D01*
X28708Y123032D01*
X30508Y122832D01*
X30527Y122834D01*
X30550Y122830D01*
X43350Y122830D01*
X43400Y122841D01*
G37*
G36*
X65460Y73332D02*
X65460Y73332D01*
X65470Y73330D01*
X65544Y73352D01*
X65619Y73369D01*
X65627Y73376D01*
X65637Y73379D01*
X65747Y73472D01*
X66134Y73956D01*
X67019Y74841D01*
X67029Y74857D01*
X67047Y74872D01*
X68234Y76356D01*
X69119Y77241D01*
X69132Y77263D01*
X69152Y77279D01*
X69178Y77336D01*
X69210Y77388D01*
X69213Y77414D01*
X69223Y77438D01*
X69221Y77499D01*
X69227Y77561D01*
X69218Y77585D01*
X69217Y77611D01*
X69187Y77665D01*
X69165Y77723D01*
X69146Y77740D01*
X69134Y77763D01*
X69084Y77798D01*
X69038Y77840D01*
X69013Y77848D01*
X68992Y77863D01*
X68908Y77879D01*
X68872Y77890D01*
X68862Y77888D01*
X68850Y77890D01*
X59609Y77890D01*
X59888Y78113D01*
X59905Y78136D01*
X59976Y78214D01*
X60576Y79214D01*
X60580Y79227D01*
X60590Y79240D01*
X60890Y79840D01*
X60899Y79878D01*
X60925Y79948D01*
X61225Y81748D01*
X61223Y81786D01*
X61227Y81860D01*
X61027Y83360D01*
X61016Y83388D01*
X61011Y83430D01*
X60611Y84630D01*
X60590Y84663D01*
X60558Y84734D01*
X59758Y85834D01*
X59738Y85851D01*
X59719Y85879D01*
X58819Y86779D01*
X58786Y86799D01*
X58732Y86844D01*
X57632Y87444D01*
X57615Y87449D01*
X57596Y87461D01*
X56396Y87961D01*
X56369Y87966D01*
X56336Y87981D01*
X55036Y88281D01*
X55010Y88280D01*
X54977Y88289D01*
X53577Y88389D01*
X53554Y88386D01*
X53525Y88389D01*
X52025Y88289D01*
X52002Y88282D01*
X51970Y88282D01*
X50570Y87982D01*
X50557Y87975D01*
X50538Y87973D01*
X49238Y87573D01*
X49205Y87554D01*
X49146Y87531D01*
X48046Y86831D01*
X48027Y86811D01*
X47996Y86793D01*
X46996Y85893D01*
X46974Y85861D01*
X46929Y85814D01*
X46229Y84714D01*
X46218Y84682D01*
X46192Y84638D01*
X45692Y83238D01*
X45688Y83199D01*
X45671Y83135D01*
X45571Y81635D01*
X45572Y81624D01*
X45570Y81610D01*
X45570Y80910D01*
X45576Y80884D01*
X45575Y80848D01*
X45775Y79648D01*
X45780Y79636D01*
X45824Y79514D01*
X46424Y78514D01*
X46440Y78498D01*
X46453Y78472D01*
X46853Y77972D01*
X46868Y77961D01*
X46881Y77941D01*
X47032Y77790D01*
X46250Y77790D01*
X46249Y77790D01*
X46248Y77790D01*
X46165Y77770D01*
X46081Y77751D01*
X46080Y77750D01*
X46079Y77750D01*
X46015Y77696D01*
X45948Y77641D01*
X45947Y77640D01*
X45946Y77639D01*
X45911Y77560D01*
X45877Y77482D01*
X45877Y77481D01*
X45876Y77480D01*
X45877Y77335D01*
X46077Y76335D01*
X46081Y76328D01*
X46081Y76318D01*
X46179Y75927D01*
X46277Y75435D01*
X46281Y75428D01*
X46281Y75418D01*
X46370Y75063D01*
X46370Y74610D01*
X46377Y74580D01*
X46377Y74535D01*
X46477Y74035D01*
X46481Y74028D01*
X46481Y74018D01*
X46581Y73618D01*
X46583Y73614D01*
X46583Y73609D01*
X46623Y73537D01*
X46660Y73464D01*
X46664Y73461D01*
X46666Y73457D01*
X46733Y73410D01*
X46800Y73361D01*
X46804Y73360D01*
X46808Y73357D01*
X46950Y73330D01*
X65450Y73330D01*
X65460Y73332D01*
G37*
G36*
X211872Y425283D02*
X211872Y425283D01*
X211874Y425281D01*
X213174Y425381D01*
X213195Y425400D01*
X213209Y425400D01*
X213909Y426300D01*
X213909Y426321D01*
X213919Y426327D01*
X214019Y428127D01*
X214010Y428140D01*
X214015Y428149D01*
X213515Y429349D01*
X213492Y429363D01*
X213488Y429376D01*
X212488Y429776D01*
X212475Y429772D01*
X212470Y429779D01*
X204372Y429779D01*
X203301Y429869D01*
X206200Y432091D01*
X212700Y436991D01*
X212701Y436996D01*
X212705Y436995D01*
X213805Y438095D01*
X213807Y438113D01*
X213818Y438122D01*
X213819Y438123D01*
X214019Y439423D01*
X214014Y439431D01*
X214019Y439436D01*
X213819Y441036D01*
X213800Y441055D01*
X213800Y441069D01*
X212900Y441769D01*
X212883Y441769D01*
X212878Y441779D01*
X211578Y441979D01*
X211573Y441977D01*
X211572Y441977D01*
X211570Y441979D01*
X196670Y441979D01*
X196666Y441977D01*
X196662Y441977D01*
X196658Y441974D01*
X196654Y441977D01*
X195454Y441577D01*
X195440Y441556D01*
X195427Y441554D01*
X194827Y440454D01*
X194829Y440437D01*
X194821Y440430D01*
X194821Y439030D01*
X194827Y439021D01*
X194823Y439016D01*
X195223Y437716D01*
X195249Y437697D01*
X195253Y437684D01*
X196353Y437284D01*
X196365Y437287D01*
X196370Y437281D01*
X205819Y437281D01*
X203741Y435770D01*
X203741Y435769D01*
X203740Y435769D01*
X201740Y434269D01*
X196241Y430170D01*
X196240Y430166D01*
X196237Y430167D01*
X195237Y429267D01*
X195234Y429248D01*
X195223Y429244D01*
X194823Y427944D01*
X194827Y427932D01*
X194821Y427927D01*
X194921Y426527D01*
X194932Y426514D01*
X194928Y426504D01*
X195628Y425404D01*
X195659Y425392D01*
X195666Y425381D01*
X196966Y425281D01*
X196969Y425283D01*
X196970Y425281D01*
X211870Y425281D01*
X211872Y425283D01*
G37*
G36*
X211676Y401391D02*
X211676Y401391D01*
X211687Y401384D01*
X212787Y401784D01*
X212800Y401804D01*
X212813Y401806D01*
X213613Y403206D01*
X213612Y403213D01*
X213617Y403214D01*
X214017Y404414D01*
X214015Y404421D01*
X214014Y404422D01*
X214007Y404442D01*
X214013Y404455D01*
X213313Y405655D01*
X213294Y405662D01*
X213292Y405674D01*
X210892Y406874D01*
X210891Y406874D01*
X210891Y406875D01*
X209619Y407462D01*
X209619Y414156D01*
X209689Y414184D01*
X209695Y414195D01*
X209703Y414193D01*
X210598Y414989D01*
X211792Y415586D01*
X213091Y416185D01*
X213098Y416200D01*
X213108Y416199D01*
X213908Y417199D01*
X213909Y417220D01*
X213917Y417226D01*
X213914Y417230D01*
X213919Y417234D01*
X213819Y418434D01*
X213810Y418445D01*
X213813Y418453D01*
X213013Y419953D01*
X212997Y419961D01*
X212995Y419972D01*
X211995Y420572D01*
X211969Y420569D01*
X211958Y420578D01*
X210758Y420278D01*
X210754Y420272D01*
X210749Y420275D01*
X209449Y419675D01*
X209449Y419674D01*
X195949Y413174D01*
X195945Y413168D01*
X195940Y413169D01*
X195140Y412569D01*
X195136Y412555D01*
X195127Y412554D01*
X194527Y411454D01*
X194528Y411445D01*
X194523Y411441D01*
X194530Y411432D01*
X194521Y411423D01*
X194721Y410123D01*
X194735Y410110D01*
X194732Y410099D01*
X195632Y408999D01*
X195646Y408995D01*
X195648Y408986D01*
X196848Y408386D01*
X210348Y401786D01*
X210354Y401787D01*
X210356Y401783D01*
X211656Y401383D01*
X211676Y401391D01*
G37*
G36*
X56592Y88736D02*
X56592Y88736D01*
X56725Y88737D01*
X57188Y88830D01*
X57650Y88830D01*
X57665Y88833D01*
X57680Y88831D01*
X57812Y88868D01*
X57819Y88869D01*
X57819Y88870D01*
X57820Y88870D01*
X58174Y89047D01*
X58625Y89137D01*
X58626Y89138D01*
X58627Y89138D01*
X58761Y89194D01*
X59061Y89394D01*
X59068Y89401D01*
X59078Y89406D01*
X59470Y89699D01*
X59761Y89894D01*
X59782Y89917D01*
X59819Y89941D01*
X60119Y90241D01*
X60139Y90273D01*
X60190Y90340D01*
X60380Y90719D01*
X60566Y90999D01*
X60574Y91019D01*
X60590Y91040D01*
X60790Y91440D01*
X60793Y91454D01*
X60803Y91469D01*
X61003Y91969D01*
X61006Y91991D01*
X61019Y92018D01*
X61119Y92418D01*
X61119Y92451D01*
X61123Y92460D01*
X61123Y92472D01*
X61130Y92510D01*
X61130Y92972D01*
X61223Y93435D01*
X61222Y93467D01*
X61230Y93510D01*
X61230Y94610D01*
X61222Y94647D01*
X61211Y94730D01*
X61130Y94972D01*
X61130Y95310D01*
X61122Y95347D01*
X61111Y95430D01*
X61030Y95672D01*
X61030Y95910D01*
X61022Y95947D01*
X61011Y96030D01*
X60611Y97230D01*
X60591Y97263D01*
X60566Y97321D01*
X60395Y97579D01*
X60311Y97830D01*
X60291Y97863D01*
X60266Y97921D01*
X60066Y98221D01*
X60044Y98242D01*
X60019Y98279D01*
X59882Y98416D01*
X59902Y98430D01*
X60050Y98430D01*
X60124Y98447D01*
X60199Y98460D01*
X60209Y98467D01*
X60219Y98469D01*
X60248Y98493D01*
X60319Y98541D01*
X60325Y98547D01*
X60399Y98560D01*
X60409Y98567D01*
X60419Y98569D01*
X60448Y98593D01*
X60519Y98641D01*
X60520Y98642D01*
X60551Y98643D01*
X60583Y98661D01*
X60619Y98669D01*
X60658Y98702D01*
X60703Y98726D01*
X60724Y98756D01*
X60752Y98779D01*
X60773Y98826D01*
X60803Y98868D01*
X60811Y98910D01*
X60823Y98938D01*
X60822Y98968D01*
X60830Y99010D01*
X60830Y102910D01*
X60819Y102960D01*
X60817Y103011D01*
X60799Y103043D01*
X60791Y103079D01*
X60758Y103118D01*
X60734Y103163D01*
X60704Y103184D01*
X60681Y103212D01*
X60634Y103233D01*
X60592Y103263D01*
X60550Y103271D01*
X60522Y103283D01*
X60492Y103282D01*
X60450Y103290D01*
X60350Y103290D01*
X60276Y103273D01*
X60201Y103260D01*
X60191Y103253D01*
X60181Y103251D01*
X60152Y103227D01*
X60081Y103179D01*
X60025Y103123D01*
X59960Y103090D01*
X59750Y103090D01*
X59735Y103087D01*
X59720Y103089D01*
X59588Y103052D01*
X59581Y103051D01*
X59581Y103050D01*
X59580Y103050D01*
X59460Y102990D01*
X59350Y102990D01*
X59335Y102987D01*
X59320Y102989D01*
X59188Y102952D01*
X59181Y102951D01*
X59181Y102950D01*
X59180Y102950D01*
X59060Y102890D01*
X58250Y102890D01*
X58235Y102887D01*
X58220Y102889D01*
X58088Y102852D01*
X58081Y102851D01*
X58081Y102850D01*
X58080Y102850D01*
X57960Y102790D01*
X49350Y102790D01*
X49320Y102783D01*
X49275Y102783D01*
X48775Y102683D01*
X48749Y102671D01*
X48709Y102663D01*
X48209Y102463D01*
X48197Y102455D01*
X48180Y102450D01*
X48038Y102379D01*
X47780Y102250D01*
X47758Y102232D01*
X47722Y102214D01*
X47322Y101914D01*
X47297Y101884D01*
X47246Y101838D01*
X46346Y100638D01*
X46331Y100603D01*
X46297Y100551D01*
X46097Y100051D01*
X46093Y100022D01*
X46077Y99985D01*
X45984Y99519D01*
X45797Y99051D01*
X45793Y99022D01*
X45777Y98985D01*
X45677Y98485D01*
X45678Y98453D01*
X45670Y98410D01*
X45670Y97848D01*
X45577Y97385D01*
X45578Y97353D01*
X45570Y97310D01*
X45570Y95010D01*
X45577Y94980D01*
X45577Y94935D01*
X45676Y94441D01*
X45775Y93848D01*
X45785Y93824D01*
X45789Y93790D01*
X45982Y93212D01*
X46077Y92735D01*
X46089Y92709D01*
X46097Y92669D01*
X46297Y92169D01*
X46312Y92147D01*
X46324Y92114D01*
X46924Y91114D01*
X46936Y91102D01*
X46946Y91082D01*
X47246Y90682D01*
X47276Y90657D01*
X47322Y90606D01*
X47722Y90306D01*
X47738Y90299D01*
X47754Y90284D01*
X48238Y89994D01*
X48622Y89706D01*
X48656Y89691D01*
X48730Y89649D01*
X49330Y89449D01*
X49355Y89447D01*
X49388Y89435D01*
X50588Y89235D01*
X50669Y89240D01*
X50751Y89243D01*
X50755Y89246D01*
X50760Y89246D01*
X50831Y89287D01*
X50903Y89326D01*
X50906Y89330D01*
X50910Y89333D01*
X50956Y89401D01*
X51003Y89468D01*
X51004Y89473D01*
X51006Y89477D01*
X51010Y89505D01*
X51030Y89610D01*
X51030Y93510D01*
X51019Y93560D01*
X51017Y93611D01*
X50999Y93643D01*
X50991Y93679D01*
X50958Y93718D01*
X50934Y93763D01*
X50904Y93784D01*
X50881Y93812D01*
X50834Y93833D01*
X50792Y93863D01*
X50750Y93871D01*
X50722Y93883D01*
X50692Y93882D01*
X50650Y93890D01*
X50240Y93890D01*
X50120Y93950D01*
X50097Y93956D01*
X50070Y93971D01*
X49796Y94062D01*
X49675Y94123D01*
X49363Y94435D01*
X48930Y95300D01*
X48930Y96920D01*
X48990Y97040D01*
X48994Y97055D01*
X49003Y97068D01*
X49029Y97202D01*
X49030Y97209D01*
X49030Y97210D01*
X49030Y97320D01*
X49233Y97727D01*
X49320Y97770D01*
X49349Y97794D01*
X49419Y97841D01*
X49475Y97898D01*
X49940Y98130D01*
X50823Y98130D01*
X51062Y97951D01*
X51302Y97550D01*
X51487Y96997D01*
X51677Y96331D01*
X51773Y95662D01*
X51972Y93868D01*
X52072Y92968D01*
X52080Y92947D01*
X52081Y92918D01*
X52281Y92118D01*
X52290Y92101D01*
X52294Y92077D01*
X52594Y91277D01*
X52609Y91255D01*
X52620Y91221D01*
X53020Y90521D01*
X53040Y90499D01*
X53061Y90463D01*
X53661Y89763D01*
X53688Y89743D01*
X53761Y89680D01*
X54461Y89280D01*
X54491Y89271D01*
X54530Y89249D01*
X55430Y88949D01*
X55453Y88947D01*
X55482Y88936D01*
X56582Y88736D01*
X56592Y88736D01*
G37*
G36*
X60500Y114841D02*
X60500Y114841D01*
X60551Y114843D01*
X60583Y114861D01*
X60619Y114869D01*
X60658Y114902D01*
X60703Y114926D01*
X60724Y114956D01*
X60752Y114979D01*
X60773Y115026D01*
X60803Y115068D01*
X60811Y115110D01*
X60823Y115138D01*
X60822Y115168D01*
X60830Y115210D01*
X60830Y119110D01*
X60819Y119160D01*
X60817Y119211D01*
X60799Y119243D01*
X60791Y119279D01*
X60758Y119318D01*
X60734Y119363D01*
X60704Y119384D01*
X60681Y119412D01*
X60634Y119433D01*
X60592Y119463D01*
X60550Y119471D01*
X60522Y119483D01*
X60492Y119482D01*
X60450Y119490D01*
X55715Y119490D01*
X54744Y120531D01*
X60650Y124187D01*
X60674Y124210D01*
X60703Y124226D01*
X60734Y124271D01*
X60773Y124309D01*
X60784Y124341D01*
X60803Y124368D01*
X60816Y124436D01*
X60828Y124473D01*
X60826Y124490D01*
X60830Y124510D01*
X60830Y129210D01*
X60814Y129282D01*
X60802Y129354D01*
X60794Y129365D01*
X60791Y129379D01*
X60744Y129435D01*
X60701Y129495D01*
X60689Y129502D01*
X60681Y129512D01*
X60614Y129542D01*
X60549Y129577D01*
X60535Y129578D01*
X60522Y129583D01*
X60449Y129580D01*
X60376Y129583D01*
X60362Y129577D01*
X60349Y129577D01*
X60315Y129558D01*
X60242Y129528D01*
X51503Y123799D01*
X46521Y128876D01*
X46498Y128891D01*
X46481Y128912D01*
X46426Y128937D01*
X46375Y128969D01*
X46348Y128972D01*
X46322Y128983D01*
X46263Y128981D01*
X46203Y128987D01*
X46177Y128978D01*
X46149Y128977D01*
X46097Y128948D01*
X46040Y128927D01*
X46021Y128907D01*
X45997Y128894D01*
X45963Y128845D01*
X45921Y128801D01*
X45913Y128775D01*
X45897Y128752D01*
X45882Y128672D01*
X45871Y128636D01*
X45873Y128624D01*
X45870Y128610D01*
X45870Y124010D01*
X45888Y123932D01*
X45903Y123854D01*
X45908Y123848D01*
X45909Y123841D01*
X45930Y123816D01*
X45987Y123736D01*
X50405Y119490D01*
X40950Y119490D01*
X40894Y119477D01*
X40837Y119473D01*
X40811Y119458D01*
X40781Y119451D01*
X40737Y119414D01*
X40688Y119385D01*
X40671Y119360D01*
X40648Y119341D01*
X40624Y119288D01*
X40593Y119240D01*
X40589Y119210D01*
X40577Y119182D01*
X40579Y119125D01*
X40572Y119068D01*
X40582Y119035D01*
X40583Y119009D01*
X40600Y118979D01*
X40615Y118930D01*
X42715Y115030D01*
X42745Y114996D01*
X42766Y114957D01*
X42801Y114932D01*
X42830Y114900D01*
X42871Y114883D01*
X42908Y114857D01*
X42958Y114848D01*
X42990Y114834D01*
X43016Y114836D01*
X43050Y114830D01*
X60450Y114830D01*
X60500Y114841D01*
G37*
G36*
X204673Y381185D02*
X204673Y381185D01*
X204677Y381181D01*
X206077Y381381D01*
X206080Y381384D01*
X206082Y381382D01*
X207282Y381682D01*
X207286Y381688D01*
X207291Y381685D01*
X208591Y382285D01*
X208591Y382286D01*
X208592Y382286D01*
X209792Y382886D01*
X209796Y382895D01*
X209803Y382893D01*
X210803Y383793D01*
X210804Y383797D01*
X210807Y383797D01*
X211707Y384797D01*
X211707Y384801D01*
X211710Y384801D01*
X212510Y385901D01*
X212510Y385907D01*
X212514Y385908D01*
X213114Y387108D01*
X213114Y387111D01*
X213115Y387111D01*
X213615Y388311D01*
X213614Y388318D01*
X213618Y388320D01*
X213918Y389720D01*
X213916Y389724D01*
X213919Y389726D01*
X214019Y391026D01*
X214016Y391031D01*
X214019Y391034D01*
X213919Y392334D01*
X213915Y392338D01*
X213918Y392341D01*
X213618Y393641D01*
X213615Y393643D01*
X213617Y393646D01*
X213117Y395146D01*
X213110Y395150D01*
X213112Y395155D01*
X212512Y396155D01*
X212508Y396157D01*
X212508Y396161D01*
X211708Y397161D01*
X211689Y397166D01*
X211686Y397177D01*
X210486Y397577D01*
X210459Y397568D01*
X210447Y397573D01*
X209147Y396873D01*
X209143Y396865D01*
X209137Y396866D01*
X208037Y395866D01*
X208032Y395842D01*
X208021Y395835D01*
X207921Y394935D01*
X207932Y394918D01*
X207927Y394907D01*
X208625Y393609D01*
X209122Y392317D01*
X209320Y391030D01*
X209122Y389743D01*
X208626Y388553D01*
X207833Y387364D01*
X206845Y386573D01*
X205657Y386078D01*
X204270Y385880D01*
X202881Y386078D01*
X201693Y386474D01*
X200606Y387265D01*
X199814Y388453D01*
X199318Y389643D01*
X199120Y390932D01*
X199219Y392318D01*
X199714Y393508D01*
X200512Y394804D01*
X200512Y394809D01*
X200513Y394810D01*
X200511Y394812D01*
X200510Y394827D01*
X200519Y394835D01*
X200419Y395735D01*
X200404Y395751D01*
X200407Y395763D01*
X199507Y396763D01*
X199497Y396765D01*
X199496Y396772D01*
X198196Y397572D01*
X198174Y397570D01*
X198166Y397579D01*
X196966Y397479D01*
X196947Y397462D01*
X196933Y397463D01*
X196033Y396463D01*
X196033Y396457D01*
X196028Y396456D01*
X195328Y395356D01*
X195329Y395350D01*
X195325Y395349D01*
X194825Y394149D01*
X194825Y394147D01*
X194824Y394147D01*
X194826Y394145D01*
X194826Y394142D01*
X194822Y394140D01*
X194522Y392640D01*
X194524Y392636D01*
X194521Y392634D01*
X194421Y391334D01*
X194423Y391331D01*
X194421Y391330D01*
X194421Y390030D01*
X194426Y390023D01*
X194422Y390019D01*
X194722Y388719D01*
X194724Y388717D01*
X194723Y388716D01*
X195123Y387416D01*
X195126Y387413D01*
X195125Y387411D01*
X195625Y386211D01*
X195631Y386207D01*
X195629Y386203D01*
X196429Y385003D01*
X196432Y385002D01*
X196432Y384999D01*
X197232Y383999D01*
X197237Y383998D01*
X197237Y383993D01*
X198237Y383093D01*
X198243Y383093D01*
X198244Y383088D01*
X199344Y382388D01*
X199349Y382389D01*
X199349Y382385D01*
X200649Y381785D01*
X200653Y381786D01*
X200654Y381783D01*
X201854Y381383D01*
X201863Y381386D01*
X201867Y381381D01*
X204667Y381181D01*
X204673Y381185D01*
G37*
G36*
X186172Y381582D02*
X186172Y381582D01*
X186174Y381581D01*
X187574Y381681D01*
X187592Y381697D01*
X187605Y381695D01*
X188305Y382395D01*
X188308Y382416D01*
X188319Y382421D01*
X188619Y384121D01*
X188612Y384134D01*
X188618Y384140D01*
X188318Y385540D01*
X188297Y385559D01*
X188295Y385572D01*
X187295Y386172D01*
X187279Y386170D01*
X187274Y386179D01*
X185974Y386279D01*
X185971Y386278D01*
X185970Y386279D01*
X181899Y386279D01*
X181419Y387143D01*
X181419Y391230D01*
X181418Y391232D01*
X181419Y391234D01*
X181319Y392634D01*
X181302Y392654D01*
X181302Y392667D01*
X180502Y393367D01*
X180482Y393369D01*
X180476Y393379D01*
X178876Y393579D01*
X178866Y393573D01*
X178860Y393578D01*
X177460Y393278D01*
X177444Y393260D01*
X177431Y393260D01*
X176731Y392360D01*
X176731Y392338D01*
X176721Y392330D01*
X176721Y386950D01*
X176050Y386279D01*
X174695Y386279D01*
X174119Y387046D01*
X174119Y395130D01*
X174108Y395146D01*
X174112Y395156D01*
X173412Y396256D01*
X173387Y396266D01*
X173381Y396278D01*
X172081Y396578D01*
X172071Y396574D01*
X172067Y396579D01*
X170667Y396479D01*
X170649Y396464D01*
X170637Y396467D01*
X169637Y395567D01*
X169633Y395544D01*
X169621Y395538D01*
X169421Y394238D01*
X169424Y394232D01*
X169421Y394230D01*
X169421Y383230D01*
X169430Y383218D01*
X169425Y383210D01*
X169925Y382110D01*
X169949Y382097D01*
X169953Y382084D01*
X171053Y381684D01*
X171063Y381687D01*
X171067Y381681D01*
X172567Y381581D01*
X172569Y381582D01*
X172570Y381581D01*
X186170Y381581D01*
X186172Y381582D01*
G37*
G36*
X181172Y475182D02*
X181172Y475182D01*
X181174Y475181D01*
X182574Y475281D01*
X182580Y475286D01*
X182584Y475283D01*
X183884Y475683D01*
X183888Y475688D01*
X183892Y475686D01*
X185092Y476286D01*
X185095Y476291D01*
X185099Y476290D01*
X186199Y477090D01*
X186201Y477098D01*
X186207Y477097D01*
X187107Y478097D01*
X187107Y478103D01*
X187112Y478104D01*
X187812Y479204D01*
X187807Y479263D01*
X187797Y479262D01*
X187796Y479272D01*
X187766Y479290D01*
X187804Y479295D01*
X187803Y479308D01*
X187815Y479311D01*
X188315Y480511D01*
X188314Y480518D01*
X188318Y480520D01*
X188618Y481920D01*
X188614Y481929D01*
X188619Y481934D01*
X188519Y483234D01*
X188515Y483238D01*
X188518Y483241D01*
X188218Y484541D01*
X188214Y484544D01*
X188216Y484548D01*
X187716Y485848D01*
X187710Y485852D01*
X187712Y485856D01*
X187012Y486956D01*
X187002Y486960D01*
X187003Y486967D01*
X186003Y487867D01*
X185999Y487867D01*
X185999Y487870D01*
X184899Y488670D01*
X184890Y488670D01*
X184888Y488676D01*
X183588Y489176D01*
X183583Y489175D01*
X183581Y489178D01*
X182281Y489478D01*
X182274Y489475D01*
X182270Y489479D01*
X180870Y489479D01*
X180866Y489476D01*
X180863Y489479D01*
X179463Y489279D01*
X179459Y489275D01*
X179456Y489277D01*
X178156Y488877D01*
X178150Y488869D01*
X178144Y488872D01*
X177044Y488172D01*
X177041Y488164D01*
X177035Y488165D01*
X176035Y487165D01*
X176034Y487159D01*
X176030Y487159D01*
X175230Y486059D01*
X175230Y486050D01*
X175225Y486049D01*
X174725Y484849D01*
X174725Y484848D01*
X174724Y484847D01*
X174725Y484845D01*
X174723Y484844D01*
X174323Y483544D01*
X174327Y483534D01*
X174321Y483530D01*
X174321Y482130D01*
X174323Y482128D01*
X174321Y482126D01*
X174421Y480826D01*
X174426Y480820D01*
X174423Y480816D01*
X174823Y479516D01*
X174830Y479511D01*
X174827Y479505D01*
X175527Y478305D01*
X175534Y478302D01*
X175533Y478297D01*
X176433Y477298D01*
X178233Y475198D01*
X178262Y475192D01*
X178270Y475181D01*
X181170Y475181D01*
X181172Y475182D01*
G37*
G36*
X60500Y154241D02*
X60500Y154241D01*
X60551Y154243D01*
X60583Y154261D01*
X60619Y154269D01*
X60658Y154302D01*
X60703Y154326D01*
X60724Y154356D01*
X60752Y154379D01*
X60773Y154426D01*
X60803Y154468D01*
X60811Y154510D01*
X60823Y154538D01*
X60822Y154568D01*
X60830Y154610D01*
X60830Y158510D01*
X60819Y158560D01*
X60817Y158611D01*
X60799Y158643D01*
X60791Y158679D01*
X60758Y158718D01*
X60734Y158763D01*
X60704Y158784D01*
X60681Y158812D01*
X60634Y158833D01*
X60592Y158863D01*
X60550Y158871D01*
X60522Y158883D01*
X60492Y158882D01*
X60450Y158890D01*
X52071Y158890D01*
X51248Y158982D01*
X50624Y159249D01*
X50168Y159523D01*
X49741Y159864D01*
X49513Y160244D01*
X49426Y160765D01*
X49334Y161502D01*
X49424Y162041D01*
X49510Y162471D01*
X49738Y162851D01*
X50062Y163094D01*
X50484Y163347D01*
X51007Y163434D01*
X51701Y163533D01*
X52474Y163630D01*
X60450Y163630D01*
X60500Y163641D01*
X60551Y163643D01*
X60583Y163661D01*
X60619Y163669D01*
X60658Y163702D01*
X60703Y163726D01*
X60724Y163756D01*
X60752Y163779D01*
X60773Y163826D01*
X60803Y163868D01*
X60811Y163910D01*
X60823Y163938D01*
X60822Y163968D01*
X60830Y164010D01*
X60830Y167910D01*
X60819Y167960D01*
X60817Y168011D01*
X60799Y168043D01*
X60791Y168079D01*
X60758Y168118D01*
X60734Y168163D01*
X60704Y168184D01*
X60681Y168212D01*
X60634Y168233D01*
X60592Y168263D01*
X60550Y168271D01*
X60522Y168283D01*
X60492Y168282D01*
X60450Y168290D01*
X51750Y168290D01*
X51737Y168287D01*
X51721Y168289D01*
X50421Y168189D01*
X50404Y168184D01*
X50382Y168184D01*
X49282Y167984D01*
X49265Y167977D01*
X49241Y167974D01*
X48241Y167674D01*
X48208Y167655D01*
X48148Y167632D01*
X47348Y167132D01*
X47324Y167108D01*
X47281Y167079D01*
X46581Y166379D01*
X46561Y166346D01*
X46518Y166295D01*
X46018Y165395D01*
X46008Y165360D01*
X45983Y165310D01*
X45683Y164210D01*
X45683Y164198D01*
X45678Y164189D01*
X45679Y164169D01*
X45671Y164137D01*
X45571Y162737D01*
X45573Y162725D01*
X45570Y162710D01*
X45570Y162110D01*
X45576Y162084D01*
X45575Y162048D01*
X45675Y161448D01*
X45685Y161424D01*
X45689Y161390D01*
X46089Y160190D01*
X46109Y160157D01*
X46134Y160099D01*
X46534Y159499D01*
X46544Y159489D01*
X46553Y159472D01*
X46953Y158972D01*
X46968Y158961D01*
X46981Y158941D01*
X47232Y158690D01*
X46250Y158690D01*
X46200Y158679D01*
X46149Y158677D01*
X46117Y158659D01*
X46081Y158651D01*
X46042Y158618D01*
X45997Y158594D01*
X45976Y158564D01*
X45948Y158541D01*
X45927Y158494D01*
X45897Y158452D01*
X45889Y158410D01*
X45877Y158382D01*
X45878Y158352D01*
X45870Y158310D01*
X45870Y154610D01*
X45881Y154560D01*
X45883Y154509D01*
X45901Y154477D01*
X45909Y154441D01*
X45942Y154402D01*
X45966Y154357D01*
X45996Y154336D01*
X46019Y154308D01*
X46066Y154287D01*
X46108Y154257D01*
X46150Y154249D01*
X46178Y154237D01*
X46208Y154238D01*
X46250Y154230D01*
X60450Y154230D01*
X60500Y154241D01*
G37*
G36*
X56278Y138936D02*
X56278Y138936D01*
X56318Y138936D01*
X57418Y139136D01*
X57435Y139143D01*
X57459Y139146D01*
X58459Y139446D01*
X58488Y139462D01*
X58535Y139478D01*
X59435Y139978D01*
X59456Y139997D01*
X59539Y140063D01*
X60139Y140763D01*
X60153Y140791D01*
X60182Y140825D01*
X60682Y141725D01*
X60690Y141750D01*
X60707Y141780D01*
X61107Y142880D01*
X61112Y142919D01*
X61129Y142983D01*
X61229Y144383D01*
X61224Y144418D01*
X61225Y144473D01*
X61126Y145067D01*
X61026Y145764D01*
X61016Y145791D01*
X61011Y145830D01*
X60811Y146430D01*
X60805Y146439D01*
X60803Y146451D01*
X60603Y146951D01*
X60595Y146963D01*
X60590Y146980D01*
X60290Y147580D01*
X60269Y147605D01*
X60247Y147648D01*
X59847Y148148D01*
X59820Y148169D01*
X59788Y148207D01*
X59509Y148430D01*
X60450Y148430D01*
X60500Y148441D01*
X60551Y148443D01*
X60583Y148461D01*
X60619Y148469D01*
X60658Y148502D01*
X60703Y148526D01*
X60724Y148556D01*
X60752Y148579D01*
X60773Y148626D01*
X60803Y148668D01*
X60811Y148710D01*
X60823Y148738D01*
X60823Y148743D01*
X60823Y148744D01*
X60822Y148769D01*
X60830Y148810D01*
X60830Y152510D01*
X60819Y152560D01*
X60817Y152611D01*
X60799Y152643D01*
X60791Y152679D01*
X60758Y152718D01*
X60734Y152763D01*
X60704Y152784D01*
X60681Y152812D01*
X60634Y152833D01*
X60592Y152863D01*
X60550Y152871D01*
X60522Y152883D01*
X60492Y152882D01*
X60450Y152890D01*
X46250Y152890D01*
X46200Y152879D01*
X46149Y152877D01*
X46117Y152859D01*
X46081Y152851D01*
X46042Y152818D01*
X45997Y152794D01*
X45976Y152764D01*
X45948Y152741D01*
X45927Y152694D01*
X45897Y152652D01*
X45889Y152610D01*
X45877Y152582D01*
X45878Y152552D01*
X45870Y152510D01*
X45870Y148610D01*
X45881Y148560D01*
X45883Y148509D01*
X45901Y148477D01*
X45909Y148441D01*
X45942Y148402D01*
X45966Y148357D01*
X45996Y148336D01*
X46019Y148308D01*
X46066Y148287D01*
X46108Y148257D01*
X46150Y148249D01*
X46178Y148237D01*
X46208Y148238D01*
X46250Y148230D01*
X54726Y148230D01*
X55450Y148139D01*
X56090Y147865D01*
X56625Y147598D01*
X56948Y147274D01*
X57187Y146876D01*
X57274Y146355D01*
X57366Y145618D01*
X57276Y145079D01*
X57190Y144649D01*
X56962Y144270D01*
X56296Y143770D01*
X55795Y143686D01*
X54226Y143490D01*
X46250Y143490D01*
X46200Y143479D01*
X46149Y143477D01*
X46117Y143459D01*
X46081Y143451D01*
X46042Y143418D01*
X45997Y143394D01*
X45976Y143364D01*
X45948Y143341D01*
X45927Y143294D01*
X45897Y143252D01*
X45889Y143210D01*
X45877Y143182D01*
X45878Y143152D01*
X45870Y143110D01*
X45870Y139310D01*
X45881Y139260D01*
X45883Y139209D01*
X45901Y139177D01*
X45909Y139141D01*
X45942Y139102D01*
X45966Y139057D01*
X45996Y139036D01*
X46019Y139008D01*
X46066Y138987D01*
X46108Y138957D01*
X46150Y138949D01*
X46178Y138937D01*
X46208Y138938D01*
X46250Y138930D01*
X56250Y138930D01*
X56278Y138936D01*
G37*
G36*
X57208Y58834D02*
X57208Y58834D01*
X57240Y58847D01*
X57291Y58857D01*
X58291Y59257D01*
X58323Y59279D01*
X58383Y59310D01*
X59283Y60010D01*
X59303Y60034D01*
X59336Y60060D01*
X60036Y60860D01*
X60054Y60893D01*
X60090Y60940D01*
X60590Y61940D01*
X60597Y61970D01*
X60617Y62010D01*
X60917Y63110D01*
X60917Y63117D01*
X60919Y63120D01*
X60918Y63129D01*
X60925Y63148D01*
X61125Y64348D01*
X61124Y64362D01*
X61129Y64378D01*
X61229Y65578D01*
X61225Y65605D01*
X61229Y65642D01*
X61129Y66842D01*
X61125Y66855D01*
X61125Y66873D01*
X60925Y68073D01*
X60918Y68088D01*
X60917Y68110D01*
X60617Y69210D01*
X60602Y69238D01*
X60590Y69280D01*
X60090Y70280D01*
X60066Y70309D01*
X60036Y70360D01*
X59336Y71160D01*
X59310Y71179D01*
X59278Y71214D01*
X58478Y71814D01*
X58442Y71830D01*
X58380Y71867D01*
X57280Y72267D01*
X57249Y72271D01*
X57208Y72286D01*
X55908Y72486D01*
X55870Y72483D01*
X55808Y72488D01*
X54908Y72388D01*
X54871Y72375D01*
X54800Y72360D01*
X54100Y72060D01*
X54077Y72042D01*
X54039Y72026D01*
X53439Y71626D01*
X53412Y71598D01*
X53358Y71553D01*
X52858Y70953D01*
X52845Y70928D01*
X52820Y70899D01*
X52020Y69499D01*
X52009Y69461D01*
X51979Y69393D01*
X51780Y68498D01*
X51181Y66102D01*
X51181Y66082D01*
X51173Y66057D01*
X51077Y65295D01*
X50898Y64756D01*
X50625Y64211D01*
X50378Y63882D01*
X50083Y63660D01*
X49803Y63590D01*
X49565Y63590D01*
X49170Y63854D01*
X49115Y64016D01*
X49019Y64402D01*
X49013Y64414D01*
X49011Y64430D01*
X48930Y64672D01*
X48930Y66237D01*
X49097Y66654D01*
X49280Y67019D01*
X49424Y67236D01*
X49628Y67372D01*
X50059Y67544D01*
X50525Y67637D01*
X50537Y67643D01*
X50551Y67643D01*
X50615Y67679D01*
X50682Y67709D01*
X50691Y67720D01*
X50703Y67726D01*
X50745Y67786D01*
X50792Y67843D01*
X50795Y67857D01*
X50803Y67868D01*
X50830Y68010D01*
X50830Y71710D01*
X50812Y71790D01*
X50795Y71870D01*
X50792Y71874D01*
X50791Y71879D01*
X50739Y71942D01*
X50689Y72006D01*
X50684Y72008D01*
X50681Y72012D01*
X50606Y72046D01*
X50532Y72081D01*
X50527Y72081D01*
X50522Y72083D01*
X50495Y72082D01*
X50388Y72085D01*
X49188Y71885D01*
X49151Y71870D01*
X49080Y71850D01*
X48417Y71519D01*
X48080Y71350D01*
X48058Y71332D01*
X48022Y71314D01*
X47222Y70714D01*
X47197Y70684D01*
X47146Y70638D01*
X46546Y69838D01*
X46532Y69806D01*
X46503Y69764D01*
X46103Y68864D01*
X46099Y68844D01*
X46086Y68819D01*
X45786Y67819D01*
X45785Y67800D01*
X45776Y67778D01*
X45576Y66678D01*
X45577Y66649D01*
X45570Y66610D01*
X45570Y64310D01*
X45576Y64282D01*
X45576Y64242D01*
X45776Y63142D01*
X45777Y63139D01*
X45777Y63135D01*
X45977Y62135D01*
X45993Y62101D01*
X46010Y62040D01*
X46510Y61040D01*
X46533Y61012D01*
X46561Y60963D01*
X47161Y60263D01*
X47180Y60248D01*
X47200Y60224D01*
X48000Y59524D01*
X48030Y59508D01*
X48109Y59457D01*
X49109Y59057D01*
X49148Y59051D01*
X49218Y59031D01*
X50418Y58931D01*
X50449Y58936D01*
X50492Y58932D01*
X51392Y59032D01*
X51429Y59045D01*
X51500Y59061D01*
X52200Y59361D01*
X52224Y59378D01*
X52261Y59394D01*
X52861Y59794D01*
X52862Y59795D01*
X52865Y59796D01*
X52966Y59899D01*
X53366Y60499D01*
X53371Y60510D01*
X53380Y60521D01*
X53780Y61221D01*
X53786Y61240D01*
X53800Y61260D01*
X54100Y61960D01*
X54101Y61968D01*
X54106Y61977D01*
X54406Y62777D01*
X54409Y62800D01*
X54421Y62828D01*
X54621Y63728D01*
X54621Y63731D01*
X54623Y63735D01*
X54821Y64727D01*
X55215Y66304D01*
X55398Y66850D01*
X55666Y67298D01*
X55900Y67610D01*
X56183Y67751D01*
X56450Y67818D01*
X57056Y67667D01*
X57262Y67460D01*
X57525Y67109D01*
X57691Y66777D01*
X57770Y66463D01*
X57770Y66110D01*
X57778Y66074D01*
X57781Y66018D01*
X57862Y65694D01*
X57776Y65179D01*
X57677Y64685D01*
X57677Y64679D01*
X57675Y64673D01*
X57590Y64164D01*
X57078Y63482D01*
X56762Y63244D01*
X56377Y63090D01*
X55850Y63090D01*
X55800Y63079D01*
X55749Y63077D01*
X55717Y63059D01*
X55681Y63051D01*
X55642Y63018D01*
X55597Y62994D01*
X55576Y62964D01*
X55548Y62941D01*
X55527Y62894D01*
X55497Y62852D01*
X55489Y62810D01*
X55477Y62782D01*
X55478Y62752D01*
X55470Y62710D01*
X55470Y59010D01*
X55488Y58932D01*
X55503Y58855D01*
X55507Y58849D01*
X55509Y58841D01*
X55560Y58780D01*
X55608Y58717D01*
X55615Y58713D01*
X55619Y58708D01*
X55692Y58675D01*
X55763Y58640D01*
X55771Y58640D01*
X55778Y58637D01*
X55811Y58638D01*
X55908Y58634D01*
X57208Y58834D01*
G37*
G36*
X182476Y400585D02*
X182476Y400585D01*
X182480Y400582D01*
X183880Y400882D01*
X183883Y400885D01*
X183886Y400883D01*
X185086Y401283D01*
X185091Y401291D01*
X185096Y401288D01*
X186196Y401988D01*
X186199Y401996D01*
X186205Y401995D01*
X187205Y402995D01*
X187206Y403001D01*
X187210Y403001D01*
X188010Y404101D01*
X188010Y404109D01*
X188015Y404113D01*
X188015Y404114D01*
X188017Y404114D01*
X188417Y405314D01*
X188415Y405321D01*
X188419Y405323D01*
X188619Y406723D01*
X188612Y406734D01*
X188618Y406741D01*
X188318Y408041D01*
X188309Y408049D01*
X188312Y408056D01*
X187613Y409154D01*
X187334Y409711D01*
X188295Y410288D01*
X188303Y410308D01*
X188318Y410319D01*
X188318Y410320D01*
X188618Y411720D01*
X188613Y411730D01*
X188619Y411736D01*
X188419Y413336D01*
X188403Y413352D01*
X188405Y413365D01*
X187605Y414165D01*
X187583Y414168D01*
X187578Y414179D01*
X186278Y414379D01*
X186272Y414376D01*
X186270Y414379D01*
X176670Y414379D01*
X176663Y414374D01*
X176658Y414378D01*
X175458Y414078D01*
X175438Y414053D01*
X175425Y414050D01*
X174925Y412950D01*
X174928Y412938D01*
X174921Y412933D01*
X174821Y411233D01*
X174830Y411219D01*
X174825Y411210D01*
X175325Y410110D01*
X175350Y410096D01*
X175354Y410083D01*
X176554Y409683D01*
X176565Y409687D01*
X176570Y409681D01*
X180668Y409681D01*
X182058Y409581D01*
X183235Y409091D01*
X183821Y408017D01*
X183821Y406644D01*
X183138Y405572D01*
X181863Y405179D01*
X177770Y405179D01*
X177768Y405178D01*
X177767Y405179D01*
X176267Y405079D01*
X176257Y405071D01*
X176250Y405075D01*
X175350Y404675D01*
X175337Y404651D01*
X175324Y404648D01*
X174824Y403348D01*
X174828Y403333D01*
X174821Y403327D01*
X174921Y401627D01*
X174936Y401610D01*
X174933Y401598D01*
X175633Y400798D01*
X175656Y400793D01*
X175663Y400781D01*
X176963Y400581D01*
X176968Y400584D01*
X176970Y400581D01*
X182470Y400581D01*
X182476Y400585D01*
G37*
G36*
X186879Y418288D02*
X186879Y418288D01*
X186886Y418283D01*
X188086Y418683D01*
X188103Y418709D01*
X188116Y418713D01*
X188516Y419813D01*
X188513Y419825D01*
X188519Y419830D01*
X188519Y421630D01*
X188507Y421646D01*
X188511Y421657D01*
X187911Y422557D01*
X187887Y422566D01*
X187882Y422578D01*
X186682Y422878D01*
X186674Y422874D01*
X186670Y422879D01*
X182572Y422879D01*
X181183Y422978D01*
X180007Y423567D01*
X179420Y424740D01*
X179518Y426111D01*
X180298Y427086D01*
X181576Y427381D01*
X185670Y427381D01*
X185672Y427382D01*
X185674Y427381D01*
X187074Y427481D01*
X187082Y427488D01*
X187088Y427484D01*
X188088Y427884D01*
X188103Y427908D01*
X188103Y427909D01*
X188116Y427912D01*
X188616Y429212D01*
X188612Y429227D01*
X188619Y429233D01*
X188519Y430933D01*
X188506Y430949D01*
X188509Y430960D01*
X187809Y431860D01*
X187784Y431867D01*
X187778Y431879D01*
X186478Y432079D01*
X186472Y432076D01*
X186470Y432079D01*
X180970Y432079D01*
X180966Y432076D01*
X180963Y432079D01*
X179563Y431879D01*
X179558Y431874D01*
X179557Y431874D01*
X179556Y431873D01*
X179551Y431875D01*
X178351Y431375D01*
X178348Y431370D01*
X178344Y431372D01*
X177244Y430672D01*
X177241Y430664D01*
X177235Y430665D01*
X176235Y429665D01*
X176234Y429659D01*
X176230Y429659D01*
X175430Y428559D01*
X175430Y428548D01*
X175423Y428546D01*
X175023Y427346D01*
X175025Y427339D01*
X175021Y427337D01*
X174821Y425937D01*
X174826Y425928D01*
X174827Y425927D01*
X174828Y425926D01*
X174822Y425919D01*
X175122Y424619D01*
X175131Y424611D01*
X175128Y424604D01*
X175823Y423513D01*
X175917Y422854D01*
X175043Y422271D01*
X175033Y422243D01*
X175021Y422236D01*
X174821Y420636D01*
X174826Y420628D01*
X174821Y420624D01*
X175021Y419124D01*
X175040Y419105D01*
X175040Y419091D01*
X175940Y418391D01*
X175960Y418391D01*
X175966Y418381D01*
X177266Y418281D01*
X177269Y418283D01*
X177270Y418281D01*
X186870Y418281D01*
X186879Y418288D01*
G37*
G36*
X186879Y493888D02*
X186879Y493888D01*
X186886Y493883D01*
X188086Y494283D01*
X188103Y494309D01*
X188116Y494313D01*
X188516Y495413D01*
X188513Y495425D01*
X188519Y495430D01*
X188519Y497230D01*
X188507Y497246D01*
X188511Y497257D01*
X187911Y498157D01*
X187887Y498166D01*
X187882Y498178D01*
X186682Y498478D01*
X186674Y498474D01*
X186670Y498479D01*
X181183Y498479D01*
X180008Y499165D01*
X179420Y500340D01*
X179518Y501711D01*
X180298Y502686D01*
X181576Y502981D01*
X185670Y502981D01*
X185672Y502982D01*
X185674Y502981D01*
X187074Y503081D01*
X187082Y503088D01*
X187088Y503084D01*
X188088Y503484D01*
X188103Y503508D01*
X188103Y503509D01*
X188116Y503512D01*
X188616Y504812D01*
X188612Y504827D01*
X188619Y504833D01*
X188519Y506533D01*
X188506Y506549D01*
X188509Y506560D01*
X187809Y507460D01*
X187784Y507467D01*
X187778Y507479D01*
X186478Y507679D01*
X186472Y507676D01*
X186470Y507679D01*
X180970Y507679D01*
X180966Y507676D01*
X180963Y507679D01*
X179563Y507479D01*
X179558Y507474D01*
X179557Y507474D01*
X179556Y507473D01*
X179551Y507475D01*
X178351Y506975D01*
X178348Y506970D01*
X178344Y506972D01*
X177244Y506272D01*
X177241Y506264D01*
X177235Y506265D01*
X176235Y505265D01*
X176234Y505259D01*
X176230Y505259D01*
X175430Y504159D01*
X175430Y504148D01*
X175423Y504146D01*
X175023Y502946D01*
X175025Y502939D01*
X175021Y502937D01*
X174821Y501537D01*
X174826Y501528D01*
X174827Y501527D01*
X174828Y501526D01*
X174822Y501519D01*
X175122Y500219D01*
X175131Y500211D01*
X175128Y500204D01*
X175823Y499113D01*
X175917Y498451D01*
X175040Y497769D01*
X175033Y497744D01*
X175028Y497740D01*
X175021Y497737D01*
X174821Y496237D01*
X174826Y496228D01*
X174821Y496224D01*
X175021Y494724D01*
X175040Y494705D01*
X175040Y494691D01*
X175940Y493991D01*
X175960Y493991D01*
X175966Y493981D01*
X177266Y493881D01*
X177269Y493883D01*
X177270Y493881D01*
X186870Y493881D01*
X186879Y493888D01*
G37*
G36*
X207874Y471884D02*
X207874Y471884D01*
X207877Y471881D01*
X209277Y472081D01*
X209283Y472088D01*
X209289Y472085D01*
X210489Y472585D01*
X210492Y472590D01*
X210496Y472588D01*
X211596Y473288D01*
X211599Y473294D01*
X211603Y473293D01*
X212603Y474193D01*
X212604Y474201D01*
X212610Y474201D01*
X213410Y475301D01*
X213410Y475310D01*
X213416Y475315D01*
X213417Y475316D01*
X213817Y476616D01*
X213815Y476621D01*
X213819Y476623D01*
X214019Y477923D01*
X214012Y477934D01*
X214018Y477941D01*
X213718Y479241D01*
X213710Y479248D01*
X213713Y479255D01*
X213014Y480453D01*
X212734Y481011D01*
X213695Y481588D01*
X213703Y481608D01*
X213718Y481619D01*
X214018Y482919D01*
X214013Y482930D01*
X214019Y482936D01*
X213819Y484636D01*
X213803Y484652D01*
X213805Y484665D01*
X213005Y485465D01*
X212981Y485468D01*
X212974Y485479D01*
X211674Y485579D01*
X211671Y485578D01*
X211670Y485579D01*
X202070Y485579D01*
X202063Y485574D01*
X202058Y485578D01*
X200858Y485278D01*
X200839Y485255D01*
X200826Y485252D01*
X200326Y484252D01*
X200329Y484238D01*
X200321Y484233D01*
X200221Y482433D01*
X200230Y482419D01*
X200225Y482410D01*
X200725Y481310D01*
X200750Y481296D01*
X200754Y481283D01*
X201954Y480883D01*
X201965Y480887D01*
X201970Y480881D01*
X207460Y480881D01*
X208635Y480391D01*
X209221Y479317D01*
X209221Y477846D01*
X208538Y476871D01*
X207261Y476379D01*
X201670Y476379D01*
X201658Y476370D01*
X201650Y476375D01*
X200750Y475975D01*
X200737Y475951D01*
X200724Y475948D01*
X200224Y474648D01*
X200228Y474634D01*
X200221Y474627D01*
X200321Y472827D01*
X200336Y472810D01*
X200333Y472798D01*
X201033Y471998D01*
X201059Y471992D01*
X201066Y471981D01*
X202366Y471881D01*
X202369Y471883D01*
X202370Y471881D01*
X207870Y471881D01*
X207874Y471884D01*
G37*
G36*
X212487Y489584D02*
X212487Y489584D01*
X212500Y489605D01*
X212513Y489607D01*
X213213Y490907D01*
X213212Y490913D01*
X213217Y490914D01*
X213617Y492114D01*
X213616Y492118D01*
X213618Y492119D01*
X213918Y493419D01*
X213916Y493424D01*
X213919Y493426D01*
X214019Y494726D01*
X214016Y494731D01*
X214019Y494733D01*
X213919Y496233D01*
X213915Y496238D01*
X213918Y496241D01*
X213618Y497541D01*
X213614Y497544D01*
X213616Y497547D01*
X213216Y498647D01*
X213207Y498653D01*
X213208Y498661D01*
X212408Y499661D01*
X212397Y499664D01*
X212396Y499672D01*
X211296Y500372D01*
X211282Y500370D01*
X211278Y500379D01*
X209978Y500579D01*
X209972Y500576D01*
X209970Y500579D01*
X208470Y500579D01*
X208463Y500574D01*
X208458Y500578D01*
X207258Y500278D01*
X207248Y500266D01*
X207239Y500268D01*
X206139Y499368D01*
X206136Y499355D01*
X206127Y499354D01*
X205527Y498254D01*
X205528Y498249D01*
X205524Y498248D01*
X205024Y496948D01*
X205026Y496940D01*
X205021Y496938D01*
X204822Y495640D01*
X204429Y494067D01*
X203701Y493794D01*
X203320Y494936D01*
X203419Y496418D01*
X204015Y497811D01*
X204011Y497828D01*
X204019Y497835D01*
X203919Y498835D01*
X203900Y498856D01*
X203900Y498869D01*
X202700Y499769D01*
X202686Y499769D01*
X202682Y499778D01*
X201482Y500078D01*
X201448Y500063D01*
X201435Y500065D01*
X200535Y499165D01*
X200533Y499151D01*
X200532Y499150D01*
X200524Y499148D01*
X200024Y497848D01*
X200026Y497843D01*
X200022Y497841D01*
X199722Y496541D01*
X199725Y496534D01*
X199723Y496532D01*
X199721Y496530D01*
X199721Y495130D01*
X199722Y495128D01*
X199721Y495127D01*
X199821Y493427D01*
X199826Y493421D01*
X199823Y493416D01*
X200223Y492016D01*
X200229Y492012D01*
X200227Y492006D01*
X200827Y490906D01*
X200838Y490901D01*
X200838Y490893D01*
X201638Y490193D01*
X201647Y490192D01*
X201648Y490186D01*
X202648Y489686D01*
X202661Y489688D01*
X202666Y489681D01*
X203966Y489581D01*
X203973Y489585D01*
X203977Y489581D01*
X205377Y489781D01*
X205385Y489789D01*
X205392Y489786D01*
X206592Y490386D01*
X206595Y490393D01*
X206601Y490392D01*
X207601Y491192D01*
X207604Y491204D01*
X207613Y491205D01*
X208313Y492405D01*
X208312Y492411D01*
X208316Y492412D01*
X208816Y493712D01*
X208814Y493720D01*
X208819Y493723D01*
X209018Y495117D01*
X209494Y496260D01*
X210123Y495900D01*
X210220Y494438D01*
X209725Y493251D01*
X209026Y491852D01*
X209029Y491836D01*
X209021Y491830D01*
X209021Y490630D01*
X209039Y490606D01*
X209039Y490592D01*
X210139Y489692D01*
X210149Y489692D01*
X210151Y489685D01*
X211351Y489185D01*
X211376Y489191D01*
X211387Y489184D01*
X212487Y489584D01*
G37*
G36*
X177878Y451488D02*
X177878Y451488D01*
X177886Y451483D01*
X179086Y451883D01*
X179104Y451910D01*
X179117Y451914D01*
X179806Y453981D01*
X183970Y453981D01*
X183974Y453984D01*
X183977Y453981D01*
X185477Y454181D01*
X185484Y454189D01*
X185490Y454185D01*
X186590Y454685D01*
X186594Y454693D01*
X186600Y454691D01*
X187500Y455391D01*
X187504Y455405D01*
X187513Y455406D01*
X188113Y456506D01*
X188112Y456516D01*
X188118Y456518D01*
X188418Y457718D01*
X188417Y457721D01*
X188418Y457722D01*
X188418Y457723D01*
X188419Y457724D01*
X188619Y459224D01*
X188614Y459232D01*
X188619Y459237D01*
X188419Y460637D01*
X188408Y460648D01*
X188411Y460657D01*
X187811Y461557D01*
X187783Y461567D01*
X187776Y461579D01*
X186176Y461779D01*
X186168Y461774D01*
X186165Y461774D01*
X186160Y461778D01*
X184760Y461478D01*
X184742Y461457D01*
X184738Y461454D01*
X184726Y461452D01*
X184226Y460452D01*
X184228Y460438D01*
X184221Y460434D01*
X184123Y459060D01*
X183057Y458479D01*
X180377Y458479D01*
X179422Y458766D01*
X179519Y460127D01*
X179515Y460133D01*
X179519Y460138D01*
X179319Y461438D01*
X179305Y461451D01*
X179307Y461462D01*
X178607Y462262D01*
X178583Y462267D01*
X178576Y462279D01*
X176976Y462479D01*
X176966Y462473D01*
X176960Y462478D01*
X175560Y462178D01*
X175541Y462157D01*
X175528Y462155D01*
X174928Y461155D01*
X174928Y461150D01*
X174925Y461147D01*
X174929Y461141D01*
X174930Y461140D01*
X174921Y461134D01*
X174821Y459934D01*
X174824Y459929D01*
X174821Y459927D01*
X174917Y458479D01*
X172270Y458479D01*
X172268Y458477D01*
X172266Y458479D01*
X170966Y458379D01*
X170945Y458360D01*
X170931Y458360D01*
X170231Y457460D01*
X170231Y457454D01*
X170230Y457453D01*
X170231Y457452D01*
X170231Y457440D01*
X170221Y457433D01*
X170121Y455733D01*
X170128Y455722D01*
X170123Y455716D01*
X170523Y454416D01*
X170548Y454397D01*
X170552Y454384D01*
X171552Y453984D01*
X171565Y453988D01*
X171570Y453981D01*
X174250Y453981D01*
X174827Y453404D01*
X175223Y452116D01*
X175245Y452099D01*
X175248Y452086D01*
X176248Y451586D01*
X176262Y451589D01*
X176267Y451581D01*
X177867Y451481D01*
X177878Y451488D01*
G37*
G36*
X48898Y127341D02*
X48898Y127341D01*
X48951Y127343D01*
X48982Y127360D01*
X49016Y127368D01*
X49057Y127401D01*
X49103Y127426D01*
X49123Y127455D01*
X49151Y127477D01*
X49172Y127525D01*
X49203Y127568D01*
X49210Y127608D01*
X49223Y127635D01*
X49222Y127666D01*
X49230Y127710D01*
X49230Y131230D01*
X60450Y131230D01*
X60500Y131241D01*
X60551Y131243D01*
X60583Y131261D01*
X60619Y131269D01*
X60658Y131302D01*
X60703Y131326D01*
X60724Y131356D01*
X60752Y131379D01*
X60773Y131426D01*
X60803Y131468D01*
X60811Y131510D01*
X60823Y131538D01*
X60822Y131568D01*
X60830Y131610D01*
X60830Y135410D01*
X60819Y135460D01*
X60817Y135511D01*
X60799Y135543D01*
X60791Y135579D01*
X60758Y135618D01*
X60734Y135663D01*
X60704Y135684D01*
X60681Y135712D01*
X60634Y135733D01*
X60592Y135763D01*
X60550Y135771D01*
X60522Y135783D01*
X60492Y135782D01*
X60450Y135790D01*
X49230Y135790D01*
X49230Y138110D01*
X49219Y138160D01*
X49217Y138211D01*
X49199Y138243D01*
X49191Y138279D01*
X49158Y138318D01*
X49134Y138363D01*
X49104Y138384D01*
X49081Y138412D01*
X49034Y138433D01*
X48992Y138463D01*
X48950Y138471D01*
X48922Y138483D01*
X48892Y138482D01*
X48850Y138490D01*
X46250Y138490D01*
X46200Y138479D01*
X46149Y138477D01*
X46117Y138459D01*
X46081Y138451D01*
X46042Y138418D01*
X45997Y138394D01*
X45976Y138364D01*
X45948Y138341D01*
X45927Y138294D01*
X45897Y138252D01*
X45889Y138210D01*
X45877Y138182D01*
X45878Y138152D01*
X45870Y138110D01*
X45870Y135790D01*
X45497Y135790D01*
X45142Y135879D01*
X45106Y135879D01*
X45050Y135890D01*
X44740Y135890D01*
X44641Y135940D01*
X44445Y136070D01*
X44309Y136343D01*
X44230Y136657D01*
X44230Y138310D01*
X44219Y138360D01*
X44217Y138411D01*
X44199Y138443D01*
X44191Y138479D01*
X44158Y138518D01*
X44134Y138563D01*
X44104Y138584D01*
X44081Y138612D01*
X44034Y138633D01*
X43992Y138663D01*
X43950Y138671D01*
X43922Y138683D01*
X43892Y138682D01*
X43850Y138690D01*
X41050Y138690D01*
X41001Y138679D01*
X40951Y138677D01*
X40918Y138659D01*
X40881Y138651D01*
X40842Y138619D01*
X40798Y138595D01*
X40772Y138560D01*
X40748Y138541D01*
X40735Y138513D01*
X40710Y138480D01*
X40610Y138280D01*
X40606Y138265D01*
X40597Y138252D01*
X40571Y138118D01*
X40570Y138112D01*
X40570Y138111D01*
X40570Y138110D01*
X40570Y135210D01*
X40579Y135172D01*
X40586Y135101D01*
X40886Y134101D01*
X40900Y134077D01*
X40910Y134040D01*
X41310Y133240D01*
X41326Y133220D01*
X41341Y133189D01*
X41841Y132489D01*
X41869Y132464D01*
X41907Y132418D01*
X42507Y131918D01*
X42542Y131900D01*
X42600Y131861D01*
X43300Y131561D01*
X43308Y131559D01*
X43317Y131554D01*
X44117Y131254D01*
X44143Y131251D01*
X44250Y131230D01*
X45870Y131230D01*
X45870Y130410D01*
X45873Y130394D01*
X45871Y130378D01*
X45893Y130311D01*
X45909Y130241D01*
X45920Y130229D01*
X45925Y130213D01*
X46012Y130117D01*
X46019Y130108D01*
X46021Y130107D01*
X46022Y130106D01*
X46378Y129838D01*
X46646Y129482D01*
X46664Y129467D01*
X46681Y129441D01*
X48262Y127860D01*
X48546Y127482D01*
X48586Y127448D01*
X48619Y127408D01*
X48652Y127393D01*
X48679Y127371D01*
X48730Y127358D01*
X48778Y127337D01*
X48813Y127338D01*
X48847Y127330D01*
X48898Y127341D01*
G37*
G36*
X182477Y435686D02*
X182477Y435686D01*
X182481Y435682D01*
X183781Y435982D01*
X183786Y435988D01*
X183791Y435985D01*
X185091Y436585D01*
X185094Y436592D01*
X185099Y436590D01*
X186199Y437390D01*
X186201Y437398D01*
X186207Y437397D01*
X187107Y438397D01*
X187107Y438406D01*
X187113Y438407D01*
X187813Y439707D01*
X187813Y439710D01*
X187815Y439711D01*
X188315Y440911D01*
X188314Y440917D01*
X188318Y440919D01*
X188618Y442219D01*
X188614Y442229D01*
X188619Y442234D01*
X188519Y443634D01*
X188515Y443638D01*
X188518Y443641D01*
X188218Y444941D01*
X188213Y444945D01*
X188215Y444949D01*
X187715Y446149D01*
X187708Y446153D01*
X187709Y446160D01*
X186809Y447360D01*
X186790Y447365D01*
X186787Y447376D01*
X185687Y447776D01*
X185663Y447769D01*
X185652Y447776D01*
X184352Y447276D01*
X184345Y447265D01*
X184337Y447266D01*
X183137Y446166D01*
X183134Y446149D01*
X183123Y446146D01*
X182823Y445246D01*
X182832Y445219D01*
X182827Y445207D01*
X183524Y443911D01*
X183918Y442631D01*
X183526Y441453D01*
X182745Y440379D01*
X181379Y440379D01*
X180103Y440870D01*
X179418Y441946D01*
X179320Y443319D01*
X180013Y444607D01*
X180012Y444614D01*
X180017Y444616D01*
X180317Y445616D01*
X180307Y445643D01*
X180312Y445655D01*
X179712Y446655D01*
X179697Y446661D01*
X179697Y446671D01*
X178297Y447571D01*
X178282Y447570D01*
X178278Y447579D01*
X177078Y447779D01*
X177054Y447766D01*
X177041Y447770D01*
X175941Y446970D01*
X175937Y446957D01*
X175928Y446956D01*
X175228Y445856D01*
X175229Y445848D01*
X175224Y445847D01*
X174724Y444447D01*
X174726Y444440D01*
X174721Y444438D01*
X174521Y443138D01*
X174525Y443132D01*
X174523Y443131D01*
X174524Y443130D01*
X174521Y443127D01*
X174621Y441727D01*
X174625Y441722D01*
X174622Y441719D01*
X174922Y440419D01*
X174929Y440413D01*
X174926Y440408D01*
X175526Y439208D01*
X175528Y439207D01*
X175527Y439205D01*
X176227Y438005D01*
X176238Y438001D01*
X176237Y437993D01*
X177237Y437093D01*
X177245Y437093D01*
X177245Y437087D01*
X178445Y436387D01*
X178451Y436388D01*
X178452Y436384D01*
X179752Y435884D01*
X179760Y435886D01*
X179763Y435881D01*
X181063Y435681D01*
X181068Y435684D01*
X181070Y435681D01*
X182470Y435681D01*
X182477Y435686D01*
G37*
%LPC*%
G36*
X365164Y550748D02*
X365164Y550748D01*
X364470Y551045D01*
X357777Y554342D01*
X357292Y554729D01*
X357101Y555304D01*
X357196Y555876D01*
X357679Y556359D01*
X358272Y556656D01*
X364969Y559954D01*
X365566Y560153D01*
X365591Y560191D01*
X365599Y560196D01*
X365799Y562496D01*
X365767Y562546D01*
X365757Y562540D01*
X365750Y562549D01*
X358353Y562549D01*
X357676Y562646D01*
X357296Y563121D01*
X357200Y563697D01*
X357395Y564377D01*
X357784Y564864D01*
X361079Y567260D01*
X361079Y567261D01*
X361080Y567261D01*
X362680Y568461D01*
X362683Y568473D01*
X362695Y568479D01*
X362688Y568491D01*
X362696Y568518D01*
X362670Y568525D01*
X362658Y568549D01*
X362058Y568649D01*
X362053Y568646D01*
X362050Y568649D01*
X357954Y568649D01*
X357390Y568743D01*
X357299Y569109D01*
X357200Y569895D01*
X357391Y570467D01*
X357867Y570753D01*
X358553Y570851D01*
X365346Y570851D01*
X365933Y570753D01*
X366409Y570467D01*
X366601Y569892D01*
X366601Y569117D01*
X366215Y568635D01*
X361320Y564839D01*
X361316Y564823D01*
X361303Y564813D01*
X361310Y564803D01*
X361304Y564781D01*
X361332Y564774D01*
X361350Y564751D01*
X365841Y564751D01*
X366316Y564560D01*
X366601Y564086D01*
X366601Y563209D01*
X366413Y562740D01*
X365834Y562547D01*
X365809Y562509D01*
X365801Y562504D01*
X365601Y560104D01*
X365631Y560057D01*
X365632Y560054D01*
X366116Y559861D01*
X366503Y559183D01*
X366598Y558610D01*
X366315Y558138D01*
X365728Y557844D01*
X364528Y557244D01*
X364511Y557209D01*
X364503Y557203D01*
X364503Y557202D01*
X364501Y557200D01*
X364501Y553800D01*
X364517Y553779D01*
X364515Y553765D01*
X364915Y553365D01*
X364928Y553363D01*
X364929Y553355D01*
X366219Y552760D01*
X366601Y552283D01*
X366601Y551713D01*
X366212Y551033D01*
X365736Y550652D01*
X365164Y550748D01*
G37*
%LPD*%
G36*
X60500Y104241D02*
X60500Y104241D01*
X60551Y104243D01*
X60583Y104261D01*
X60619Y104269D01*
X60658Y104302D01*
X60703Y104326D01*
X60724Y104356D01*
X60752Y104379D01*
X60773Y104426D01*
X60803Y104468D01*
X60811Y104510D01*
X60823Y104538D01*
X60822Y104568D01*
X60830Y104610D01*
X60830Y108510D01*
X60819Y108560D01*
X60817Y108611D01*
X60799Y108643D01*
X60791Y108679D01*
X60758Y108718D01*
X60734Y108763D01*
X60704Y108784D01*
X60681Y108812D01*
X60634Y108833D01*
X60592Y108863D01*
X60550Y108871D01*
X60522Y108883D01*
X60492Y108882D01*
X60450Y108890D01*
X53192Y108890D01*
X52344Y109079D01*
X51699Y109263D01*
X51068Y109624D01*
X50546Y110058D01*
X50206Y110653D01*
X50026Y111375D01*
X49930Y112329D01*
X49930Y113320D01*
X49990Y113440D01*
X49994Y113455D01*
X50003Y113468D01*
X50029Y113602D01*
X50030Y113609D01*
X50030Y113610D01*
X50030Y113710D01*
X50019Y113760D01*
X50017Y113811D01*
X49999Y113843D01*
X49991Y113879D01*
X49958Y113918D01*
X49934Y113963D01*
X49904Y113984D01*
X49881Y114012D01*
X49834Y114033D01*
X49792Y114063D01*
X49750Y114071D01*
X49722Y114083D01*
X49692Y114082D01*
X49650Y114090D01*
X46050Y114090D01*
X46000Y114079D01*
X45949Y114077D01*
X45917Y114059D01*
X45881Y114051D01*
X45842Y114018D01*
X45797Y113994D01*
X45776Y113964D01*
X45748Y113941D01*
X45727Y113894D01*
X45697Y113852D01*
X45689Y113810D01*
X45677Y113782D01*
X45677Y113772D01*
X45641Y113714D01*
X45597Y113652D01*
X45595Y113640D01*
X45590Y113632D01*
X45586Y113595D01*
X45570Y113510D01*
X45570Y112110D01*
X45579Y112072D01*
X45584Y112006D01*
X45784Y111306D01*
X45788Y111299D01*
X45789Y111290D01*
X45989Y110690D01*
X46006Y110663D01*
X46020Y110621D01*
X46420Y109921D01*
X46437Y109903D01*
X46453Y109872D01*
X46853Y109372D01*
X46878Y109353D01*
X46907Y109318D01*
X47507Y108818D01*
X47510Y108816D01*
X47512Y108813D01*
X47666Y108690D01*
X46250Y108690D01*
X46240Y108688D01*
X46230Y108690D01*
X46156Y108668D01*
X46081Y108651D01*
X46073Y108644D01*
X46063Y108641D01*
X46007Y108590D01*
X45948Y108541D01*
X45943Y108531D01*
X45936Y108524D01*
X45908Y108453D01*
X45877Y108382D01*
X45877Y108372D01*
X45873Y108362D01*
X45881Y108218D01*
X45979Y107827D01*
X46177Y106835D01*
X46181Y106828D01*
X46181Y106818D01*
X46279Y106427D01*
X46370Y105972D01*
X46370Y105510D01*
X46378Y105474D01*
X46381Y105418D01*
X46479Y105027D01*
X46577Y104535D01*
X46583Y104523D01*
X46583Y104509D01*
X46619Y104445D01*
X46649Y104378D01*
X46660Y104369D01*
X46666Y104357D01*
X46726Y104315D01*
X46783Y104268D01*
X46797Y104265D01*
X46808Y104257D01*
X46950Y104230D01*
X60450Y104230D01*
X60500Y104241D01*
G37*
%LPC*%
G36*
X332558Y563819D02*
X332558Y563819D01*
X331990Y564009D01*
X331799Y564677D01*
X331799Y565356D01*
X332088Y565838D01*
X332780Y566431D01*
X335478Y568330D01*
X335479Y568331D01*
X335480Y568331D01*
X337180Y569631D01*
X337196Y569688D01*
X337193Y569689D01*
X337194Y569692D01*
X337094Y569892D01*
X337057Y569911D01*
X337050Y569919D01*
X332270Y569919D01*
X331993Y570197D01*
X331799Y570778D01*
X331799Y571453D01*
X332177Y571925D01*
X332758Y572021D01*
X332799Y572065D01*
X332793Y572071D01*
X332799Y572077D01*
X332499Y574177D01*
X332472Y574204D01*
X332468Y574216D01*
X331990Y574407D01*
X331799Y574978D01*
X331799Y575853D01*
X332177Y576325D01*
X332754Y576421D01*
X339350Y576421D01*
X339397Y576457D01*
X339392Y576464D01*
X339399Y576470D01*
X339399Y579867D01*
X339495Y580540D01*
X339964Y580821D01*
X340641Y580821D01*
X341105Y580635D01*
X341201Y579967D01*
X341201Y575173D01*
X341105Y574500D01*
X340636Y574219D01*
X332550Y574219D01*
X332503Y574183D01*
X332511Y574172D01*
X332501Y574163D01*
X332801Y572163D01*
X332844Y572121D01*
X332847Y572125D01*
X332850Y572121D01*
X340342Y572121D01*
X340920Y571928D01*
X341201Y571554D01*
X341201Y570674D01*
X341105Y570098D01*
X340421Y569610D01*
X340421Y569608D01*
X340419Y569609D01*
X336124Y566212D01*
X335928Y566114D01*
X335919Y566096D01*
X335903Y566083D01*
X335909Y566075D01*
X335902Y566061D01*
X335931Y566046D01*
X335950Y566021D01*
X340047Y566021D01*
X340731Y565923D01*
X341104Y565643D01*
X341200Y564870D01*
X341104Y564196D01*
X340633Y563819D01*
X332558Y563819D01*
G37*
%LPD*%
G36*
X314707Y220141D02*
X314707Y220141D01*
X314727Y220162D01*
X314741Y220163D01*
X315141Y220763D01*
X315140Y220772D01*
X315147Y220774D01*
X315946Y223073D01*
X316697Y225044D01*
X317953Y221274D01*
X318153Y220674D01*
X318167Y220665D01*
X318165Y220655D01*
X318665Y220155D01*
X318686Y220152D01*
X318692Y220141D01*
X319292Y220041D01*
X319309Y220051D01*
X319319Y220045D01*
X320019Y220345D01*
X320030Y220363D01*
X320042Y220365D01*
X320342Y220865D01*
X320341Y220872D01*
X320346Y220874D01*
X322846Y227974D01*
X322846Y227976D01*
X322847Y227976D01*
X323047Y228676D01*
X323038Y228700D01*
X323044Y228712D01*
X322844Y229112D01*
X322826Y229121D01*
X322824Y229133D01*
X322124Y229533D01*
X322116Y229532D01*
X322114Y229537D01*
X321414Y229737D01*
X321386Y229727D01*
X321373Y229731D01*
X320773Y229331D01*
X320765Y229310D01*
X320753Y229306D01*
X319257Y224917D01*
X319122Y224781D01*
X317847Y228606D01*
X317842Y228609D01*
X317844Y228612D01*
X317544Y229212D01*
X317531Y229219D01*
X317531Y229228D01*
X317031Y229628D01*
X317003Y229629D01*
X316993Y229639D01*
X316293Y229539D01*
X316285Y229531D01*
X316278Y229534D01*
X315678Y229234D01*
X315667Y229213D01*
X315655Y229209D01*
X315355Y228509D01*
X315355Y228507D01*
X315353Y228506D01*
X314079Y224781D01*
X313943Y224916D01*
X312747Y228804D01*
X312742Y228808D01*
X312744Y228812D01*
X312444Y229412D01*
X312424Y229422D01*
X312422Y229434D01*
X311822Y229734D01*
X311797Y229729D01*
X311786Y229737D01*
X311086Y229537D01*
X311080Y229529D01*
X311073Y229531D01*
X310473Y229131D01*
X310464Y229106D01*
X310452Y229100D01*
X310352Y228600D01*
X310357Y228589D01*
X310351Y228583D01*
X310451Y227883D01*
X310456Y227878D01*
X310454Y227874D01*
X312954Y220774D01*
X312964Y220767D01*
X312962Y220759D01*
X313362Y220259D01*
X313381Y220254D01*
X313384Y220243D01*
X313984Y220043D01*
X314000Y220048D01*
X314007Y220041D01*
X314707Y220141D01*
G37*
G36*
X186373Y467083D02*
X186373Y467083D01*
X186374Y467081D01*
X187574Y467181D01*
X187592Y467197D01*
X187605Y467195D01*
X188405Y467995D01*
X188408Y468018D01*
X188419Y468025D01*
X188619Y469825D01*
X188612Y469837D01*
X188617Y469844D01*
X188217Y471144D01*
X188195Y471161D01*
X188192Y471174D01*
X187192Y471674D01*
X187176Y471671D01*
X187170Y471679D01*
X176170Y471679D01*
X176155Y471668D01*
X176145Y471672D01*
X175145Y471072D01*
X175134Y471046D01*
X175122Y471040D01*
X174822Y469640D01*
X174827Y469630D01*
X174821Y469624D01*
X175021Y467924D01*
X175039Y467906D01*
X175038Y467893D01*
X175838Y467193D01*
X175859Y467191D01*
X175866Y467181D01*
X177166Y467081D01*
X177169Y467083D01*
X177170Y467081D01*
X186370Y467081D01*
X186373Y467083D01*
G37*
G36*
X327106Y220141D02*
X327106Y220141D01*
X327122Y220157D01*
X327135Y220155D01*
X327535Y220555D01*
X327536Y220567D01*
X327540Y220569D01*
X327537Y220573D01*
X327538Y220576D01*
X327549Y220582D01*
X327649Y221182D01*
X327646Y221187D01*
X327649Y221190D01*
X327649Y222557D01*
X328109Y222741D01*
X329473Y222741D01*
X329956Y221967D01*
X330655Y220370D01*
X330673Y220360D01*
X330675Y220348D01*
X331175Y220048D01*
X331199Y220050D01*
X331208Y220041D01*
X331808Y220141D01*
X331817Y220151D01*
X331824Y220147D01*
X332524Y220547D01*
X332531Y220563D01*
X332542Y220565D01*
X332842Y221065D01*
X332839Y221093D01*
X332847Y221104D01*
X332647Y221804D01*
X332639Y221810D01*
X332641Y221817D01*
X332444Y222113D01*
X331947Y223404D01*
X331853Y223877D01*
X332238Y224359D01*
X332239Y224367D01*
X332244Y224368D01*
X332544Y224968D01*
X332543Y224975D01*
X332547Y224976D01*
X332747Y225676D01*
X332744Y225686D01*
X332749Y225690D01*
X332749Y226390D01*
X332746Y226394D01*
X332749Y226397D01*
X332649Y227097D01*
X332644Y227102D01*
X332647Y227106D01*
X332447Y227706D01*
X332439Y227711D01*
X332441Y227717D01*
X332041Y228317D01*
X332034Y228320D01*
X332035Y228325D01*
X331635Y228725D01*
X331576Y228733D01*
X331575Y228724D01*
X331565Y228725D01*
X331081Y228240D01*
X331537Y228757D01*
X331541Y228817D01*
X331531Y228818D01*
X331531Y228828D01*
X331031Y229228D01*
X331021Y229229D01*
X331019Y229235D01*
X330319Y229535D01*
X330311Y229533D01*
X330308Y229539D01*
X329108Y229739D01*
X329103Y229736D01*
X329100Y229739D01*
X326300Y229739D01*
X326292Y229733D01*
X326286Y229737D01*
X325586Y229537D01*
X325571Y229517D01*
X325558Y229515D01*
X325258Y229015D01*
X325260Y228997D01*
X325251Y228990D01*
X325251Y221490D01*
X325254Y221486D01*
X325251Y221483D01*
X325351Y220783D01*
X325357Y220777D01*
X325354Y220772D01*
X325554Y220272D01*
X325582Y220255D01*
X325586Y220243D01*
X326286Y220043D01*
X326300Y220048D01*
X326306Y220041D01*
X327106Y220141D01*
G37*
G36*
X303121Y220057D02*
X303121Y220057D01*
X303135Y220055D01*
X303535Y220455D01*
X303536Y220467D01*
X303541Y220471D01*
X303538Y220476D01*
X303549Y220482D01*
X303649Y221082D01*
X303646Y221087D01*
X303649Y221090D01*
X303649Y222460D01*
X304012Y222641D01*
X305400Y222641D01*
X305405Y222644D01*
X305408Y222641D01*
X306008Y222741D01*
X306012Y222746D01*
X306016Y222743D01*
X306616Y222943D01*
X306621Y222951D01*
X306627Y222949D01*
X307827Y223749D01*
X307831Y223759D01*
X307838Y223759D01*
X308238Y224259D01*
X308239Y224269D01*
X308245Y224271D01*
X308545Y224971D01*
X308543Y224979D01*
X308549Y224982D01*
X308649Y225582D01*
X308648Y225583D01*
X308649Y225583D01*
X308749Y226283D01*
X308746Y226288D01*
X308749Y226290D01*
X308749Y226990D01*
X308740Y227003D01*
X308744Y227012D01*
X308344Y227812D01*
X308337Y227815D01*
X308338Y227821D01*
X307938Y228321D01*
X307934Y228322D01*
X307935Y228325D01*
X307435Y228825D01*
X307428Y228826D01*
X307427Y228831D01*
X306827Y229231D01*
X306823Y229231D01*
X306822Y229234D01*
X306222Y229534D01*
X306211Y229532D01*
X306207Y229539D01*
X305507Y229639D01*
X305502Y229636D01*
X305500Y229639D01*
X302100Y229639D01*
X302091Y229632D01*
X302084Y229637D01*
X301484Y229437D01*
X301467Y229412D01*
X301454Y229408D01*
X301254Y228908D01*
X301258Y228895D01*
X301251Y228890D01*
X301251Y220690D01*
X301260Y220677D01*
X301256Y220668D01*
X301456Y220268D01*
X301482Y220255D01*
X301486Y220243D01*
X302186Y220043D01*
X302196Y220046D01*
X302200Y220041D01*
X303100Y220041D01*
X303121Y220057D01*
G37*
G36*
X242388Y207355D02*
X242388Y207355D01*
X242401Y207352D01*
X242901Y207752D01*
X242905Y207767D01*
X242910Y207771D01*
X242907Y207775D01*
X242907Y207776D01*
X242919Y207782D01*
X243019Y208382D01*
X243013Y208392D01*
X243019Y208397D01*
X242919Y209097D01*
X242909Y209107D01*
X242912Y209115D01*
X242612Y209615D01*
X242584Y209627D01*
X242577Y209639D01*
X241877Y209739D01*
X241872Y209736D01*
X241870Y209739D01*
X239790Y209739D01*
X239749Y209780D01*
X240193Y210047D01*
X240792Y210346D01*
X240796Y210354D01*
X240802Y210352D01*
X241402Y210852D01*
X241402Y210856D01*
X241405Y210855D01*
X241905Y211355D01*
X241906Y211364D01*
X241912Y211365D01*
X242212Y211865D01*
X242212Y211870D01*
X242215Y211871D01*
X242515Y212571D01*
X242513Y212579D01*
X242519Y212582D01*
X242619Y213182D01*
X242616Y213187D01*
X242617Y213188D01*
X242619Y213190D01*
X242619Y213890D01*
X242613Y213898D01*
X242617Y213904D01*
X242417Y214604D01*
X242416Y214605D01*
X242417Y214606D01*
X242217Y215206D01*
X242206Y215213D01*
X242208Y215221D01*
X241408Y216221D01*
X241398Y216223D01*
X241397Y216231D01*
X240797Y216631D01*
X240793Y216631D01*
X240792Y216634D01*
X240192Y216934D01*
X240182Y216932D01*
X240178Y216939D01*
X239578Y217039D01*
X239573Y217036D01*
X239570Y217039D01*
X238770Y217039D01*
X238765Y217036D01*
X238762Y217039D01*
X238162Y216939D01*
X238159Y216935D01*
X238156Y216937D01*
X237456Y216737D01*
X237451Y216730D01*
X237445Y216732D01*
X236945Y216432D01*
X236941Y216424D01*
X236935Y216425D01*
X236435Y215925D01*
X236434Y215918D01*
X236429Y215917D01*
X236029Y215317D01*
X236029Y215313D01*
X236026Y215312D01*
X235726Y214712D01*
X235728Y214702D01*
X235721Y214698D01*
X235621Y214098D01*
X235622Y214097D01*
X235621Y214097D01*
X235521Y213397D01*
X235527Y213387D01*
X235521Y213382D01*
X235621Y212782D01*
X235637Y212767D01*
X235635Y212755D01*
X236035Y212355D01*
X236062Y212352D01*
X236070Y212341D01*
X236970Y212341D01*
X236978Y212347D01*
X236984Y212343D01*
X237684Y212543D01*
X237703Y212568D01*
X237716Y212572D01*
X237916Y213072D01*
X237914Y213079D01*
X237919Y213082D01*
X238018Y213678D01*
X238211Y214258D01*
X238785Y214641D01*
X239453Y214641D01*
X239931Y214258D01*
X240219Y213682D01*
X240123Y213108D01*
X239733Y212524D01*
X239239Y212128D01*
X238742Y211730D01*
X236944Y210632D01*
X236943Y210628D01*
X236939Y210628D01*
X236439Y210228D01*
X236438Y210224D01*
X236435Y210225D01*
X235935Y209725D01*
X235934Y209713D01*
X235926Y209712D01*
X235626Y209112D01*
X235628Y209102D01*
X235621Y209098D01*
X235521Y208498D01*
X235529Y208483D01*
X235523Y208474D01*
X235723Y207874D01*
X235739Y207864D01*
X235738Y207852D01*
X236338Y207352D01*
X236362Y207351D01*
X236370Y207341D01*
X242370Y207341D01*
X242388Y207355D01*
G37*
%LPC*%
G36*
X357670Y572949D02*
X357670Y572949D01*
X357297Y573323D01*
X357200Y574100D01*
X357295Y574770D01*
X357767Y575053D01*
X358453Y575151D01*
X360450Y575151D01*
X360455Y575154D01*
X360458Y575151D01*
X361058Y575251D01*
X361099Y575295D01*
X361096Y575298D01*
X361099Y575300D01*
X361099Y578000D01*
X361096Y578005D01*
X361099Y578008D01*
X360999Y578608D01*
X360955Y578649D01*
X360953Y578646D01*
X360950Y578649D01*
X358253Y578649D01*
X357565Y578748D01*
X357391Y578834D01*
X357199Y579507D01*
X357199Y580188D01*
X357483Y580756D01*
X358054Y580851D01*
X365546Y580851D01*
X366130Y580753D01*
X366503Y580473D01*
X366600Y579601D01*
X366505Y578935D01*
X366037Y578748D01*
X365347Y578649D01*
X363350Y578649D01*
X363339Y578641D01*
X363332Y578646D01*
X362832Y578446D01*
X362807Y578405D01*
X362801Y578400D01*
X362801Y575700D01*
X362812Y575685D01*
X362808Y575675D01*
X363108Y575175D01*
X363142Y575161D01*
X363150Y575151D01*
X365842Y575151D01*
X366413Y574961D01*
X366601Y574491D01*
X366601Y573612D01*
X366317Y573044D01*
X365845Y572949D01*
X357670Y572949D01*
G37*
%LPD*%
%LPC*%
G36*
X340076Y551912D02*
X340076Y551912D01*
X340073Y551910D01*
X340072Y551914D01*
X339472Y552214D01*
X339471Y552214D01*
X332772Y555414D01*
X332184Y555708D01*
X331797Y556288D01*
X331701Y556862D01*
X331988Y557436D01*
X332574Y557827D01*
X339270Y561025D01*
X339960Y561321D01*
X340433Y561321D01*
X340909Y560940D01*
X341199Y560165D01*
X341105Y559597D01*
X340623Y559212D01*
X339428Y558614D01*
X339419Y558597D01*
X339408Y558595D01*
X339108Y558095D01*
X339109Y558084D01*
X339103Y558079D01*
X339106Y558074D01*
X339101Y558070D01*
X339101Y555370D01*
X339104Y555365D01*
X339101Y555362D01*
X339201Y554762D01*
X339228Y554737D01*
X339231Y554725D01*
X340427Y554226D01*
X341009Y553838D01*
X341198Y553270D01*
X341005Y552692D01*
X340618Y552110D01*
X340132Y551916D01*
X340116Y551889D01*
X340103Y551884D01*
X340096Y551860D01*
X340076Y551912D01*
G37*
%LPD*%
G36*
X250278Y207441D02*
X250278Y207441D01*
X250290Y207454D01*
X250301Y207452D01*
X250801Y207852D01*
X250803Y207862D01*
X250811Y207863D01*
X251211Y208463D01*
X251211Y208468D01*
X251214Y208469D01*
X254414Y215069D01*
X254414Y215070D01*
X254415Y215071D01*
X254715Y215771D01*
X254709Y215797D01*
X254716Y215808D01*
X254516Y216308D01*
X254501Y216317D01*
X254502Y216328D01*
X253902Y216828D01*
X253888Y216828D01*
X253886Y216837D01*
X253286Y217037D01*
X253265Y217030D01*
X253254Y217037D01*
X252654Y216837D01*
X252639Y216814D01*
X252626Y216811D01*
X249747Y210757D01*
X249608Y210826D01*
X247215Y216110D01*
X247214Y216111D01*
X247214Y216112D01*
X247014Y216512D01*
X247004Y216517D01*
X247005Y216525D01*
X246505Y217025D01*
X246472Y217029D01*
X246462Y217039D01*
X245862Y216939D01*
X245853Y216929D01*
X245846Y216933D01*
X245146Y216533D01*
X245139Y216517D01*
X245128Y216515D01*
X244828Y216015D01*
X244831Y215986D01*
X244823Y215974D01*
X245023Y215374D01*
X245028Y215372D01*
X245026Y215368D01*
X248626Y208068D01*
X248629Y208067D01*
X248628Y208065D01*
X248928Y207565D01*
X248952Y207555D01*
X248956Y207543D01*
X249656Y207343D01*
X249671Y207348D01*
X249678Y207341D01*
X250278Y207441D01*
G37*
%LPC*%
G36*
X52574Y77790D02*
X52574Y77790D01*
X51842Y77882D01*
X51092Y78163D01*
X50451Y78438D01*
X49923Y78878D01*
X49585Y79300D01*
X49322Y80002D01*
X49233Y80713D01*
X49322Y81512D01*
X49586Y82128D01*
X49936Y82653D01*
X50451Y83082D01*
X51092Y83357D01*
X51842Y83638D01*
X52574Y83730D01*
X54226Y83730D01*
X54958Y83638D01*
X55708Y83357D01*
X56353Y83081D01*
X56782Y82737D01*
X57202Y82233D01*
X57376Y81540D01*
X57467Y80807D01*
X57376Y79984D01*
X57206Y79392D01*
X56769Y78867D01*
X56333Y78431D01*
X55728Y78172D01*
X54203Y77790D01*
X52574Y77790D01*
G37*
%LPD*%
%LPC*%
G36*
X335953Y541819D02*
X335953Y541819D01*
X335261Y541918D01*
X334668Y542116D01*
X333976Y542413D01*
X333481Y542808D01*
X332985Y543205D01*
X332590Y543699D01*
X332193Y544295D01*
X331896Y544888D01*
X331698Y545581D01*
X331599Y546174D01*
X331599Y546867D01*
X331699Y547563D01*
X331798Y548255D01*
X332094Y548848D01*
X332389Y549438D01*
X332871Y549824D01*
X333438Y549918D01*
X334116Y549434D01*
X334501Y548953D01*
X334501Y548485D01*
X334109Y547897D01*
X334109Y547893D01*
X334106Y547892D01*
X333806Y547292D01*
X333809Y547276D01*
X333801Y547270D01*
X333801Y546570D01*
X333804Y546566D01*
X333801Y546563D01*
X333901Y545863D01*
X333909Y545855D01*
X333906Y545848D01*
X334206Y545248D01*
X334213Y545245D01*
X334212Y545239D01*
X334612Y544739D01*
X334622Y544737D01*
X334623Y544729D01*
X335223Y544329D01*
X335232Y544330D01*
X335234Y544323D01*
X335834Y544123D01*
X335841Y544125D01*
X335843Y544121D01*
X336543Y544021D01*
X336552Y544026D01*
X336557Y544021D01*
X337257Y544121D01*
X337263Y544128D01*
X337264Y544128D01*
X337266Y544129D01*
X337272Y544126D01*
X337872Y544426D01*
X337875Y544433D01*
X337881Y544432D01*
X338381Y544832D01*
X338383Y544842D01*
X338391Y544843D01*
X338791Y545443D01*
X338790Y545452D01*
X338797Y545454D01*
X338997Y546054D01*
X338993Y546065D01*
X338999Y546070D01*
X338999Y546770D01*
X338996Y546774D01*
X338999Y546777D01*
X338899Y547477D01*
X338890Y547486D01*
X338893Y547494D01*
X338302Y548578D01*
X338395Y549046D01*
X338879Y549529D01*
X339472Y549826D01*
X339484Y549851D01*
X339497Y549856D01*
X339504Y549880D01*
X339524Y549828D01*
X339536Y549833D01*
X339542Y549821D01*
X340123Y549725D01*
X340510Y549242D01*
X340804Y548751D01*
X341002Y547958D01*
X341005Y547956D01*
X341003Y547954D01*
X341201Y547362D01*
X341201Y546077D01*
X341003Y545385D01*
X340804Y544788D01*
X340507Y544096D01*
X340113Y543603D01*
X339617Y543107D01*
X339119Y542708D01*
X338627Y542315D01*
X337936Y542117D01*
X337935Y542116D01*
X337934Y542117D01*
X337339Y541918D01*
X336647Y541819D01*
X335953Y541819D01*
G37*
%LPD*%
%LPC*%
G36*
X361653Y540549D02*
X361653Y540549D01*
X360957Y540649D01*
X360265Y540748D01*
X359672Y541044D01*
X359077Y541342D01*
X358585Y541735D01*
X358188Y542231D01*
X358131Y542245D01*
X358129Y542239D01*
X358123Y542241D01*
X358089Y542218D01*
X358088Y542219D01*
X358091Y542227D01*
X357693Y542825D01*
X357396Y543419D01*
X357197Y544015D01*
X356999Y544707D01*
X356999Y545996D01*
X357098Y546687D01*
X357394Y547378D01*
X357692Y547874D01*
X358082Y548459D01*
X358646Y548647D01*
X359223Y548358D01*
X359805Y547873D01*
X359898Y547407D01*
X359606Y546822D01*
X359306Y546222D01*
X359306Y546220D01*
X359306Y546219D01*
X359308Y546211D01*
X359301Y546207D01*
X359201Y545507D01*
X359204Y545502D01*
X359201Y545500D01*
X359201Y544900D01*
X359209Y544889D01*
X359205Y544881D01*
X359505Y544181D01*
X359507Y544179D01*
X359506Y544178D01*
X359806Y543578D01*
X359819Y543571D01*
X359819Y543562D01*
X360319Y543162D01*
X360327Y543161D01*
X360328Y543156D01*
X360928Y542856D01*
X360938Y542858D01*
X360939Y542858D01*
X360943Y542851D01*
X361643Y542751D01*
X361652Y542756D01*
X361657Y542751D01*
X362357Y542851D01*
X362358Y542852D01*
X362358Y542851D01*
X362958Y542951D01*
X362968Y542962D01*
X362977Y542959D01*
X363577Y543359D01*
X363582Y543372D01*
X363591Y543373D01*
X363991Y543973D01*
X363991Y543977D01*
X363994Y543978D01*
X364294Y544578D01*
X364292Y544589D01*
X364299Y544592D01*
X364399Y545192D01*
X364396Y545197D01*
X364399Y545200D01*
X364399Y545900D01*
X364393Y545908D01*
X364397Y545914D01*
X364197Y546614D01*
X364187Y546621D01*
X364189Y546630D01*
X363894Y547023D01*
X363705Y547591D01*
X363985Y547964D01*
X364669Y548453D01*
X365236Y548548D01*
X365713Y548166D01*
X366106Y547577D01*
X366303Y547085D01*
X366502Y546290D01*
X366601Y545696D01*
X366601Y545004D01*
X366502Y544411D01*
X366304Y543718D01*
X366006Y543122D01*
X365709Y542529D01*
X365215Y542035D01*
X365215Y542031D01*
X365212Y542031D01*
X364818Y541539D01*
X363631Y540946D01*
X363035Y540747D01*
X362343Y540549D01*
X361653Y540549D01*
G37*
%LPD*%
%LPC*%
G36*
X199997Y457479D02*
X199997Y457479D01*
X199519Y458244D01*
X199519Y461024D01*
X199811Y462289D01*
X201066Y462579D01*
X202023Y462196D01*
X202121Y460627D01*
X202130Y460616D01*
X202126Y460608D01*
X202626Y459608D01*
X202654Y459594D01*
X202660Y459582D01*
X204060Y459282D01*
X204064Y459284D01*
X204065Y459282D01*
X204074Y459282D01*
X204078Y459285D01*
X204081Y459282D01*
X205381Y459582D01*
X205405Y459610D01*
X205417Y459614D01*
X205817Y460814D01*
X205814Y460821D01*
X205819Y460824D01*
X206017Y462307D01*
X206793Y463083D01*
X207566Y463180D01*
X208833Y462790D01*
X209321Y461620D01*
X209321Y457576D01*
X208068Y457479D01*
X199997Y457479D01*
G37*
%LPD*%
G36*
X251908Y221241D02*
X251908Y221241D01*
X251923Y221257D01*
X251935Y221255D01*
X252235Y221555D01*
X252236Y221567D01*
X252241Y221571D01*
X252238Y221576D01*
X252239Y221582D01*
X252249Y221590D01*
X252249Y227690D01*
X252245Y227696D01*
X252248Y227700D01*
X252148Y228200D01*
X252125Y228221D01*
X252122Y228234D01*
X251722Y228434D01*
X251706Y228431D01*
X251700Y228439D01*
X251100Y228439D01*
X251093Y228434D01*
X251088Y228438D01*
X250688Y228338D01*
X250667Y228312D01*
X250654Y228308D01*
X250454Y227808D01*
X250455Y227805D01*
X250453Y227803D01*
X250458Y227796D01*
X250458Y227795D01*
X250451Y227790D01*
X250451Y224338D01*
X249639Y225420D01*
X247840Y227919D01*
X247834Y227921D01*
X247835Y227925D01*
X247535Y228225D01*
X247521Y228227D01*
X247518Y228236D01*
X247018Y228436D01*
X247005Y228432D01*
X247000Y228439D01*
X246500Y228439D01*
X246487Y228430D01*
X246482Y228426D01*
X246470Y228429D01*
X246070Y228129D01*
X246064Y228108D01*
X246056Y228102D01*
X246052Y228100D01*
X245952Y227600D01*
X245955Y227593D01*
X245951Y227590D01*
X245951Y221990D01*
X245955Y221984D01*
X245952Y221980D01*
X246052Y221480D01*
X246072Y221463D01*
X246073Y221449D01*
X246373Y221249D01*
X246393Y221250D01*
X246400Y221241D01*
X247100Y221241D01*
X247107Y221246D01*
X247112Y221242D01*
X247512Y221342D01*
X247531Y221365D01*
X247544Y221368D01*
X247744Y221768D01*
X247741Y221784D01*
X247749Y221790D01*
X247749Y225142D01*
X250361Y221660D01*
X250366Y221659D01*
X250365Y221655D01*
X250765Y221255D01*
X250785Y221252D01*
X250790Y221242D01*
X251290Y221142D01*
X251302Y221147D01*
X251308Y221141D01*
X251908Y221241D01*
G37*
G36*
X176920Y293755D02*
X176920Y293755D01*
X176922Y293757D01*
X176923Y293756D01*
X177594Y293991D01*
X177595Y293992D01*
X177596Y293992D01*
X178198Y294370D01*
X178199Y294372D01*
X178201Y294372D01*
X178703Y294874D01*
X178703Y294876D01*
X178705Y294877D01*
X179083Y295479D01*
X179083Y295480D01*
X179084Y295481D01*
X179319Y296152D01*
X179319Y296154D01*
X179320Y296155D01*
X179399Y296861D01*
X179399Y296862D01*
X179398Y296863D01*
X179399Y296864D01*
X179320Y297570D01*
X179318Y297572D01*
X179319Y297573D01*
X179084Y298244D01*
X179083Y298245D01*
X179083Y298246D01*
X178705Y298848D01*
X178703Y298849D01*
X178703Y298851D01*
X178201Y299353D01*
X178199Y299353D01*
X178198Y299355D01*
X177596Y299733D01*
X177595Y299733D01*
X177594Y299734D01*
X176923Y299969D01*
X176921Y299969D01*
X176920Y299970D01*
X176214Y300049D01*
X176212Y300048D01*
X176211Y300049D01*
X175505Y299970D01*
X175503Y299968D01*
X175502Y299969D01*
X174831Y299734D01*
X174830Y299733D01*
X174829Y299733D01*
X174227Y299355D01*
X174226Y299353D01*
X174224Y299353D01*
X173722Y298851D01*
X173722Y298849D01*
X173720Y298848D01*
X173342Y298246D01*
X173342Y298245D01*
X173341Y298244D01*
X173106Y297573D01*
X173107Y297571D01*
X173105Y297570D01*
X173026Y296864D01*
X173027Y296862D01*
X173026Y296861D01*
X173105Y296155D01*
X173107Y296153D01*
X173106Y296152D01*
X173341Y295481D01*
X173342Y295480D01*
X173342Y295479D01*
X173720Y294877D01*
X173722Y294876D01*
X173722Y294874D01*
X174224Y294372D01*
X174226Y294372D01*
X174227Y294370D01*
X174829Y293992D01*
X174830Y293992D01*
X174831Y293991D01*
X175502Y293756D01*
X175504Y293757D01*
X175505Y293755D01*
X176211Y293676D01*
X176213Y293677D01*
X176214Y293676D01*
X176920Y293755D01*
G37*
G36*
X97545Y392180D02*
X97545Y392180D01*
X97547Y392182D01*
X97548Y392181D01*
X98219Y392416D01*
X98220Y392417D01*
X98221Y392417D01*
X98823Y392795D01*
X98824Y392797D01*
X98826Y392797D01*
X99328Y393299D01*
X99328Y393301D01*
X99330Y393302D01*
X99708Y393904D01*
X99708Y393905D01*
X99709Y393906D01*
X99944Y394577D01*
X99944Y394579D01*
X99945Y394580D01*
X100024Y395286D01*
X100024Y395287D01*
X100023Y395288D01*
X100024Y395289D01*
X99945Y395995D01*
X99943Y395997D01*
X99944Y395998D01*
X99709Y396669D01*
X99708Y396670D01*
X99708Y396671D01*
X99330Y397273D01*
X99328Y397274D01*
X99328Y397276D01*
X98826Y397778D01*
X98824Y397778D01*
X98823Y397780D01*
X98221Y398158D01*
X98220Y398158D01*
X98219Y398159D01*
X97548Y398394D01*
X97546Y398394D01*
X97545Y398395D01*
X96839Y398474D01*
X96837Y398473D01*
X96836Y398474D01*
X96130Y398395D01*
X96128Y398393D01*
X96127Y398394D01*
X95456Y398159D01*
X95455Y398158D01*
X95454Y398158D01*
X94852Y397780D01*
X94851Y397778D01*
X94849Y397778D01*
X94347Y397276D01*
X94347Y397274D01*
X94345Y397273D01*
X93967Y396671D01*
X93967Y396670D01*
X93966Y396669D01*
X93731Y395998D01*
X93732Y395996D01*
X93730Y395995D01*
X93651Y395289D01*
X93652Y395287D01*
X93651Y395286D01*
X93730Y394580D01*
X93732Y394578D01*
X93731Y394577D01*
X93966Y393906D01*
X93967Y393905D01*
X93967Y393904D01*
X94345Y393302D01*
X94347Y393301D01*
X94347Y393299D01*
X94849Y392797D01*
X94851Y392797D01*
X94852Y392795D01*
X95454Y392417D01*
X95455Y392417D01*
X95456Y392416D01*
X96127Y392181D01*
X96129Y392182D01*
X96130Y392180D01*
X96836Y392101D01*
X96838Y392102D01*
X96839Y392101D01*
X97545Y392180D01*
G37*
G36*
X233076Y207441D02*
X233076Y207441D01*
X233096Y207460D01*
X233109Y207460D01*
X233409Y207860D01*
X233409Y207867D01*
X233412Y207869D01*
X233409Y207872D01*
X233409Y207877D01*
X233419Y207882D01*
X233519Y208482D01*
X233516Y208487D01*
X233519Y208490D01*
X233519Y215990D01*
X233516Y215995D01*
X233519Y215998D01*
X233419Y216598D01*
X233395Y216621D01*
X233392Y216634D01*
X232792Y216934D01*
X232776Y216931D01*
X232770Y216939D01*
X232070Y216939D01*
X232055Y216928D01*
X232045Y216932D01*
X231545Y216632D01*
X231543Y216628D01*
X231539Y216628D01*
X231039Y216228D01*
X231039Y216226D01*
X231036Y216226D01*
X229536Y214826D01*
X229536Y214821D01*
X229532Y214822D01*
X229032Y214222D01*
X229032Y214210D01*
X229024Y214208D01*
X228824Y213708D01*
X228825Y213708D01*
X228824Y213707D01*
X228825Y213707D01*
X228833Y213675D01*
X228829Y213663D01*
X229229Y213063D01*
X229236Y213060D01*
X229235Y213055D01*
X229735Y212555D01*
X229762Y212552D01*
X229770Y212541D01*
X230370Y212541D01*
X230386Y212553D01*
X230397Y212549D01*
X230956Y212922D01*
X231121Y212675D01*
X231121Y207990D01*
X231132Y207975D01*
X231128Y207965D01*
X231428Y207465D01*
X231457Y207453D01*
X231464Y207441D01*
X232264Y207341D01*
X232272Y207346D01*
X232276Y207341D01*
X233076Y207441D01*
G37*
G36*
X238217Y221154D02*
X238217Y221154D01*
X238230Y221151D01*
X238630Y221451D01*
X238634Y221466D01*
X238644Y221468D01*
X239330Y222841D01*
X241875Y222841D01*
X242157Y222465D01*
X242555Y221570D01*
X242570Y221562D01*
X242570Y221551D01*
X242970Y221251D01*
X242992Y221251D01*
X243000Y221241D01*
X243400Y221241D01*
X243413Y221250D01*
X243422Y221246D01*
X244022Y221546D01*
X244032Y221566D01*
X244044Y221568D01*
X244244Y221968D01*
X244240Y221992D01*
X244248Y222002D01*
X244148Y222402D01*
X244142Y222407D01*
X244144Y222411D01*
X241444Y228011D01*
X241440Y228014D01*
X241441Y228017D01*
X241241Y228317D01*
X241224Y228323D01*
X241222Y228334D01*
X240822Y228534D01*
X240800Y228530D01*
X240790Y228538D01*
X240290Y228438D01*
X240280Y228427D01*
X240270Y228429D01*
X239870Y228129D01*
X239866Y228114D01*
X239856Y228112D01*
X239656Y227712D01*
X237156Y222612D01*
X237158Y222603D01*
X237152Y222600D01*
X237052Y222100D01*
X237056Y222090D01*
X237057Y222088D01*
X237058Y222086D01*
X237052Y222078D01*
X237152Y221678D01*
X237173Y221661D01*
X237175Y221648D01*
X237675Y221348D01*
X237681Y221348D01*
X237682Y221344D01*
X238182Y221144D01*
X238217Y221154D01*
G37*
G36*
X234110Y221342D02*
X234110Y221342D01*
X234113Y221345D01*
X234116Y221343D01*
X234716Y221543D01*
X234719Y221548D01*
X234722Y221546D01*
X235122Y221746D01*
X235125Y221752D01*
X235130Y221751D01*
X235530Y222051D01*
X235536Y222075D01*
X235548Y222080D01*
X235648Y222580D01*
X235637Y222603D01*
X235642Y222615D01*
X235342Y223115D01*
X235334Y223119D01*
X235335Y223125D01*
X234935Y223525D01*
X234908Y223529D01*
X234900Y223539D01*
X234600Y223539D01*
X234585Y223528D01*
X234575Y223532D01*
X234077Y223233D01*
X233688Y223039D01*
X232709Y223039D01*
X232224Y223233D01*
X231835Y223525D01*
X231543Y223914D01*
X231347Y224404D01*
X231250Y224890D01*
X231348Y225380D01*
X231446Y225869D01*
X231734Y226253D01*
X232223Y226547D01*
X232612Y226741D01*
X233591Y226741D01*
X234078Y226546D01*
X234575Y226248D01*
X234593Y226250D01*
X234600Y226241D01*
X234900Y226241D01*
X234921Y226257D01*
X234935Y226255D01*
X235335Y226655D01*
X235336Y226664D01*
X235342Y226665D01*
X235642Y227165D01*
X235641Y227180D01*
X235647Y227185D01*
X235646Y227187D01*
X235649Y227190D01*
X235649Y227590D01*
X235630Y227616D01*
X235630Y227629D01*
X234830Y228229D01*
X234820Y228229D01*
X234818Y228236D01*
X234318Y228436D01*
X234312Y228434D01*
X234310Y228438D01*
X233310Y228638D01*
X233297Y228632D01*
X233290Y228638D01*
X232795Y228539D01*
X232300Y228539D01*
X232289Y228531D01*
X232282Y228536D01*
X231282Y228136D01*
X231277Y228128D01*
X231270Y228129D01*
X230470Y227529D01*
X230468Y227520D01*
X230461Y227520D01*
X229861Y226720D01*
X229861Y226710D01*
X229854Y226708D01*
X229654Y226208D01*
X229656Y226203D01*
X229652Y226202D01*
X229552Y225802D01*
X229553Y225800D01*
X229552Y225800D01*
X229452Y225300D01*
X229455Y225293D01*
X229451Y225290D01*
X229451Y224690D01*
X229455Y224684D01*
X229452Y224680D01*
X229652Y223680D01*
X229659Y223674D01*
X229656Y223668D01*
X229855Y223270D01*
X230054Y222772D01*
X230062Y222767D01*
X230061Y222760D01*
X230361Y222360D01*
X230370Y222358D01*
X230370Y222351D01*
X231170Y221751D01*
X231180Y221751D01*
X231182Y221744D01*
X232182Y221344D01*
X232188Y221346D01*
X232190Y221342D01*
X232689Y221242D01*
X233088Y221142D01*
X233102Y221148D01*
X233110Y221142D01*
X234110Y221342D01*
G37*
%LPC*%
G36*
X180486Y480078D02*
X180486Y480078D01*
X179410Y480763D01*
X178920Y482037D01*
X179018Y483312D01*
X179801Y484388D01*
X180976Y484780D01*
X182351Y484682D01*
X183429Y483800D01*
X183921Y482620D01*
X183921Y481546D01*
X183138Y480470D01*
X181962Y479980D01*
X180486Y480078D01*
G37*
%LPD*%
G36*
X171874Y467181D02*
X171874Y467181D01*
X171891Y467196D01*
X171903Y467193D01*
X172903Y468093D01*
X172908Y468119D01*
X172919Y468127D01*
X173019Y469527D01*
X173015Y469533D01*
X173019Y469538D01*
X172819Y470838D01*
X172816Y470840D01*
X172818Y470842D01*
X172718Y471242D01*
X172690Y471265D01*
X172686Y471277D01*
X171486Y471677D01*
X171475Y471673D01*
X171470Y471679D01*
X169970Y471679D01*
X169957Y471670D01*
X169948Y471674D01*
X168948Y471174D01*
X168936Y471150D01*
X168923Y471146D01*
X168523Y469946D01*
X168528Y469933D01*
X168521Y469927D01*
X168621Y468127D01*
X168634Y468112D01*
X168631Y468100D01*
X169231Y467300D01*
X169256Y467293D01*
X169263Y467281D01*
X170563Y467081D01*
X170570Y467085D01*
X170574Y467081D01*
X171874Y467181D01*
G37*
%LPC*%
G36*
X56240Y93390D02*
X56240Y93390D01*
X56120Y93450D01*
X56105Y93454D01*
X56092Y93463D01*
X55958Y93489D01*
X55952Y93490D01*
X55951Y93490D01*
X55950Y93490D01*
X55840Y93490D01*
X55433Y93693D01*
X55390Y93780D01*
X55366Y93809D01*
X55319Y93879D01*
X55263Y93935D01*
X55090Y94280D01*
X55066Y94309D01*
X55019Y94379D01*
X54963Y94435D01*
X54902Y94556D01*
X54830Y94772D01*
X54830Y94910D01*
X54827Y94925D01*
X54829Y94940D01*
X54792Y95072D01*
X54791Y95079D01*
X54790Y95079D01*
X54790Y95080D01*
X54730Y95200D01*
X54730Y95510D01*
X54722Y95547D01*
X54711Y95630D01*
X54630Y95872D01*
X54630Y96210D01*
X54622Y96247D01*
X54617Y96282D01*
X54617Y96292D01*
X54615Y96295D01*
X54611Y96330D01*
X54530Y96572D01*
X54530Y96710D01*
X54527Y96725D01*
X54529Y96740D01*
X54492Y96872D01*
X54491Y96879D01*
X54490Y96879D01*
X54490Y96880D01*
X54430Y97000D01*
X54430Y97310D01*
X54427Y97325D01*
X54429Y97340D01*
X54392Y97472D01*
X54391Y97479D01*
X54390Y97479D01*
X54390Y97480D01*
X54330Y97600D01*
X54330Y97710D01*
X54327Y97725D01*
X54329Y97740D01*
X54292Y97872D01*
X54291Y97879D01*
X54290Y97879D01*
X54290Y97880D01*
X54165Y98130D01*
X55788Y98130D01*
X56004Y98058D01*
X56180Y97970D01*
X56203Y97964D01*
X56230Y97949D01*
X56745Y97778D01*
X56881Y97641D01*
X56908Y97625D01*
X56939Y97594D01*
X57208Y97415D01*
X57355Y97268D01*
X57497Y97054D01*
X57581Y96718D01*
X57597Y96688D01*
X57610Y96640D01*
X57770Y96320D01*
X57770Y95910D01*
X57777Y95880D01*
X57777Y95835D01*
X57870Y95372D01*
X57870Y95000D01*
X57810Y94880D01*
X57806Y94865D01*
X57797Y94852D01*
X57771Y94718D01*
X57770Y94712D01*
X57770Y94711D01*
X57770Y94710D01*
X57770Y94600D01*
X57710Y94480D01*
X57706Y94465D01*
X57697Y94452D01*
X57671Y94318D01*
X57670Y94312D01*
X57670Y94311D01*
X57670Y94310D01*
X57670Y94200D01*
X57538Y93935D01*
X57481Y93879D01*
X57461Y93847D01*
X57410Y93780D01*
X57367Y93693D01*
X57280Y93650D01*
X57251Y93626D01*
X57181Y93579D01*
X57125Y93523D01*
X57060Y93490D01*
X56950Y93490D01*
X56913Y93482D01*
X56830Y93471D01*
X56588Y93390D01*
X56240Y93390D01*
G37*
%LPD*%
%LPC*%
G36*
X202690Y410775D02*
X202690Y410775D01*
X202689Y410775D01*
X202688Y410776D01*
X202292Y410934D01*
X204691Y412085D01*
X205790Y412585D01*
X205821Y412598D01*
X205821Y409963D01*
X205170Y409684D01*
X202690Y410775D01*
G37*
%LPD*%
%LPC*%
G36*
X327649Y225139D02*
X327649Y225139D01*
X327649Y227065D01*
X328016Y227341D01*
X329388Y227341D01*
X329966Y227052D01*
X330351Y226475D01*
X330351Y225807D01*
X329971Y225333D01*
X329293Y225139D01*
X327649Y225139D01*
G37*
%LPD*%
%LPC*%
G36*
X303649Y225039D02*
X303649Y225039D01*
X303649Y226965D01*
X304016Y227241D01*
X305292Y227241D01*
X305868Y227049D01*
X306251Y226475D01*
X306251Y225804D01*
X305963Y225324D01*
X305584Y225039D01*
X303649Y225039D01*
G37*
%LPD*%
G36*
X337262Y556022D02*
X337262Y556022D01*
X337284Y556049D01*
X337291Y556055D01*
X337290Y556057D01*
X337299Y556069D01*
X337298Y556069D01*
X337299Y556070D01*
X337299Y557470D01*
X337298Y557471D01*
X337299Y557472D01*
X337296Y557475D01*
X337263Y557517D01*
X337249Y557507D01*
X337234Y557517D01*
X336634Y557317D01*
X336631Y557312D01*
X336628Y557314D01*
X335428Y556714D01*
X335427Y556713D01*
X335426Y556713D01*
X335425Y556709D01*
X335402Y556661D01*
X335418Y556653D01*
X335415Y556635D01*
X335615Y556435D01*
X335629Y556433D01*
X335631Y556425D01*
X336831Y555925D01*
X336852Y555930D01*
X336862Y555922D01*
X337262Y556022D01*
G37*
G36*
X362645Y554459D02*
X362645Y554459D01*
X362687Y554468D01*
X362683Y554488D01*
X362699Y554500D01*
X362699Y555900D01*
X362678Y555928D01*
X362677Y555941D01*
X362377Y556141D01*
X362339Y556139D01*
X362328Y556144D01*
X361128Y555544D01*
X361102Y555491D01*
X361110Y555487D01*
X361106Y555478D01*
X361306Y555078D01*
X361327Y555068D01*
X361329Y555055D01*
X362629Y554455D01*
X362634Y554456D01*
X362637Y554453D01*
X362645Y554459D01*
G37*
%LPC*%
G36*
X241207Y224331D02*
X241207Y224331D01*
X241200Y224339D01*
X240230Y224339D01*
X240154Y224492D01*
X240545Y225470D01*
X240600Y225580D01*
X241231Y224319D01*
X241207Y224331D01*
G37*
%LPD*%
D10*
X287400Y412100D02*
X293400Y412100D01*
X293400Y420100D01*
X271400Y412100D02*
X265400Y412100D01*
X265400Y420100D01*
D11*
X233310Y36950D03*
D12*
X233310Y36550D03*
D13*
X233110Y36150D03*
X233110Y35750D03*
X233110Y35350D03*
X233110Y34950D03*
D12*
X232910Y34550D03*
D14*
X230310Y34150D03*
X230310Y33750D03*
X230310Y33350D03*
D15*
X231910Y32950D03*
D16*
X232310Y32550D03*
X232310Y32150D03*
X232310Y31750D03*
X232310Y31350D03*
X232310Y30950D03*
D11*
X232110Y30550D03*
D14*
X230310Y30150D03*
X230310Y29750D03*
X230310Y29350D03*
D17*
X232710Y28950D03*
D13*
X233110Y28550D03*
X233110Y28150D03*
X233110Y27750D03*
X233110Y27350D03*
X233110Y26950D03*
D17*
X233110Y26550D03*
D10*
X256300Y120300D02*
X250300Y126300D01*
X256300Y120300D02*
X256300Y108300D01*
X250300Y102300D01*
X227561Y121083D02*
X232300Y126300D01*
X227561Y121083D02*
X227398Y120901D01*
X227238Y120716D01*
X227084Y120526D01*
X226934Y120333D01*
X226789Y120137D01*
X226649Y119936D01*
X226514Y119733D01*
X226383Y119526D01*
X226258Y119316D01*
X226138Y119103D01*
X226023Y118888D01*
X225914Y118669D01*
X225810Y118448D01*
X225711Y118224D01*
X225618Y117998D01*
X225530Y117770D01*
X225448Y117540D01*
X225372Y117308D01*
X225301Y117074D01*
X225236Y116838D01*
X225177Y116601D01*
X225124Y116363D01*
X225077Y116123D01*
X225035Y115882D01*
X224999Y115640D01*
X224969Y115398D01*
X224946Y115154D01*
X224928Y114911D01*
X224916Y114667D01*
X224910Y114422D01*
X224910Y114178D01*
X224916Y113933D01*
X224928Y113689D01*
X224946Y113446D01*
X224969Y113202D01*
X224999Y112960D01*
X225035Y112718D01*
X225077Y112477D01*
X225124Y112237D01*
X225177Y111999D01*
X225236Y111762D01*
X225301Y111526D01*
X225372Y111292D01*
X225448Y111060D01*
X225530Y110830D01*
X225618Y110602D01*
X225711Y110376D01*
X225810Y110152D01*
X225914Y109931D01*
X226023Y109712D01*
X226138Y109497D01*
X226258Y109284D01*
X226383Y109074D01*
X226514Y108867D01*
X226649Y108664D01*
X226789Y108463D01*
X226934Y108267D01*
X227084Y108074D01*
X227238Y107884D01*
X227398Y107699D01*
X227561Y107517D01*
X232300Y102300D01*
D18*
X263398Y104140D03*
D10*
X292100Y110006D02*
X292100Y118594D01*
X266700Y118594D02*
X266700Y110006D01*
X276716Y121388D02*
X282084Y121388D01*
X4750Y530800D02*
X4750Y584200D01*
X312750Y584200D02*
X312750Y530800D01*
X4750Y530800D01*
X321550Y654800D02*
X376550Y654800D01*
X376550Y647300D01*
X376550Y589800D01*
X321550Y589800D01*
X321550Y647300D01*
X321550Y654800D01*
X321550Y647300D02*
X376550Y647300D01*
X106000Y132800D02*
X103500Y132800D01*
X103500Y125800D01*
X148000Y132800D02*
X150500Y132800D01*
X150500Y125800D01*
X103500Y102800D02*
X103500Y95800D01*
X106000Y95800D01*
X148000Y95800D02*
X150500Y95800D01*
X150500Y102800D01*
D19*
X98600Y99600D03*
D10*
X59182Y215487D02*
X169418Y215487D01*
X58182Y292513D02*
X58069Y292494D01*
X57957Y292472D01*
X57846Y292445D01*
X57736Y292415D01*
X57627Y292380D01*
X57519Y292342D01*
X57412Y292301D01*
X57307Y292256D01*
X57204Y292207D01*
X57102Y292155D01*
X57002Y292099D01*
X56904Y292040D01*
X56809Y291978D01*
X56715Y291912D01*
X56624Y291843D01*
X56535Y291772D01*
X56448Y291697D01*
X56364Y291619D01*
X56283Y291539D01*
X56205Y291455D01*
X56129Y291369D01*
X56057Y291281D01*
X55988Y291190D01*
X55921Y291097D01*
X55858Y291002D01*
X55798Y290904D01*
X55742Y290805D01*
X55689Y290704D01*
X55640Y290600D01*
X55594Y290496D01*
X55551Y290390D01*
X55513Y290282D01*
X55478Y290173D01*
X55446Y290063D01*
X55419Y289952D01*
X55395Y289840D01*
X55375Y289728D01*
X55359Y289615D01*
X55347Y289501D01*
X55339Y289387D01*
X55335Y289273D01*
X55334Y289158D01*
X55338Y289044D01*
X55345Y288930D01*
X55356Y288816D01*
X55372Y288703D01*
X169418Y215487D02*
X169548Y215504D01*
X169677Y215525D01*
X169806Y215550D01*
X169934Y215578D01*
X170061Y215611D01*
X170187Y215647D01*
X170312Y215688D01*
X170435Y215732D01*
X170557Y215779D01*
X170678Y215831D01*
X170797Y215885D01*
X170914Y215944D01*
X171029Y216006D01*
X171143Y216071D01*
X171255Y216140D01*
X171364Y216213D01*
X171471Y216288D01*
X171576Y216367D01*
X171678Y216449D01*
X171778Y216534D01*
X171875Y216621D01*
X171970Y216712D01*
X172062Y216806D01*
X172151Y216902D01*
X172237Y217001D01*
X172319Y217102D01*
X172399Y217206D01*
X172476Y217313D01*
X172549Y217421D01*
X172619Y217532D01*
X172686Y217645D01*
X172749Y217760D01*
X172809Y217876D01*
X172865Y217995D01*
X172918Y218115D01*
X172967Y218236D01*
X173012Y218359D01*
X173054Y218484D01*
X173092Y218609D01*
X173125Y218736D01*
X173156Y218863D01*
X173182Y218992D01*
X173204Y219121D01*
X173223Y219251D01*
X173237Y219381D01*
X173248Y219512D01*
X173254Y219643D01*
X173257Y219774D01*
X173256Y219905D01*
X173250Y220036D01*
X173241Y220166D01*
X173228Y220297D01*
X59182Y215487D02*
X59060Y215489D01*
X58938Y215495D01*
X58816Y215505D01*
X58695Y215518D01*
X58574Y215536D01*
X58454Y215557D01*
X58334Y215582D01*
X58215Y215611D01*
X58098Y215644D01*
X57981Y215681D01*
X57866Y215721D01*
X57752Y215765D01*
X57640Y215813D01*
X57529Y215864D01*
X57420Y215919D01*
X57312Y215977D01*
X57207Y216039D01*
X57103Y216104D01*
X57002Y216172D01*
X56903Y216243D01*
X56806Y216318D01*
X56712Y216396D01*
X56620Y216476D01*
X56531Y216560D01*
X56445Y216646D01*
X56361Y216735D01*
X56281Y216827D01*
X56203Y216921D01*
X56128Y217018D01*
X56057Y217117D01*
X55989Y217218D01*
X55924Y217322D01*
X55862Y217427D01*
X55804Y217535D01*
X55749Y217644D01*
X55698Y217755D01*
X55650Y217867D01*
X55606Y217981D01*
X55566Y218096D01*
X55529Y218213D01*
X55496Y218330D01*
X55467Y218449D01*
X55442Y218569D01*
X55421Y218689D01*
X55403Y218810D01*
X55390Y218931D01*
X55380Y219053D01*
X55374Y219175D01*
X55372Y219297D01*
X169417Y292513D02*
X169531Y292528D01*
X169645Y292540D01*
X169759Y292547D01*
X169873Y292551D01*
X169987Y292550D01*
X170102Y292546D01*
X170216Y292538D01*
X170329Y292526D01*
X170442Y292510D01*
X170555Y292490D01*
X170667Y292466D01*
X170778Y292439D01*
X170888Y292408D01*
X170997Y292373D01*
X171104Y292334D01*
X171211Y292292D01*
X171315Y292246D01*
X171418Y292196D01*
X171520Y292143D01*
X171619Y292087D01*
X171717Y292027D01*
X171812Y291964D01*
X171905Y291898D01*
X171996Y291828D01*
X172084Y291756D01*
X172170Y291680D01*
X172253Y291602D01*
X172334Y291521D01*
X172412Y291437D01*
X172486Y291351D01*
X172558Y291262D01*
X172627Y291170D01*
X172693Y291077D01*
X172755Y290981D01*
X172814Y290883D01*
X172870Y290783D01*
X172922Y290681D01*
X172970Y290578D01*
X173016Y290473D01*
X173057Y290366D01*
X173095Y290258D01*
X173129Y290149D01*
X173159Y290039D01*
X173186Y289928D01*
X173209Y289816D01*
X173228Y289703D01*
X169418Y292513D02*
X58182Y292513D01*
X55372Y288703D02*
X55372Y219297D01*
X172720Y247904D02*
X172562Y247906D01*
X172403Y247912D01*
X172245Y247922D01*
X172088Y247936D01*
X171930Y247953D01*
X171774Y247975D01*
X171617Y248000D01*
X171462Y248030D01*
X171307Y248063D01*
X171153Y248100D01*
X171000Y248141D01*
X170848Y248186D01*
X170698Y248235D01*
X170548Y248287D01*
X170400Y248343D01*
X170253Y248403D01*
X170108Y248466D01*
X169965Y248533D01*
X169823Y248603D01*
X169683Y248677D01*
X169545Y248755D01*
X169409Y248836D01*
X169275Y248920D01*
X169143Y249007D01*
X169013Y249098D01*
X168886Y249192D01*
X168761Y249289D01*
X168638Y249390D01*
X168518Y249493D01*
X168401Y249599D01*
X168286Y249708D01*
X168174Y249820D01*
X168065Y249935D01*
X167959Y250052D01*
X167856Y250172D01*
X167755Y250295D01*
X167658Y250420D01*
X167564Y250547D01*
X167473Y250677D01*
X167386Y250809D01*
X167302Y250943D01*
X167221Y251079D01*
X167143Y251217D01*
X167069Y251357D01*
X166999Y251499D01*
X166932Y251642D01*
X166869Y251787D01*
X166809Y251934D01*
X166753Y252082D01*
X166701Y252232D01*
X166652Y252382D01*
X166607Y252534D01*
X166566Y252687D01*
X166529Y252841D01*
X166496Y252996D01*
X166466Y253151D01*
X166441Y253308D01*
X166419Y253464D01*
X166402Y253622D01*
X166388Y253779D01*
X166378Y253937D01*
X166372Y254096D01*
X166370Y254254D01*
X166372Y254412D01*
X166378Y254571D01*
X166388Y254729D01*
X166402Y254886D01*
X166419Y255044D01*
X166441Y255200D01*
X166466Y255357D01*
X166496Y255512D01*
X166529Y255667D01*
X166566Y255821D01*
X166607Y255974D01*
X166652Y256126D01*
X166701Y256276D01*
X166753Y256426D01*
X166809Y256574D01*
X166869Y256721D01*
X166932Y256866D01*
X166999Y257009D01*
X167069Y257151D01*
X167143Y257291D01*
X167221Y257429D01*
X167302Y257565D01*
X167386Y257699D01*
X167473Y257831D01*
X167564Y257961D01*
X167658Y258088D01*
X167755Y258213D01*
X167856Y258336D01*
X167959Y258456D01*
X168065Y258573D01*
X168174Y258688D01*
X168286Y258800D01*
X168401Y258909D01*
X168518Y259015D01*
X168638Y259118D01*
X168761Y259219D01*
X168886Y259316D01*
X169013Y259410D01*
X169143Y259501D01*
X169275Y259588D01*
X169409Y259672D01*
X169545Y259753D01*
X169683Y259831D01*
X169823Y259905D01*
X169965Y259975D01*
X170108Y260042D01*
X170253Y260105D01*
X170400Y260165D01*
X170548Y260221D01*
X170698Y260273D01*
X170848Y260322D01*
X171000Y260367D01*
X171153Y260408D01*
X171307Y260445D01*
X171462Y260478D01*
X171617Y260508D01*
X171774Y260533D01*
X171930Y260555D01*
X172088Y260572D01*
X172245Y260586D01*
X172403Y260596D01*
X172562Y260602D01*
X172720Y260604D01*
X173228Y247904D02*
X173228Y220424D01*
X173228Y260604D02*
X173228Y289703D01*
X150368Y438563D02*
X103632Y438563D01*
X154178Y403447D02*
X154194Y403334D01*
X154205Y403220D01*
X154212Y403106D01*
X154216Y402992D01*
X154215Y402877D01*
X154211Y402763D01*
X154203Y402649D01*
X154191Y402535D01*
X154175Y402422D01*
X154155Y402310D01*
X154131Y402198D01*
X154104Y402087D01*
X154072Y401977D01*
X154037Y401868D01*
X153999Y401760D01*
X153956Y401654D01*
X153910Y401550D01*
X153861Y401446D01*
X153808Y401345D01*
X153752Y401246D01*
X153692Y401148D01*
X153629Y401053D01*
X153562Y400960D01*
X153493Y400869D01*
X153421Y400781D01*
X153345Y400695D01*
X153267Y400611D01*
X153186Y400531D01*
X153102Y400453D01*
X153015Y400378D01*
X152926Y400307D01*
X152835Y400238D01*
X152741Y400172D01*
X152646Y400110D01*
X152548Y400051D01*
X152448Y399995D01*
X152346Y399943D01*
X152243Y399894D01*
X152138Y399849D01*
X152031Y399808D01*
X151923Y399770D01*
X151814Y399735D01*
X151704Y399705D01*
X151593Y399678D01*
X151481Y399656D01*
X151368Y399637D01*
X103632Y438563D02*
X103502Y438546D01*
X103373Y438525D01*
X103244Y438500D01*
X103116Y438472D01*
X102989Y438439D01*
X102863Y438403D01*
X102738Y438362D01*
X102615Y438318D01*
X102493Y438271D01*
X102372Y438219D01*
X102253Y438165D01*
X102136Y438106D01*
X102021Y438044D01*
X101907Y437979D01*
X101795Y437910D01*
X101686Y437837D01*
X101579Y437762D01*
X101474Y437683D01*
X101372Y437601D01*
X101272Y437516D01*
X101175Y437429D01*
X101080Y437338D01*
X100988Y437244D01*
X100899Y437148D01*
X100813Y437049D01*
X100731Y436948D01*
X100651Y436844D01*
X100574Y436737D01*
X100501Y436629D01*
X100431Y436518D01*
X100364Y436405D01*
X100301Y436290D01*
X100241Y436174D01*
X100185Y436055D01*
X100132Y435935D01*
X100083Y435814D01*
X100038Y435691D01*
X99996Y435566D01*
X99958Y435441D01*
X99925Y435314D01*
X99894Y435187D01*
X99868Y435058D01*
X99846Y434929D01*
X99827Y434799D01*
X99813Y434669D01*
X99802Y434538D01*
X99796Y434407D01*
X99793Y434276D01*
X99794Y434145D01*
X99800Y434014D01*
X99809Y433884D01*
X99822Y433753D01*
X150368Y438563D02*
X150490Y438561D01*
X150612Y438555D01*
X150734Y438545D01*
X150855Y438532D01*
X150976Y438514D01*
X151096Y438493D01*
X151216Y438468D01*
X151335Y438439D01*
X151452Y438406D01*
X151569Y438369D01*
X151684Y438329D01*
X151798Y438285D01*
X151910Y438237D01*
X152021Y438186D01*
X152130Y438131D01*
X152238Y438073D01*
X152343Y438011D01*
X152447Y437946D01*
X152548Y437878D01*
X152647Y437807D01*
X152744Y437732D01*
X152838Y437654D01*
X152930Y437574D01*
X153019Y437490D01*
X153105Y437404D01*
X153189Y437315D01*
X153269Y437223D01*
X153347Y437129D01*
X153422Y437032D01*
X153493Y436933D01*
X153561Y436832D01*
X153626Y436728D01*
X153688Y436623D01*
X153746Y436515D01*
X153801Y436406D01*
X153852Y436295D01*
X153900Y436183D01*
X153944Y436069D01*
X153984Y435954D01*
X154021Y435837D01*
X154054Y435720D01*
X154083Y435601D01*
X154108Y435481D01*
X154129Y435361D01*
X154147Y435240D01*
X154160Y435119D01*
X154170Y434997D01*
X154176Y434875D01*
X154178Y434753D01*
X103633Y399637D02*
X103519Y399622D01*
X103405Y399610D01*
X103291Y399603D01*
X103177Y399599D01*
X103063Y399600D01*
X102948Y399604D01*
X102834Y399612D01*
X102721Y399624D01*
X102608Y399640D01*
X102495Y399660D01*
X102383Y399684D01*
X102272Y399711D01*
X102162Y399742D01*
X102053Y399777D01*
X101946Y399816D01*
X101839Y399858D01*
X101735Y399904D01*
X101632Y399954D01*
X101530Y400007D01*
X101431Y400063D01*
X101333Y400123D01*
X101238Y400186D01*
X101145Y400252D01*
X101054Y400322D01*
X100966Y400394D01*
X100880Y400470D01*
X100797Y400548D01*
X100716Y400629D01*
X100638Y400713D01*
X100564Y400799D01*
X100492Y400888D01*
X100423Y400980D01*
X100357Y401073D01*
X100295Y401169D01*
X100236Y401267D01*
X100180Y401367D01*
X100128Y401469D01*
X100080Y401572D01*
X100034Y401677D01*
X99993Y401784D01*
X99955Y401892D01*
X99921Y402001D01*
X99891Y402111D01*
X99864Y402222D01*
X99841Y402334D01*
X99822Y402447D01*
X103632Y399637D02*
X151368Y399637D01*
X154178Y403447D02*
X154178Y434753D01*
X100330Y425196D02*
X100488Y425194D01*
X100647Y425188D01*
X100805Y425178D01*
X100962Y425164D01*
X101120Y425147D01*
X101276Y425125D01*
X101433Y425100D01*
X101588Y425070D01*
X101743Y425037D01*
X101897Y425000D01*
X102050Y424959D01*
X102202Y424914D01*
X102352Y424865D01*
X102502Y424813D01*
X102650Y424757D01*
X102797Y424697D01*
X102942Y424634D01*
X103085Y424567D01*
X103227Y424497D01*
X103367Y424423D01*
X103505Y424345D01*
X103641Y424264D01*
X103775Y424180D01*
X103907Y424093D01*
X104037Y424002D01*
X104164Y423908D01*
X104289Y423811D01*
X104412Y423710D01*
X104532Y423607D01*
X104649Y423501D01*
X104764Y423392D01*
X104876Y423280D01*
X104985Y423165D01*
X105091Y423048D01*
X105194Y422928D01*
X105295Y422805D01*
X105392Y422680D01*
X105486Y422553D01*
X105577Y422423D01*
X105664Y422291D01*
X105748Y422157D01*
X105829Y422021D01*
X105907Y421883D01*
X105981Y421743D01*
X106051Y421601D01*
X106118Y421458D01*
X106181Y421313D01*
X106241Y421166D01*
X106297Y421018D01*
X106349Y420868D01*
X106398Y420718D01*
X106443Y420566D01*
X106484Y420413D01*
X106521Y420259D01*
X106554Y420104D01*
X106584Y419949D01*
X106609Y419792D01*
X106631Y419636D01*
X106648Y419478D01*
X106662Y419321D01*
X106672Y419163D01*
X106678Y419004D01*
X106680Y418846D01*
X106678Y418688D01*
X106672Y418529D01*
X106662Y418371D01*
X106648Y418214D01*
X106631Y418056D01*
X106609Y417900D01*
X106584Y417743D01*
X106554Y417588D01*
X106521Y417433D01*
X106484Y417279D01*
X106443Y417126D01*
X106398Y416974D01*
X106349Y416824D01*
X106297Y416674D01*
X106241Y416526D01*
X106181Y416379D01*
X106118Y416234D01*
X106051Y416091D01*
X105981Y415949D01*
X105907Y415809D01*
X105829Y415671D01*
X105748Y415535D01*
X105664Y415401D01*
X105577Y415269D01*
X105486Y415139D01*
X105392Y415012D01*
X105295Y414887D01*
X105194Y414764D01*
X105091Y414644D01*
X104985Y414527D01*
X104876Y414412D01*
X104764Y414300D01*
X104649Y414191D01*
X104532Y414085D01*
X104412Y413982D01*
X104289Y413881D01*
X104164Y413784D01*
X104037Y413690D01*
X103907Y413599D01*
X103775Y413512D01*
X103641Y413428D01*
X103505Y413347D01*
X103367Y413269D01*
X103227Y413195D01*
X103085Y413125D01*
X102942Y413058D01*
X102797Y412995D01*
X102650Y412935D01*
X102502Y412879D01*
X102352Y412827D01*
X102202Y412778D01*
X102050Y412733D01*
X101897Y412692D01*
X101743Y412655D01*
X101588Y412622D01*
X101433Y412592D01*
X101276Y412567D01*
X101120Y412545D01*
X100962Y412528D01*
X100805Y412514D01*
X100647Y412504D01*
X100488Y412498D01*
X100330Y412496D01*
X99822Y425196D02*
X99822Y433626D01*
X99822Y412496D02*
X99822Y402447D01*
X100600Y333200D02*
X97400Y333200D01*
X100600Y333200D02*
X100600Y336400D01*
X80400Y352600D02*
X77200Y352600D01*
X77200Y349400D01*
X100600Y349400D02*
X100600Y352600D01*
X97400Y352600D01*
X77200Y336400D02*
X77200Y333200D01*
X80400Y333200D01*
X87000Y352600D02*
X90800Y352600D01*
X90800Y333200D02*
X87000Y333200D01*
X301625Y246063D02*
X301625Y236538D01*
X324500Y338200D02*
X324500Y344200D01*
X316500Y344200D01*
X324500Y322200D02*
X324500Y316200D01*
X316500Y316200D01*
X225425Y246063D02*
X225425Y236538D01*
M02*
